<?xml version="1.0" encoding="utf-8"?>
<svg version="1.1" xmlns:xlink="http://www.w3.org/1999/xlink" width="16px" height="13px" xmlns="http://www.w3.org/2000/svg">
  <g transform="matrix(1 0 0 1 -893 -258 )">
    <path d="M 15.8020833333333 10.59296875  C 15.9340277777778 10.7216145833333  16 10.8739583333333  16 11.05  L 16 12.35  C 16 12.5260416666667  15.9340277777778 12.6783854166667  15.8020833333333 12.80703125  C 15.6701388888889 12.9356770833333  15.5138888888889 13  15.3333333333333 13  L 0.666666666666667 13  C 0.486111111111111 13  0.329861111111111 12.9356770833333  0.197916666666667 12.80703125  C 0.0659722222222222 12.6783854166667  0 12.5260416666667  0 12.35  L 0 11.05  C 0 10.8739583333333  0.0659722222222222 10.7216145833333  0.197916666666667 10.59296875  C 0.329861111111111 10.4643229166667  0.486111111111111 10.4  0.666666666666667 10.4  L 15.3333333333333 10.4  C 15.5138888888889 10.4  15.6701388888889 10.4643229166667  15.8020833333333 10.59296875  Z M 15.8020833333333 5.39296874999998  C 15.9340277777778 5.52161458333332  16 5.67395833333332  16 5.84999999999998  L 16 7.15000000000002  C 16 7.32604166666668  15.9340277777778 7.47838541666668  15.8020833333333 7.60703125000002  C 15.6701388888889 7.73567708333333  15.5138888888889 7.80000000000001  15.3333333333333 7.80000000000001  L 0.666666666666667 7.80000000000001  C 0.486111111111111 7.80000000000001  0.329861111111111 7.73567708333333  0.197916666666667 7.60703125000002  C 0.0659722222222222 7.47838541666668  0 7.32604166666668  0 7.15000000000002  L 0 5.84999999999998  C 0 5.67395833333332  0.0659722222222222 5.52161458333332  0.197916666666667 5.39296874999998  C 0.329861111111111 5.26432291666668  0.486111111111111 5.19999999999999  0.666666666666667 5.19999999999999  L 15.3333333333333 5.19999999999999  C 15.5138888888889 5.19999999999999  15.6701388888889 5.26432291666668  15.8020833333333 5.39296874999998  Z M 15.8020833333333 0.192968750000016  C 15.9340277777778 0.321614583333325  16 0.473958333333325  16 0.650000000000016  L 16 1.94999999999999  C 16 2.12604166666666  15.9340277777778 2.27838541666666  15.8020833333333 2.40703124999999  C 15.6701388888889 2.53567708333333  15.5138888888889 2.59999999999998  15.3333333333333 2.59999999999998  L 0.666666666666667 2.59999999999998  C 0.486111111111111 2.59999999999998  0.329861111111111 2.53567708333333  0.197916666666667 2.40703124999999  C 0.0659722222222222 2.27838541666666  0 2.12604166666666  0 1.94999999999999  L 0 0.650000000000016  C 0 0.473958333333325  0.0659722222222222 0.321614583333325  0.197916666666667 0.192968750000016  C 0.329861111111111 0.0643229166666807  0.486111111111111 0  0.666666666666667 0  L 15.3333333333333 0  C 15.5138888888889 0  15.6701388888889 0.0643229166666807  15.8020833333333 0.192968750000016  Z " fill-rule="nonzero" fill="#000000" stroke="none" transform="matrix(1 0 0 1 893 258 )" />
  </g>
</svg>