<?xml version="1.0" encoding="utf-8"?>
<svg version="1.1" xmlns:xlink="http://www.w3.org/1999/xlink" width="71px" height="20px" xmlns="http://www.w3.org/2000/svg">
  <g transform="matrix(1 0 0 1 -265 -25 )">
    <path d="M 328.1511766742 25.5  C 328.1511766742 25.5  329.726247101449 25.7218409052464  329.726247101449 25.7218409052464  C 329.726247101449 25.7218409052464  335.454501846906 35  335.454501846906 35  C 335.454501846906 35  329.726247101449 44.2781590947536  329.726247101449 44.2781590947536  C 329.726247101449 44.2781590947536  328.1511766742 44.5  328.1511766742 44.5  C 328.1511766742 44.5  265.5 44.5  265.5 44.5  C 265.5 44.5  265.5 25.5  265.5 25.5  C 265.5 25.5  328.1511766742 25.5  328.1511766742 25.5  Z " fill-rule="nonzero" fill="#e6f9fc" stroke="none" />
    <path d="M 328.1511766742 25.5  C 328.1511766742 25.5  329.726247101449 25.7218409052464  329.726247101449 25.7218409052464  C 329.726247101449 25.7218409052464  335.454501846906 35  335.454501846906 35  C 335.454501846906 35  329.726247101449 44.2781590947536  329.726247101449 44.2781590947536  C 329.726247101449 44.2781590947536  328.1511766742 44.5  328.1511766742 44.5  C 328.1511766742 44.5  265.5 44.5  265.5 44.5  C 265.5 44.5  265.5 25.5  265.5 25.5  C 265.5 25.5  328.1511766742 25.5  328.1511766742 25.5  Z " stroke-width="1" stroke="#00c1de" fill="none" />
  </g>
</svg>