<?xml version="1.0" standalone="no"?><!DOCTYPE svg PUBLIC "-//W3C//DTD SVG 1.1//EN" "http://www.w3.org/Graphics/SVG/1.1/DTD/svg11.dtd"><svg t="1559555879857" class="icon" style="" viewBox="0 0 1024 1024" version="1.1" xmlns="http://www.w3.org/2000/svg" p-id="1158" xmlns:xlink="http://www.w3.org/1999/xlink" width="200" height="200"><defs><style type="text/css"></style></defs><path d="M910.8 1024H112.7c-28.6 0-55.7-9.2-76.5-25.8C13.7 980.2 0.8 954.6 0.8 928V705.8c0-17.7 14.3-32 32-32s32 14.3 32 32V928c0 17 22.4 32 47.9 32h798.1c25.5 0 47.9-15 47.9-32V705.8c0-17.7 14.3-32 32-32s32 14.3 32 32V928c0 26.6-12.9 52.2-35.4 70.2-20.8 16.6-48 25.8-76.5 25.8zM32.8 352.1c-17.7 0-32-14.3-32-32V96C0.8 69.4 13.7 43.8 36.2 25.8 56.9 9.2 84.1 0 112.7 0l798.1 0.2c28.6 0 55.7 9.2 76.5 25.8 22.5 18 35.4 43.6 35.4 70.2v223.9c0 17.7-14.3 32-32 32s-32-14.3-32-32V96.2c0-17-22.4-32-47.9-32L112.7 64C98.8 64 85.5 68.3 76.2 75.7 72 79.1 64.8 86.3 64.8 96v224.1c0 17.7-14.3 32-32 32zM983.5 544.1H32c-17.7 0-32-14.3-32-32s14.3-32 32-32h951.6c17.7 0 32 14.3 32 32s-14.4 32-32.1 32z" p-id="1159" fill="#00C1DE"></path></svg>