<?xml version="1.0" encoding="utf-8"?>
<svg version="1.1" xmlns:xlink="http://www.w3.org/1999/xlink" width="113px" height="30px" xmlns="http://www.w3.org/2000/svg">
  <defs>
    <mask fill="white" id="clip16">
      <path d="M 0 30  L 0 10.4999999999995  L 0 0  L 28.692307692307 0  L 113 0  L 113 4.81178396072082  L 113 30  L 0 30  Z " fill-rule="evenodd" />
    </mask>
  </defs>
  <g transform="matrix(1 0 0 1 -425 -606 )">
    <path d="M 0 30  L 0 10.4999999999995  L 0 0  L 28.692307692307 0  L 113 0  L 113 4.81178396072082  L 113 30  L 0 30  Z " fill-rule="nonzero" fill="#f9f9f9" stroke="none" transform="matrix(1 0 0 1 425 606 )" />
    <path d="M 0 30  L 0 10.4999999999995  L 0 0  L 28.692307692307 0  L 113 0  L 113 4.81178396072082  L 113 30  L 0 30  Z " stroke-width="2" stroke="#d7d7d7" fill="none" transform="matrix(1 0 0 1 425 606 )" mask="url(#clip16)" />
  </g>
</svg>