<?xml version="1.0" encoding="utf-8"?>
<svg version="1.1" xmlns:xlink="http://www.w3.org/1999/xlink" width="12px" height="12px" viewBox="683 736.5  12 12" xmlns="http://www.w3.org/2000/svg">
  <path d="M 689 736.5  C 692.36 736.5  695 739.14  695 742.5  C 695 745.86  692.36 748.5  689 748.5  C 685.64 748.5  683 745.86  683 742.5  C 683 739.14  685.64 736.5  689 736.5  Z " fill-rule="nonzero" fill="#ffffff" stroke="none" />
  <path d="M 689 737  C 692.08 737  694.5 739.42  694.5 742.5  C 694.5 745.58  692.08 748  689 748  C 685.92 748  683.5 745.58  683.5 742.5  C 683.5 739.42  685.92 737  689 737  Z " stroke-width="1" stroke="#797979" fill="none" />
  <path d="M 689 745.5  C 687.32 745.5  686 744.18  686 742.5  C 686 740.82  687.32 739.5  689 739.5  C 690.68 739.5  692 740.82  692 742.5  C 692 744.18  690.68 745.5  689 745.5  " fill-rule="nonzero" fill="#797979" stroke="none" />
</svg>