<?xml version="1.0" encoding="utf-8"?>
<svg version="1.1" xmlns:xlink="http://www.w3.org/1999/xlink" width="23px" height="24px" xmlns="http://www.w3.org/2000/svg">
  <g transform="matrix(1 0 0 1 0 -1 )">
    <path d="M 15.578515625 23.095703125  C 15.326953125 23.2484375  15.0439453125 23.3248046875  14.7654296875 23.3248046875  C 14.518359375 23.3248046875  14.2712890625 23.26640625  14.0421875 23.1451171875  L 14.00625 23.1271484375  L 13.9748046875 23.1046875  L 6.2751953125 17.2783203125  C 6.1224609375 17.2064453125  5.95625 17.166015625  5.7900390625 17.166015625  L 2.658984375 17.166015625  C 1.2978515625 17.166015625  0.188281249999998 16.0564453125  0.188281249999998 14.6953125  L 0.188281249999998 9.3046875  C 0.188281249999998 7.9435546875  1.2978515625 6.833984375  2.658984375 6.833984375  L 5.7900390625 6.833984375  C 5.95625 6.833984375  6.1224609375 6.798046875  6.2751953125 6.7216796875  L 14.0017578125 0.868359374999999  L 14.0376953125 0.850390625000001  C 14.52734375 0.5943359375  15.1068359375 0.616796875  15.578515625 0.904296875  C 16.0501953125 1.191796875  16.333203125 1.694921875  16 2.2474609375  L 16 21.7525390625  C 16.333203125 22.305078125  16.0501953125 22.808203125  15.578515625 23.095703125  Z M 6.9939453125 16.1373046875  L 14.6845703125 21.963671875  C 14.769921875 21.999609375  14.841796875 21.9681640625  14.8822265625 21.945703125  C 14.92265625 21.9232421875  14.9900390625 21.86484375  15 21.7525390625  L 15 2.2474609375  C 14.9900390625 2.13515625  14.92265625 2.08125  14.8822265625 2.054296875  C 14.8462890625 2.0318359375  14.7744140625 2.000390625  14.6845703125 2.036328125  L 6.9625 7.88515625  L 6.9265625 7.903125  C 6.576171875 8.0828125  6.1853515625 8.181640625  5.7900390625 8.181640625  L 2.658984375 8.181640625  C 2.0390625 8.181640625  1.5359375 8.684765625  1.5359375 9.3046875  L 1.5359375 14.6953125  C 1.5359375 15.315234375  2.0390625 15.818359375  2.658984375 15.818359375  L 5.7900390625 15.818359375  C 6.1853515625 15.818359375  6.576171875 15.9126953125  6.9265625 16.096875  L 6.9625 16.11484375  L 6.9939453125 16.1373046875  Z M 19.1587890625 16.7212890625  C 19.064453125 16.76171875  18.974609375 16.7796875  18.8802734375 16.7796875  C 18.62421875 16.7796875  18.3771484375 16.6314453125  18.26484375 16.3798828125  C 18.112109375 16.0384765625  18.26484375 15.6431640625  18.60625 15.4904296875  C 19.980859375 14.875  20.8748046875 13.509375  20.8748046875 12  C 20.8748046875 10.4591796875  19.9583984375 9.080078125  18.5388671875 8.4826171875  C 18.1974609375 8.3388671875  18.0357421875 7.9435546875  18.1794921875 7.59765625  C 18.3232421875 7.25625  18.7185546875 7.09453125  19.064453125 7.23828125  C 20.9826171875 8.046875  22.2224609375 9.915625  22.2224609375 12  C 22.2224609375 14.039453125  21.0185546875 15.890234375  19.1587890625 16.7212890625  Z " fill-rule="nonzero" fill="#6633ff" stroke="none" transform="matrix(1 0 0 1 0 1 )" />
  </g>
</svg>