<?xml version="1.0" encoding="utf-8"?>
<svg version="1.1" xmlns:xlink="http://www.w3.org/1999/xlink" width="5px" height="16px" xmlns="http://www.w3.org/2000/svg">
  <g transform="matrix(1 0 0 1 -21 -5 )">
    <path d="M 1.4111328125 15.3537109375  C 1.28984375 15.4615234375  1.1326171875 15.5154296875  0.979882812499998 15.5154296875  C 0.791210937499997 15.5154296875  0.598046874999998 15.4345703125  0.4677734375 15.27734375  C 0.225195312500002 14.9943359375  0.261132812499998 14.567578125  0.544140625000001 14.3294921875  C 2.40390625 12.7482421875  3.4685546875 10.4392578125  3.4685546875 8  C 3.4685546875 5.565234375  2.4083984375 3.265234375  0.557617187500004 1.6794921875  C 0.274609375000008 1.4369140625  0.243164062500004 1.01015625  0.481250000000003 0.731640624999997  C 0.723828125000001 0.448632812500001  1.1505859375 0.417187499999997  1.4291015625 0.6552734375  C 3.580859375 2.492578125  4.81171875 5.169921875  4.81171875 8  C 4.81171875 10.8345703125  3.571875 13.51640625  1.4111328125 15.3537109375  Z " fill-rule="nonzero" fill="#6633ff" stroke="none" transform="matrix(1 0 0 1 21 5 )" />
  </g>
</svg>