<?xml version="1.0" encoding="utf-8"?>
<svg version="1.1" xmlns:xlink="http://www.w3.org/1999/xlink" width="217px" height="182px" xmlns="http://www.w3.org/2000/svg">
  <g>
    <path d="M 193.015087365378 177.829708081244  L 179.670601287678 167.008061440741  C 192.737579175243 150.658694969351  199.868421052632 130.294909957912  199.868421052632 109.292605495859  C 199.868421052632 58.4625934666915  158.961385563487 17.2567271835566  108.5 17.2567271835566  C 58.0386144365128 17.2567271835566  17.1315789473684 58.4625934666915  17.1315789473684 109.292605495859  C 17.1315789473684 131.824520019328  25.3371167985715 153.573645272126  40.1932136765605 170.418444088623  L 27.4920886692613 182  C 9.78450223570101 161.981556536589  0 136.104815317098  0 109.292605495859  C 0 48.9319662112227  48.5771046433589 0  108.5 0  C 168.422895356641 0  217 48.9319662112227  217 109.292605495859  C 217 134.225326462922  208.536941450154 158.408592037116  193.015087365378 177.829708081244  Z M 179.265068550665 167.511821505027  L 179.670601287658 167.008061440766  C 179.536052652716 167.176408319426  179.400874638956 167.344329569362  179.265068550665 167.511821505027  Z " fill-rule="nonzero" fill="#cc3300" stroke="none" />
  </g>
</svg>