<?xml version="1.0" encoding="utf-8"?>
<svg version="1.1" xmlns:xlink="http://www.w3.org/1999/xlink" width="400px" height="30px" xmlns="http://www.w3.org/2000/svg">
  <defs>
    <mask fill="white" id="clip9">
      <path d="M 0 30  L 0 0  L 45.4910551296109 0  L 87.3846153846167 0  L 144.307692307691 0  L 400 0  L 400 30  L 0 30  Z " fill-rule="evenodd" />
    </mask>
  </defs>
  <g transform="matrix(1 0 0 1 -713 -596 )">
    <path d="M 0 30  L 0 0  L 45.4910551296109 0  L 87.3846153846167 0  L 144.307692307691 0  L 400 0  L 400 30  L 0 30  Z " fill-rule="nonzero" fill="#ffffff" stroke="none" transform="matrix(1 0 0 1 713 596 )" />
    <path d="M 0 30  L 0 0  L 45.4910551296109 0  L 87.3846153846167 0  L 144.307692307691 0  L 400 0  L 400 30  L 0 30  Z " stroke-width="2" stroke="#d7d7d7" fill="none" transform="matrix(1 0 0 1 713 596 )" mask="url(#clip9)" />
  </g>
</svg>