<?xml version="1.0" encoding="utf-8"?>
<svg version="1.1" xmlns:xlink="http://www.w3.org/1999/xlink" width="32px" height="35px" xmlns="http://www.w3.org/2000/svg">
  <g transform="matrix(1 0 0 1 -305 -820 )">
    <path d="M 5.62662807525328 17.5  C 5.62662807525328 18.2431891025641  5.74240231548481 19.0354567307693  5.97395079594793 19.8768028846154  L 3.6353111432706 22.0012019230769  C 2.98697539797394 20.556891025641  2.6628075253256 19.0564903846154  2.6628075253256 17.5  L 2.6628075253256 14.8076923076923  C 2.6628075253256 14.443108974359  2.80945489628556 14.1276041666666  3.10274963820552 13.8611778846154  C 3.39604438012543 13.5947516025641  3.74336710082008 13.4615384615385  4.14471780028941 13.4615384615385  C 4.5460684997588 13.4615384615385  4.89339122045345 13.5947516025641  5.18668596237336 13.8611778846154  C 5.47998070429327 14.1276041666666  5.62662807525328 14.443108974359  5.62662807525328 14.8076923076923  L 5.62662807525328 17.5  Z M 32 6.73076923076928  C 32 6.91306089743591  31.9228171731789 7.07431891025635  31.7684515195369 7.21454326923072  L 23.4095513748191 14.8076923076923  L 23.4095513748191 17.5  C 23.4095513748191 19.3509615384615  22.6840328027014 20.9354967948718  21.232995658466 22.2536057692307  C 19.7819585142306 23.5717147435897  18.0376266280753 24.2307692307693  16 24.2307692307693  C 15.1509889049686 24.2307692307693  14.3096960926194 24.0975560897436  13.4761215629522 23.8311298076923  L 11.2532561505065 25.8503605769231  C 12.7506029908345 26.5655048076923  14.3328509406657 26.9230769230769  16 26.9230769230769  C 18.8557645923782 26.9230769230769  21.2986010612639 26.0011017628206  23.328509406657 24.1571514423077  C 25.3584177520502 22.3132011217949  26.3733719247467 20.0941506410256  26.3733719247467 17.5  L 26.3733719247467 14.8076923076923  C 26.3733719247467 14.443108974359  26.5200192957067 14.1276041666666  26.8133140376266 13.8611778846154  C 27.1066087795465 13.5947516025641  27.4539315002412 13.4615384615385  27.8552821997106 13.4615384615385  C 28.2566328991799 13.4615384615385  28.6039556198746 13.5947516025641  28.8972503617945 13.8611778846154  C 29.1905451037144 14.1276041666666  29.3371924746744 14.443108974359  29.3371924746744 14.8076923076923  L 29.3371924746744 17.5  C 29.3371924746744 20.5989583333334  28.1987457790642 23.2947716346154  25.9218523878437 25.5874399038462  C 23.6449589966232 27.8801081730769  20.8316449589966 29.1947115384615  17.4819102749638 29.53125  L 17.4819102749638 32.3076923076923  L 23.4095513748191 32.3076923076923  C 23.8109020742885 32.3076923076923  24.1582247949831 32.4409054487179  24.451519536903 32.7073317307693  C 24.744814278823 32.9737580128206  24.8914616497829 33.2892628205128  24.8914616497829 33.6538461538462  C 24.8914616497829 34.0184294871794  24.744814278823 34.3339342948718  24.451519536903 34.6003605769231  C 24.1582247949831 34.8667868589744  23.8109020742885 35  23.4095513748191 35  L 8.5904486251809 35  C 8.18909792571151 35  7.84177520501686 34.8667868589744  7.54848046309695 34.6003605769231  C 7.25518572117704 34.3339342948718  7.10853835021709 34.0184294871794  7.10853835021709 33.6538461538462  C 7.10853835021709 33.2892628205128  7.25518572117704 32.9737580128206  7.54848046309695 32.7073317307693  C 7.84177520501686 32.4409054487179  8.18909792571151 32.3076923076923  8.5904486251809 32.3076923076923  L 14.5180897250362 32.3076923076923  L 14.5180897250362 29.53125  C 12.5885190545104 29.3489583333334  10.7747226242161 28.7810496794872  9.07670043415339 27.8275240384615  L 3.19536903039074 33.1700721153846  C 3.04100337674868 33.310296474359  2.8634828750603 33.3804086538462  2.6628075253256 33.3804086538462  C 2.46213217559091 33.3804086538462  2.28461167390253 33.310296474359  2.13024602026047 33.1700721153846  L 0.231548480463118 31.4453125  C 0.0771828268210584 31.3050881410256  0 31.1438301282051  0 30.9615384615385  C 0 30.7792467948718  0.0771828268210584 30.6179887820513  0.231548480463118 30.4777644230769  L 28.8046309696093 4.52223557692309  C 28.9589966232513 4.38201121794873  29.1365171249397 4.31189903846155  29.3371924746744 4.31189903846155  C 29.5378678244091 4.31189903846155  29.7153883260975 4.38201121794873  29.8697539797395 4.52223557692309  L 31.7684515195369 6.24699519230774  C 31.9228171731789 6.3872195512821  32 6.54847756410254  32 6.73076923076928  Z M 20.2720694645441 1.24098557692309  C 21.5455861070912 2.06830929487182  22.4447660395562 3.13401442307691  22.9696092619392 4.43810096153845  L 9 17.5  L 9 6.73076923076928  C 8.5904486251809 4.87980769230774  9.31596719729862 3.29527243589746  10.767004341534 1.97716346153845  C 12.2180414857694 0.659054487179446  13.9623733719247 0  16 0  C 17.5745296671491 0  18.9985528219971 0.413661858974365  20.2720694645441 1.24098557692309  Z " fill-rule="nonzero" fill="#000000" stroke="none" transform="matrix(1 0 0 1 305 820 )" />
  </g>
</svg>