<?xml version="1.0" encoding="utf-8"?>
<svg version="1.1" xmlns:xlink="http://www.w3.org/1999/xlink" width="57px" height="63px" xmlns="http://www.w3.org/2000/svg">
  <g transform="matrix(1 0 0 1 -969 -414 )">
    <path d="M 47.5 18  C 47.5 21.4453125  46.5227864583334 24.6328125  44.568359375 27.5625  C 45.7311197916666 27.890625  46.8382161458334 28.3359375  47.8896484375 28.8984375  C 48.9410807291666 29.4609375  50.0419921875 30.31640625  51.1923828125 31.46484375  C 52.3427734375 32.61328125  53.326171875 33.966796875  54.142578125 35.525390625  C 54.958984375 37.083984375  55.6393229166666 39.099609375  56.18359375 41.572265625  C 56.7278645833334 44.044921875  57 46.81640625  57 49.88671875  C 57 53.49609375  55.7630208333334 56.583984375  53.2890625 59.150390625  C 50.8151041666666 61.716796875  47.833984375 63  44.345703125 63  L 12.654296875 63  C 9.166015625 63  6.18489583333337 61.716796875  3.7109375 59.150390625  C 1.23697916666663 56.583984375  0 53.49609375  0 49.88671875  C 0 46.81640625  0.272135416666629 44.044921875  0.81640625 41.572265625  C 1.36067708333337 39.099609375  2.041015625 37.083984375  2.857421875 35.525390625  C 3.673828125 33.966796875  4.6572265625 32.61328125  5.8076171875 31.46484375  C 6.9580078125 30.31640625  8.05891927083337 29.4609375  9.1103515625 28.8984375  C 10.1617838541666 28.3359375  11.2688802083334 27.890625  12.431640625 27.5625  C 10.4772135416666 24.6328125  9.5 21.4453125  9.5 18  C 9.5 15.5625  10.0009765625 13.236328125  11.0029296875 11.021484375  C 12.0048828125 8.806640625  13.359375 6.890625  15.06640625 5.2734375  C 16.7734375 3.65625  18.7958984375 2.373046875  21.1337890625 1.423828125  C 23.4716796875 0.474609375  25.9270833333334 0  28.5 0  C 31.0729166666666 0  33.5283203125 0.474609375  35.8662109375 1.423828125  C 38.2041015625 2.373046875  40.2265625 3.65625  41.93359375 5.2734375  C 43.640625 6.890625  44.9951171875 8.806640625  45.9970703125 11.021484375  C 46.9990234375 13.236328125  47.5 15.5625  47.5 18  Z M 38.5751953125 8.455078125  C 35.7919921875 5.818359375  32.43359375 4.5  28.5 4.5  C 24.56640625 4.5  21.2080078125 5.818359375  18.4248046875 8.455078125  C 15.6416015625 11.091796875  14.25 14.2734375  14.25 18  C 14.25 21.7265625  15.6416015625 24.908203125  18.4248046875 27.544921875  C 21.2080078125 30.181640625  24.56640625 31.5  28.5 31.5  C 32.43359375 31.5  35.7919921875 30.181640625  38.5751953125 27.544921875  C 41.3583984375 24.908203125  42.75 21.7265625  42.75 18  C 42.75 14.2734375  41.3583984375 11.091796875  38.5751953125 8.455078125  Z M 12.654296875 58  L 44.345703125 58  C 46.5227864583334 58.5  48.3844401041666 57.662109375  49.9306640625 55.986328125  C 51.4768880208334 54.310546875  52.25 52.27734375  52.25 49.88671875  C 52.25 44.28515625  51.2789713541666 39.8671875  49.3369140625 36.6328125  C 47.3948567708334 33.3984375  44.60546875 31.69921875  40.96875 31.53515625  C 37.3815104166666 34.51171875  33.2252604166666 36  28.5 36  C 23.7747395833334 36  19.6184895833334 34.51171875  16.03125 31.53515625  C 12.39453125 31.69921875  9.60514322916663 33.3984375  7.6630859375 36.6328125  C 5.72102864583337 39.8671875  4.75 44.28515625  4.75 49.88671875  C 4.75 52.27734375  5.52311197916663 54.310546875  7.0693359375 55.986328125  C 8.61555989583337 57.662109375  10.4772135416666 58.5  12.654296875 58  Z " fill-rule="nonzero" fill="#ffffff" stroke="none" transform="matrix(1 0 0 1 969 414 )" />
  </g>
</svg>