<?xml version="1.0" encoding="utf-8"?>
<svg version="1.1" xmlns:xlink="http://www.w3.org/1999/xlink" width="184px" height="162px" xmlns="http://www.w3.org/2000/svg">
  <g transform="matrix(1 0 0 1 -492 -538 )">
    <path d="M 49.0666666666666 57.8571428571429  C 49.0666666666666 66.234375  51.6541666666667 73.9486607142858  56.8291666666667 81  C 46.4791666666666 81.3013392857143  38.0138888888889 85.1584821428571  31.4333333333333 92  L 18.5916666666667 92  C 13.3527777777778 92.5714285714286  8.94444444444446 91.3510044642858  5.36666666666667 88.91015625  C 1.78888888888889 86.4693080357142  0 82.8984375  0 78.1975446428571  C 0 56.9229910714285  3.96111111111111 46.2857142857143  11.8833333333333 46.2857142857143  C 12.2666666666667 46.2857142857143  13.65625 46.9185267857143  16.0520833333333 48.1841517857143  C 18.4479166666667 49.4497767857143  21.5625 50.73046875  25.3958333333333 52.0262276785714  C 29.2291666666667 53.3219866071429  33.0305555555556 53.9698660714286  36.8 53.9698660714286  C 41.0805555555556 53.9698660714286  45.3291666666667 53.2767857142857  49.5458333333333 51.890625  C 49.2263888888889 54.1205357142857  49.0666666666666 56.109375  49.0666666666666 57.8571428571429  Z M 159.13125 129.229352678571  C 159.354861111111 132.272879464286  159.466666666667 135.391741071429  159.466666666667 138.5859375  C 159.466666666667 145.818080357143  157.134722222222 151.528459821429  152.470833333333 155.717075892857  C 147.806944444445 159.905691964286  141.609722222222 162  133.879166666667 162  L 50.1208333333334 162  C 42.3902777777778 162  36.1930555555556 159.905691964286  31.5291666666667 155.717075892857  C 26.8652777777778 151.528459821429  24.5333333333333 145.818080357143  24.5333333333333 138.5859375  C 24.5333333333333 135.391741071429  24.6451388888889 132.272879464286  24.86875 129.229352678571  C 25.0923611111111 126.185825892857  25.5395833333333 122.901227678571  26.2104166666667 119.375558035714  C 26.88125 115.849888392857  27.7277777777778 112.580357142857  28.75 109.566964285714  C 29.7722222222222 106.553571428571  31.1458333333333 103.615513392857  32.8708333333333 100.752790178571  C 34.5958333333333 97.8900669642857  36.5763888888889 95.44921875  38.8125 93.4302455357142  C 41.0486111111111 91.4112723214286  43.7798611111111 89.7991071428571  47.00625 88.59375  C 50.2326388888889 87.3883928571429  53.7944444444445 86.7857142857142  57.6916666666666 86.7857142857142  C 58.3305555555555 86.7857142857142  59.7041666666667 87.43359375  61.8125 88.7293526785714  C 63.9208333333333 90.0251116071429  66.2527777777777 91.4715401785714  68.8083333333334 93.0686383928571  C 71.3638888888889 94.6657366071429  74.7819444444444 96.1121651785714  79.0625 97.4079241071429  C 83.3430555555556 98.7036830357143  87.6555555555556 99.3515625  92 99.3515625  C 96.3444444444444 99.3515625  100.656944444444 98.7036830357143  104.9375 97.4079241071429  C 109.218055555556 96.1121651785714  112.636111111111 94.6657366071429  115.191666666667 93.0686383928571  C 117.747222222222 91.4715401785714  120.079166666667 90.0251116071429  122.1875 88.7293526785714  C 124.295833333333 87.43359375  125.669444444444 86.7857142857142  126.308333333333 86.7857142857142  C 130.205555555556 86.7857142857142  133.767361111111 87.3883928571429  136.99375 88.59375  C 140.220138888889 89.7991071428571  142.951388888889 91.4112723214286  145.1875 93.4302455357142  C 147.423611111111 95.44921875  149.404166666667 97.8900669642857  151.129166666667 100.752790178571  C 152.854166666667 103.615513392857  154.227777777778 106.553571428571  155.25 109.566964285714  C 156.272222222222 112.580357142857  157.11875 115.849888392857  157.789583333333 119.375558035714  C 158.460416666667 122.901227678571  158.907638888889 126.185825892857  159.13125 129.229352678571  Z M 54.1458333333334 6.78013392857144  C 58.9375 11.3002232142857  61.3333333333334 16.7544642857142  61.3333333333334 23.1428571428571  C 61.3333333333334 29.53125  58.9375 34.9854910714286  54.1458333333334 39.5055803571429  C 49.3541666666666 44.0256696428571  43.5722222222222 46.2857142857143  36.8 46.2857142857143  C 30.0277777777778 46.2857142857143  24.2458333333333 44.0256696428571  19.4541666666667 39.5055803571429  C 14.6625 34.9854910714286  12.2666666666667 29.53125  12.2666666666667 23.1428571428571  C 12.2666666666667 16.7544642857142  14.6625 11.3002232142857  19.4541666666667 6.78013392857144  C 24.2458333333333 2.26004464285711  30.0277777777778 0  36.8 0  C 43.5722222222222 0  49.3541666666666 2.26004464285711  54.1458333333334 6.78013392857144  Z M 118.01875 33.3130580357143  C 125.20625 40.0931919642857  128.8 48.2745535714286  128.8 57.8571428571429  C 128.8 67.4397321428571  125.20625 75.62109375  118.01875 82.4012276785714  C 110.83125 89.1813616071429  102.158333333333 92.5714285714286  92 92.5714285714286  C 81.8416666666667 92.5714285714286  73.16875 89.1813616071429  65.98125 82.4012276785714  C 58.79375 75.62109375  55.2 67.4397321428571  55.2 57.8571428571429  C 55.2 48.2745535714286  58.79375 40.0931919642857  65.98125 33.3130580357143  C 73.16875 26.5329241071429  81.8416666666667 23.1428571428571  92 23.1428571428571  C 102.158333333333 23.1428571428571  110.83125 26.5329241071429  118.01875 33.3130580357143  Z M 172.116666666667 46.2857142857143  C 180.038888888889 46.2857142857143  184 56.9229910714285  184 78.1975446428571  C 184 82.8984375  182.211111111111 86.4693080357142  178.633333333333 88.91015625  C 175.055555555556 91.3510044642858  170.647222222222 92.5714285714286  165.408333333333 92  L 152.566666666667 92  C 145.986111111111 85.1584821428571  137.520833333333 81.3013392857143  127.170833333333 81  C 132.345833333333 73.9486607142858  134.933333333333 66.234375  134.933333333333 57.8571428571429  C 134.933333333333 56.109375  134.773611111111 54.1205357142857  134.454166666667 51.890625  C 138.670833333333 53.2767857142857  142.919444444444 53.9698660714286  147.2 53.9698660714286  C 150.969444444444 53.9698660714286  154.770833333333 53.3219866071429  158.604166666667 52.0262276785714  C 162.4375 50.73046875  165.552083333333 49.4497767857143  167.947916666667 48.1841517857143  C 170.34375 46.9185267857143  171.733333333333 46.2857142857143  172.116666666667 46.2857142857143  Z M 164.545833333333 6.78013392857144  C 169.3375 11.3002232142857  171.733333333333 16.7544642857142  171.733333333333 23.1428571428571  C 171.733333333333 29.53125  169.3375 34.9854910714286  164.545833333333 39.5055803571429  C 159.754166666667 44.0256696428571  153.972222222222 46.2857142857143  147.2 46.2857142857143  C 140.427777777778 46.2857142857143  134.645833333333 44.0256696428571  129.854166666667 39.5055803571429  C 125.0625 34.9854910714286  122.666666666667 29.53125  122.666666666667 23.1428571428571  C 122.666666666667 16.7544642857142  125.0625 11.3002232142857  129.854166666667 6.78013392857144  C 134.645833333333 2.26004464285711  140.427777777778 0  147.2 0  C 153.972222222222 0  159.754166666667 2.26004464285711  164.545833333333 6.78013392857144  Z " fill-rule="nonzero" fill="#ffffff" stroke="none" transform="matrix(1 0 0 1 492 538 )" />
  </g>
</svg>