<?xml version="1.0" encoding="utf-8"?>
<svg version="1.1" xmlns:xlink="http://www.w3.org/1999/xlink" width="50px" height="10px" xmlns="http://www.w3.org/2000/svg">
  <g transform="matrix(1 0 0 1 -972 -833 )">
    <path d="M 12.6420454545455 0.729166666666629  C 13.3049242424242 1.21527777777783  13.6363636363636 1.80555555555554  13.6363636363636 2.5  L 13.6363636363636 7.5  C 13.6363636363636 8.19444444444446  13.3049242424242 8.78472222222217  12.6420454545455 9.27083333333337  C 11.9791666666666 9.75694444444446  11.1742424242424 10  10.2272727272727 10  L 3.40909090909088 10  C 2.46212121212125 10  1.657196969697 9.75694444444446  0.99431818181813 9.27083333333337  C 0.331439393939377 8.78472222222217  0 8.19444444444446  0 7.5  L 0 2.5  C 0 1.80555555555554  0.331439393939377 1.21527777777783  0.99431818181813 0.729166666666629  C 1.657196969697 0.243055555555543  2.46212121212125 0  3.40909090909088 0  L 10.2272727272727 0  C 11.1742424242424 0  11.9791666666666 0.243055555555543  12.6420454545455 0.729166666666629  Z M 30.8238636363636 0.729166666666629  C 31.4867424242424 1.21527777777783  31.8181818181819 1.80555555555554  31.8181818181819 2.5  L 31.8181818181819 7.5  C 31.8181818181819 8.19444444444446  31.4867424242424 8.78472222222217  30.8238636363636 9.27083333333337  C 30.1609848484849 9.75694444444446  29.3560606060606 10  28.4090909090909 10  L 21.5909090909091 10  C 20.6439393939394 10  19.8390151515151 9.75694444444446  19.1761363636364 9.27083333333337  C 18.5132575757576 8.78472222222217  18.1818181818181 8.19444444444446  18.1818181818181 7.5  L 18.1818181818181 2.5  C 18.1818181818181 1.80555555555554  18.5132575757576 1.21527777777783  19.1761363636364 0.729166666666629  C 19.8390151515151 0.243055555555543  20.6439393939394 0  21.5909090909091 0  L 28.4090909090909 0  C 29.3560606060606 0  30.1609848484849 0.243055555555543  30.8238636363636 0.729166666666629  Z M 49.0056818181818 0.729166666666629  C 49.6685606060605 1.21527777777783  50 1.80555555555554  50 2.5  L 50 7.5  C 50 8.19444444444446  49.6685606060605 8.78472222222217  49.0056818181818 9.27083333333337  C 48.342803030303 9.75694444444446  47.5378787878788 10  46.590909090909 10  L 39.7727272727273 10  C 38.8257575757575 10  38.0208333333333 9.75694444444446  37.3579545454545 9.27083333333337  C 36.6950757575758 8.78472222222217  36.3636363636363 8.19444444444446  36.3636363636363 7.5  L 36.3636363636363 2.5  C 36.3636363636363 1.80555555555554  36.6950757575758 1.21527777777783  37.3579545454545 0.729166666666629  C 38.0208333333333 0.243055555555543  38.8257575757575 0  39.7727272727273 0  L 46.590909090909 0  C 47.5378787878788 0  48.342803030303 0.243055555555543  49.0056818181818 0.729166666666629  Z " fill-rule="nonzero" fill="#000000" stroke="none" transform="matrix(1 0 0 1 972 833 )" />
  </g>
</svg>