<?xml version="1.0" encoding="utf-8"?>
<svg version="1.1" xmlns:xlink="http://www.w3.org/1999/xlink" width="46px" height="35px" xmlns="http://www.w3.org/2000/svg">
  <g transform="matrix(1 0 0 1 -457 -820 )">
    <path d="M 44.9988839285714 1.01171875  C 45.6662946428571 1.32161458333337  46 1.859375  46 2.625  L 46 32.375  C 46 33.140625  45.6662946428571 33.6783854166666  44.9988839285714 33.98828125  C 44.7764136904762 34.0794270833334  44.5625 34.125  44.3571428571429 34.125  C 43.8950892857143 34.125  43.5100446428572 33.9518229166666  43.2020089285714 33.60546875  L 32.8571428571429 22.5859375  L 32.8571428571429 27.125  C 32.8571428571429 29.2942708333334  32.1341145833333 31.1490885416666  30.6880580357143 32.689453125  C 29.2420014880952 34.2298177083334  27.500744047619 35  25.4642857142857 35  L 7.39285714285717 35  C 5.3563988095238 35  3.61514136904759 34.2298177083334  2.16908482142856 32.689453125  C 0.723028273809518 31.1490885416666  0 29.2942708333334  0 27.125  L 0 7.875  C 0 5.70572916666663  0.723028273809518 3.85091145833337  2.16908482142856 2.310546875  C 3.61514136904759 0.770182291666629  5.3563988095238 0  7.39285714285717 0  L 25.4642857142857 0  C 27.500744047619 0  29.2420014880952 0.770182291666629  30.6880580357143 2.310546875  C 32.1341145833333 3.85091145833337  32.8571428571429 5.70572916666663  32.8571428571429 7.875  L 32.8571428571429 12.38671875  L 43.2020089285714 1.39453125  C 43.5100446428572 1.04817708333337  43.8950892857143 0.875  44.3571428571429 0.875  C 44.5625 0.875  44.7764136904762 0.920572916666629  44.9988839285714 1.01171875  Z " fill-rule="nonzero" fill="#000000" stroke="none" transform="matrix(1 0 0 1 457 820 )" />
  </g>
</svg>