<?xml version="1.0" encoding="utf-8"?>
<svg version="1.1" xmlns:xlink="http://www.w3.org/1999/xlink" width="43px" height="35px" xmlns="http://www.w3.org/2000/svg">
  <g transform="matrix(1 0 0 1 -821 -820 )">
    <path d="M 11.4666666666667 12.5  C 11.4666666666667 14.3098958333334  12.0713541666667 15.9765625  13.2807291666667 17.5  C 10.8619791666666 17.5651041666666  8.88368055555554 18.3984375  7.3458333333333 20  L 4.34479166666665 20  C 3.12048611111106 20  2.09027777777783 19.736328125  1.25416666666672 19.208984375  C 0.418055555555611 18.681640625  0 17.91015625  0 16.89453125  C 0 12.2981770833334  0.925694444444389 10  2.77708333333328 10  C 2.86666666666667 10  3.19140625 10.13671875  3.75130208333337 10.41015625  C 4.31119791666663 10.68359375  5.0390625 10.9602864583334  5.93489583333337 11.240234375  C 6.83072916666663 11.5201822916666  7.71909722222222 11.66015625  8.60000000000002 11.66015625  C 9.60034722222224 11.66015625  10.5932291666667 11.5104166666666  11.5786458333333 11.2109375  C 11.5039930555556 11.6927083333334  11.4666666666667 12.1223958333334  11.4666666666667 12.5  Z M 37.18828125 27.919921875  C 37.2405381944444 28.5774739583334  37.2666666666667 29.2513020833334  37.2666666666667 29.94140625  C 37.2666666666667 31.50390625  36.7217013888888 32.7376302083334  35.6317708333333 33.642578125  C 34.5418402777777 34.5475260416666  33.0935763888889 35  31.2869791666667 35  L 11.7130208333333 35  C 9.90642361111111 35  8.45815972222226 34.5475260416666  7.36822916666665 33.642578125  C 6.27829861111115 32.7376302083334  5.73333333333335 31.50390625  5.73333333333335 29.94140625  C 5.73333333333335 29.2513020833334  5.75946180555559 28.5774739583334  5.81171874999995 27.919921875  C 5.86397569444443 27.2623697916666  5.96848958333328 26.552734375  6.12526041666672 25.791015625  C 6.28203125000005 25.029296875  6.47986111111106 24.3229166666666  6.71875 23.671875  C 6.95763888888894 23.0208333333334  7.27864583333337 22.3860677083334  7.6817708333333 21.767578125  C 8.08489583333335 21.1490885416666  8.54774305555554 20.6217447916666  9.0703125 20.185546875  C 9.59288194444446 19.7493489583334  10.2311631944444 19.4010416666666  10.98515625 19.140625  C 11.7391493055555 18.8802083333334  12.5715277777778 18.75  13.4822916666667 18.75  C 13.6315972222222 18.75  13.9526041666667 18.8899739583334  14.4453125 19.169921875  C 14.9380208333333 19.4498697916666  15.4829861111111 19.7623697916666  16.0802083333333 20.107421875  C 16.6774305555556 20.4524739583334  17.4762152777778 20.7649739583334  18.4765625 21.044921875  C 19.4769097222222 21.3248697916666  20.4847222222222 21.46484375  21.5 21.46484375  C 22.5152777777778 21.46484375  23.5230902777778 21.3248697916666  24.5234375 21.044921875  C 25.5237847222222 20.7649739583334  26.3225694444444 20.4524739583334  26.9197916666667 20.107421875  C 27.5170138888889 19.7623697916666  28.0619791666667 19.4498697916666  28.5546875 19.169921875  C 29.0473958333333 18.8899739583334  29.3684027777778 18.75  29.5177083333333 18.75  C 30.4284722222222 18.75  31.2608506944445 18.8802083333334  32.01484375 19.140625  C 32.7688368055556 19.4010416666666  33.4071180555555 19.7493489583334  33.9296875 20.185546875  C 34.4522569444445 20.6217447916666  34.9151041666667 21.1490885416666  35.3182291666667 21.767578125  C 35.7213541666666 22.3860677083334  36.0423611111112 23.0208333333334  36.28125 23.671875  C 36.5201388888889 24.3229166666666  36.71796875 25.029296875  36.8747395833333 25.791015625  C 37.0315104166667 26.552734375  37.1360243055556 27.2623697916666  37.18828125 27.919921875  Z M 12.6536458333334 1.46484375  C 13.7734375 2.44140625  14.3333333333334 3.61979166666663  14.3333333333334 5  C 14.3333333333334 6.38020833333337  13.7734375 7.55859375  12.6536458333334 8.53515625  C 11.5338541666666 9.51171875  10.1826388888888 10  8.60000000000002 10  C 7.01736111111109 10  5.6661458333333 9.51171875  4.54635416666667 8.53515625  C 3.42656250000005 7.55859375  2.86666666666667 6.38020833333337  2.86666666666667 5  C 2.86666666666667 3.61979166666663  3.42656250000005 2.44140625  4.54635416666667 1.46484375  C 5.6661458333333 0.48828125  7.01736111111109 0  8.60000000000002 0  C 10.1826388888888 0  11.5338541666666 0.48828125  12.6536458333334 1.46484375  Z M 27.58046875 7.197265625  C 29.26015625 8.662109375  30.1 10.4296875  30.1 12.5  C 30.1 14.5703125  29.26015625 16.337890625  27.58046875 17.802734375  C 25.90078125 19.267578125  23.8739583333333 20  21.5 20  C 19.1260416666667 20  17.09921875 19.267578125  15.41953125 17.802734375  C 13.73984375 16.337890625  12.9 14.5703125  12.9 12.5  C 12.9 10.4296875  13.73984375 8.662109375  15.41953125 7.197265625  C 17.09921875 5.732421875  19.1260416666667 5  21.5 5  C 23.8739583333333 5  25.90078125 5.732421875  27.58046875 7.197265625  Z M 40.2229166666667 10  C 42.0743055555556 10  43 12.2981770833334  43 16.89453125  C 43 17.91015625  42.5819444444444 18.681640625  41.7458333333333 19.208984375  C 40.9097222222222 19.736328125  39.8795138888889 20  38.6552083333333 20  L 35.6541666666667 20  C 34.1163194444445 18.3984375  32.1380208333334 17.5651041666666  29.7192708333333 17.5  C 30.9286458333333 15.9765625  31.5333333333333 14.3098958333334  31.5333333333333 12.5  C 31.5333333333333 12.1223958333334  31.4960069444444 11.6927083333334  31.4213541666667 11.2109375  C 32.4067708333333 11.5104166666666  33.3996527777778 11.66015625  34.4 11.66015625  C 35.2809027777778 11.66015625  36.1692708333334 11.5201822916666  37.0651041666666 11.240234375  C 37.9609375 10.9602864583334  38.6888020833334 10.68359375  39.2486979166666 10.41015625  C 39.80859375 10.13671875  40.1333333333333 10  40.2229166666667 10  Z M 38.4536458333333 1.46484375  C 39.5734375 2.44140625  40.1333333333333 3.61979166666663  40.1333333333333 5  C 40.1333333333333 6.38020833333337  39.5734375 7.55859375  38.4536458333333 8.53515625  C 37.3338541666667 9.51171875  35.9826388888889 10  34.4 10  C 32.8173611111112 10  31.4661458333334 9.51171875  30.3463541666666 8.53515625  C 29.2265625 7.55859375  28.6666666666666 6.38020833333337  28.6666666666666 5  C 28.6666666666666 3.61979166666663  29.2265625 2.44140625  30.3463541666666 1.46484375  C 31.4661458333334 0.48828125  32.8173611111112 0  34.4 0  C 35.9826388888889 0  37.3338541666667 0.48828125  38.4536458333333 1.46484375  Z " fill-rule="nonzero" fill="#000000" stroke="none" transform="matrix(1 0 0 1 821 820 )" />
  </g>
</svg>