<?xml version="1.0" encoding="utf-8"?>
<svg version="1.1" xmlns:xlink="http://www.w3.org/1999/xlink" width="43px" height="35px" xmlns="http://www.w3.org/2000/svg">
  <g transform="matrix(1 0 0 1 -629 -820 )">
    <path d="M 39.9205729166666 21.3386418269231  C 40.0624131944444 21.2054286858975  40.1333333333333 21.0476762820513  40 20.8653846153846  L 40 3.36538461538464  C 40.1333333333333 3.1830929487179  40.0624131944444 3.02534054487182  39.9205729166666 2.89212740384619  C 39.7787326388889 2.75891426282055  39.6107638888889 2.69230769230774  39.4166666666666 3  L 3.58333333333337 3  C 3.38923611111113 2.69230769230774  3.22126736111113 2.75891426282055  3.07942708333337 2.89212740384619  C 2.93758680555561 3.02534054487182  2.86666666666667 3.1830929487179  3 3.36538461538464  L 3 20.8653846153846  C 2.86666666666667 21.0476762820513  2.93758680555561 21.2054286858975  3.07942708333337 21.3386418269231  C 3.22126736111113 21.4718549679487  3.38923611111113 21.5384615384615  3.58333333333337 21  L 39.4166666666666 21  C 39.6107638888889 21.5384615384615  39.7787326388889 21.4718549679487  39.9205729166666 21.3386418269231  Z M 41.9473958333333 0.988581730769283  C 42.6491319444444 1.64763621794873  43 2.43990384615381  43 3.36538461538464  L 43 26.25  C 43 27.1754807692307  42.6491319444444 27.9677483974359  41.9473958333333 28.6268028846154  C 41.2456597222222 29.2858573717949  40.4020833333333 29.6153846153846  39.4166666666666 29  L 27.2333333333333 29  C 27.2333333333333 30.1342147435897  27.3527777777778 30.6775841346154  27.5916666666667 31.2454927884615  C 27.8305555555555 31.8134014423077  28.0694444444445 32.3111979166666  28.3083333333333 32.7388822115385  C 28.5472222222222 33.1665665064103  28.6666666666666 33.4715544871794  28.6666666666666 33.6538461538462  C 28.6666666666666 34.0184294871794  28.5248263888889 34.3339342948718  28.2411458333333 34.6003605769231  C 27.9574652777778 34.8667868589744  27.6215277777778 35  27.2333333333333 35  L 15.7666666666667 35  C 15.3784722222222 35  15.0425347222222 34.8667868589744  14.7588541666667 34.6003605769231  C 14.4751736111111 34.3339342948718  14.3333333333334 34.0184294871794  14.3333333333334 33.6538461538462  C 14.3333333333334 33.4575320512821  14.4527777777778 33.1490384615385  14.6916666666667 32.7283653846154  C 14.9305555555555 32.3076923076923  15.1694444444445 31.8169070512821  15.4083333333333 31.2560096153846  C 15.6472222222222 30.6951121794872  15.7666666666667 30.1482371794872  15.7666666666667 29  L 3.58333333333337 29  C 2.59791666666672 29.6153846153846  1.75434027777783 29.2858573717949  1.0526041666667 28.6268028846154  C 0.350868055555566 27.9677483974359  0 27.1754807692307  0 26.25  L 0 3.36538461538464  C 0 2.43990384615381  0.350868055555566 1.64763621794873  1.0526041666667 0.988581730769283  C 1.75434027777783 0.329527243589723  2.59791666666672 0  3.58333333333337 0  L 39.4166666666666 0  C 40.4020833333333 0  41.2456597222222 0.329527243589723  41.9473958333333 0.988581730769283  Z " fill-rule="nonzero" fill="#000000" stroke="none" transform="matrix(1 0 0 1 629 820 )" />
  </g>
</svg>