<?xml version="1.0" encoding="utf-8"?>
<svg version="1.1" xmlns:xlink="http://www.w3.org/1999/xlink" width="50px" height="43px" xmlns="http://www.w3.org/2000/svg">
  <g transform="matrix(1 0 0 1 -1142 -502 )">
    <path d="M 17.8571428571429 4  L 17.8571428571429 8  L 32.1428571428571 8  L 32.1428571428571 4  L 17.8571428571429 4  Z M 31.25 25  L 50 25  L 50 38.5208333333333  C 50 39.7526041666667  49.5628720238095 40.8070746527778  48.6886160714286 41.6842447916667  C 47.8143601190476 42.5614149305556  46.7633928571429 43  45.5357142857143 43  L 4.46428571428571 43  C 3.23660714285714 43  2.18563988095238 42.5614149305556  1.31138392857143 41.6842447916667  C 0.437127976190476 40.8070746527778  0 39.7526041666667  0 38.5208333333333  L 0 25  L 18.75 25  L 18.75 29.5625  C 18.75 30.0477430555556  18.9267113095238 30.4676649305556  19.2801339285714 30.822265625  C 19.6335565476191 31.1768663194444  20.0520833333333 31.3541666666667  20.5357142857143 31.3541666666667  L 29.4642857142857 31.3541666666667  C 29.9479166666667 31.3541666666667  30.366443452381 31.1768663194444  30.7198660714286 30.822265625  C 31.0732886904762 30.4676649305556  31.25 30.0477430555556  31.25 29.5625  L 31.25 25  Z M 21.4285714285714 25.0833333333333  L 28.5714285714286 25.0833333333333  L 28.5714285714286 28.6666666666667  L 21.4285714285714 28.6666666666667  L 21.4285714285714 25.0833333333333  Z M 48.6886160714286 8.482421875  C 49.5628720238095 9.35959201388889  50 10.4140625  50 11.6458333333333  L 50 22  L 0 22  L 0 11.6458333333333  C 0 10.4140625  0.437127976190476 9.35959201388889  1.31138392857143 8.482421875  C 2.18563988095238 7.60525173611111  3.23660714285714 7.16666666666667  4.46428571428571 7.16666666666667  L 14.2857142857143 7.16666666666667  L 14.2857142857143 2.6875  C 14.2857142857143 1.94097222222222  14.546130952381 1.30642361111111  15.0669642857143 0.783854166666665  C 15.5877976190476 0.261284722222225  16.2202380952381 0  16.9642857142857 0  L 33.0357142857143 0  C 33.7797619047619 0  34.4122023809524 0.261284722222225  34.9330357142857 0.783854166666665  C 35.4538690476191 1.30642361111111  35.7142857142857 1.94097222222222  35.7142857142857 2.6875  L 35.7142857142857 7.16666666666667  L 45.5357142857143 7.16666666666667  C 46.7633928571429 7.16666666666667  47.8143601190476 7.60525173611111  48.6886160714286 8.482421875  Z " fill-rule="nonzero" fill="#000000" stroke="none" transform="matrix(1 0 0 1 1142 502 )" />
  </g>
</svg>