<?xml version="1.0" encoding="utf-8"?>
<svg version="1.1" xmlns:xlink="http://www.w3.org/1999/xlink" width="380px" height="519px" xmlns="http://www.w3.org/2000/svg">
  <defs>
    <mask fill="white" id="clip13">
      <path d="M 292.118967038562 87.3461290491397  C 292.118967038562 87.3461290491397  274.343973903454 87.7297573699436  274.343973903454 87.7297573699436  C 274.343973903454 87.7297573699436  270.353669322103 90.0315272947716  271.079179245986 83.893474161897  C 271.079179245986 83.893474161897  267.451629626575 74.302766141783  261.284795273578 72.0009962169549  C 261.284795273578 72.0009962169549  252.941431148937 63.5611731592538  254.755205958643 62.4102881968397  C 254.755205958643 62.4102881968397  269.265404436281 58.5740049887937  267.451629626575 53.5868368183342  C 267.451629626575 53.5868368183342  259.108265501933 43.996128798219  251.127656339232 40.5434739109775  C 251.127656339232 40.5434739109775  240.970517404887 29.0346242868393  237.342967785476 19.8275445875292  C 237.342967785476 19.8275445875292  226.460318927248 0.262500226493955  222.832769307837 0.262500226493955  C 222.832769307837 0.262500226493955  213.763895259314 -1.65564137752853  203.969511286908 10.6204648882186  C 203.969511286908 10.6204648882186  197.802676933912 18.2930313043107  185.106253265978 14.4567480962641  C 185.106253265978 14.4567480962641  180.390438760746 11.3877215298276  172.409829598045 22.1293145123568  C 172.409829598045 22.1293145123568  173.135339521927 33.6381641364944  171.321564712223 35.1726774197129  C 171.321564712223 35.1726774197129  166.968505168931 37.8580756653455  172.047074636103 45.9142704022421  C 172.047074636103 45.9142704022421  180.027683798804 60.1085182720122  156.811366234583 58.9576333095982  C 156.811366234583 58.9576333095982  135.771578442008 57.0394917055758  132.50678378454 65.4793147632762  C 132.50678378454 65.4793147632762  128.87923416513 77.7554210290234  118.722095230785 68.5483413297134  C 118.722095230785 68.5483413297134  115.094545611375 63.9448014800583  103.123631867322 71.6173678961499  C 103.123631867322 71.6173678961499  71.2011952165188 93.4841821820122  69.3874204068127 93.1005538612082  C 69.3874204068127 93.1005538612082  54.8772219291739 98.8549786732772  58.504771548585 84.277102482702  C 58.504771548585 84.277102482702  59.2302814724663 79.2899343122419  57.7792616247016 70.4664829337364  C 57.7792616247016 70.4664829337364  55.2399768911151 50.5178102518977  47.6221226903562 52.4359518559202  C 47.6221226903562 52.4359518559202  32.386414288836 57.4231200263802  28.7588646694261 65.4793147632762  C 28.7588646694261 65.4793147632762  27.6705997836023 70.4664829337364  22.2292753544895 72.3846245377594  C 22.2292753544895 72.3846245377594  17.876215811197 73.1518811793684  17.5134608492568 93.8678105028177  C 17.5134608492568 93.8678105028177  20.0527455828433 103.458518522933  12.072136420142 104.609403485346  C 12.072136420142 104.609403485346  4.0915272574407 101.924005239714  5.54254710520559 113.432854863852  C 5.54254710520559 113.432854863852  9.17009672461438 122.256306242358  4.454282219383 130.312500979255  C 4.454282219383 130.312500979255  -1.71255213361337 140.670465640979  13.5231562679056 152.946571906726  C 13.5231562679056 152.946571906726  20.0527455828433 157.550111756381  17.876215811197 163.688164889255  C 17.876215811197 163.688164889255  26.9450898597232 169.442589701324  27.6705997836034 177.882412759025  C 27.6705997836034 177.882412759025  33.1119242127184 189.774890703968  35.6512089463047 190.158519024772  C 35.6512089463047 190.158519024772  50.8869173478261 193.994802232818  50.8869173478261 193.994802232818  C 50.8869173478261 193.994802232818  29.1216196313695 205.887280177761  29.1216196313695 205.887280177761  C 29.1216196313695 205.887280177761  15.6996860395531 216.62887316029  15.6996860395531 216.62887316029  C 15.6996860395531 216.62887316029  9.17009672461552 225.452324538796  18.2389707731406 228.137722784428  C 18.2389707731406 228.137722784428  32.0236593268959 230.055864388451  34.5629440604832 230.055864388451  C 34.5629440604832 230.055864388451  44.3573280328885 227.370466142818  45.4455929187122 236.961174162933  C 45.4455929187122 236.961174162933  42.9063081851248 245.400997220635  51.9751822336486 253.840820278336  C 51.9751822336486 253.840820278336  55.6027318530574 260.362501732014  50.8869173478261 277.242147847417  C 50.8869173478261 277.242147847417  49.7986524620025 293.35453732121  44.3573280328885 295.272678925233  C 44.3573280328885 295.272678925233  39.641513527657 299.108962133279  23.3175402403133 295.272678925233  C 23.3175402403133 295.272678925233  18.9644806970208 292.587280679601  13.160401305968 303.712501982934  C 13.160401305968 303.712501982934  5.90530206714686 310.617811757417  12.0721364201441 315.604979927878  C 12.0721364201441 315.604979927878  18.2389707731415 321.359404739947  9.17009672461779 330.566484439257  C 9.17009672461779 330.566484439257  -1.71255213361212 339.389935817762  0.826732599974207 355.885953612361  C 0.826732599974207 355.885953612361  0.101222676092789 367.778431557304  12.4348913820854 367.778431557304  C 12.4348913820854 367.778431557304  26.9450898597245 374.683741331786  31.2981494030146 385.808962635119  C 31.2981494030146 385.808962635119  33.837434136602 401.537723788108  41.455288337362 402.688608750522  C 41.455288337362 402.688608750522  51.2496723097685 411.512060129027  42.5435532231858 419.568254865924  C 42.5435532231858 419.568254865924  25.1313150500193 447.956750605465  25.1313150500193 453.711175417534  C 25.1313150500193 453.711175417534  23.3175402403133 466.75453832489  21.5037654306104 469.439936570523  C 21.5037654306104 469.439936570523  8.80734176267549 485.552326044316  15.336931077613 494.759405743626  C 15.336931077613 494.759405743626  21.8665203925493 504.350113763741  28.0333547455468 503.199228801328  C 28.0333547455468 503.199228801328  40.0042684895972 505.11737040535  43.6318181090082 508.953653613396  C 43.6318181090082 508.953653613396  60.6813013202334 517.777104991903  67.2108906351689 515.85896338788  C 67.2108906351689 515.85896338788  90.7899631613327 518.544361633511  94.4175127807405 518.544361633511  C 94.4175127807405 518.544361633511  109.653221182262 518.544361633511  112.555260877789 515.475335067075  C 112.555260877789 515.475335067075  114.369035687494 508.953653613396  123.437909736018 512.406308500638  C 123.437909736018 512.406308500638  142.663922718889 514.324450104661  142.663922718889 514.324450104661  C 142.663922718889 514.324450104661  141.575657833065 500.130202234891  135.408823480071 499.362945593282  C 135.408823480071 499.362945593282  125.251684545722 500.513830555696  128.15372424125 489.004980931557  C 128.15372424125 489.004980931557  123.437909736018 473.276219778568  132.506783784542 468.289051608109  C 132.506783784542 468.289051608109  144.477697528592 465.603653362476  148.830757071886 456.780201983971  C 148.830757071886 456.780201983971  154.272081500999 443.736839076614  154.272081500999 437.982414264545  C 154.272081500999 437.982414264545  156.085856310704 431.077104490063  163.340955549524 423.788166394775  C 163.340955549524 423.788166394775  171.321564712225 411.895688449833  173.135339521929 406.908520279373  C 173.135339521929 406.908520279373  179.302173874926 400.386838825695  188.37104792345 401.921352108913  C 188.37104792345 401.921352108913  210.861855563789 376.218254615005  221.018994498136 376.218254615005  C 221.018994498136 376.218254615005  240.245007481006 373.532856369373  246.411841834004 369.696573161326  C 246.411841834004 369.696573161326  257.294490692231 362.024006745235  258.382755578054 356.65321025397  C 258.382755578054 356.65321025397  268.17713955046 352.049670404315  271.079179245988 352.049670404315  C 271.079179245988 352.049670404315  273.618463979574 348.213387196269  276.520503675102 347.062502233855  C 276.520503675102 347.062502233855  281.236318180334 347.062502233855  276.520503675102 340.157192459372  C 276.520503675102 340.157192459372  267.451629626577 332.48462604328  265.637854816874 329.799227797648  C 265.637854816874 329.799227797648  260.19653038776 322.126661381556  257.657245654172 320.975776419142  C 257.657245654172 320.975776419142  253.30418611088 312.53595336144  253.30418611088 312.53595336144  C 253.30418611088 312.53595336144  243.147047176534 322.126661381556  233.352663204126 316.372236569487  C 233.352663204126 316.372236569487  211.587365487671 312.53595336144  203.606756324969 304.09613030374  C 203.606756324969 304.09613030374  202.518491439147 297.190820529257  204.695021210792 292.587280679602  C 207.234305944379 287.983740829947  204.695021210792 291.436395717188  204.695021210792 291.436395717188  C 204.695021210792 291.436395717188  216.303179992903 273.405864639371  213.763895259315 263.815156619256  C 213.763895259315 263.815156619256  214.489405183198 254.99170524075  206.508796020497 252.306306995118  C 206.508796020497 252.306306995118  194.900637238385 254.224448599142  193.086862428682 244.633740579027  C 193.086862428682 244.633740579027  184.017988380157 232.741262634084  178.576663951043 236.193917521325  C 178.576663951043 236.193917521325  164.066465473404 245.017368899831  161.527180739818 242.715598975003  C 161.527180739818 242.715598975003  138.673618137536 241.948342333393  136.134333403951 245.400997220635  C 136.134333403951 245.400997220635  126.339949431544 254.99170524075  117.996585306903 246.168253862245  C 117.996585306903 246.168253862245  99.8588372098542 237.344802483739  110.741486068083 230.055864388451  C 110.741486068083 230.055864388451  118.722095230786 225.452324538796  117.27107538302 215.094359877072  C 117.27107538302 215.094359877072  114.369035687493 202.818253611325  124.526174621841 198.981970403279  C 124.526174621841 198.981970403279  137.948108213656 190.542147345577  131.055763936777 184.787722533508  C 131.055763936777 184.787722533508  111.829750953907 169.826218022129  124.888929583781 166.757191455692  C 124.888929583781 166.757191455692  137.585353251715 164.839049851669  140.124637985301 157.933740077186  C 140.124637985301 157.933740077186  148.468002109943 150.261173661095  152.095551729354 152.946571906727  C 152.095551729354 152.946571906727  161.889935701759 151.795686944312  153.909326539057 143.355863886612  C 153.909326539057 143.355863886612  151.00728684353 131.847014262473  160.438915853994 127.627102733623  C 160.438915853994 127.627102733623  165.880240283109 119.187279675922  172.047074636104 133.381527545692  C 172.047074636104 133.381527545692  180.027683798806 148.343032057071  186.557273113742 148.343032057071  C 186.557273113742 148.343032057071  204.695021210792 152.946571906726  211.224610525727 151.412058623509  C 217.754199840665 150.261173661095  211.950120449611 151.412058623509  211.950120449611 151.412058623509  C 211.950120449611 151.412058623509  229.362358622776 148.726660377875  225.372054041426 156.399226793968  C 225.372054041426 156.399226793968  212.675630373492 166.757191455692  213.401140297375 169.442589701325  C 213.401140297375 169.442589701325  217.028689916783 176.347899475807  224.283789155603 179.800554363048  C 224.283789155603 179.800554363048  239.519497557123 186.705864137531  239.519497557123 186.705864137531  C 239.519497557123 186.705864137531  251.127656339234 192.4602889496  251.127656339234 195.529315516037  C 251.127656339234 195.529315516037  250.402146415351 198.21471376167  244.598067024296 201.283740328106  C 244.598067024296 201.283740328106  236.254702899655 204.352766894544  239.156742595182 211.641704989831  C 242.058782290709 218.547014764313  239.882252519065 212.40896163144  239.882252519065 212.40896163144  C 239.882252519065 212.40896163144  245.32357694818 229.288607746842  245.32357694818 229.288607746842  C 245.32357694818 229.288607746842  248.225616643706 236.193917521325  253.666941072821 231.206749350865  C 253.666941072821 231.206749350865  263.824080007167 229.288607746842  263.824080007167 241.948342333393  C 263.824080007167 254.608076919946  263.824080007167 242.715598975003  263.824080007167 242.715598975003  C 263.824080007167 242.715598975003  263.824080007167 248.470023787073  269.265404436283 247.702767145463  C 269.265404436283 247.702767145463  277.608768560924 249.620908749486  278.334278484806 257.293475165578  C 278.334278484806 257.293475165578  286.314887647506 266.884183185693  286.314887647506 268.802324789716  C 286.314887647506 268.802324789716  289.216927343034 275.707634564199  298.285801391558 269.569581431326  C 298.285801391558 269.569581431326  312.070489945316 254.99170524075  316.423549488607 255.375333561555  C 316.423549488607 255.375333561555  332.022012852068 256.526218523969  336.375072395359 248.470023787073  C 336.375072395359 248.470023787073  345.443946443884 236.961174162934  345.443946443884 231.59037767167  C 345.443946443884 231.59037767167  346.532211329706 217.396129801899  347.257721253588 213.559846593854  C 347.257721253588 213.559846593854  351.61078079688 203.969138573739  359.228634997639 200.516483686497  C 359.228634997639 200.516483686497  370.111283855867 193.611173912015  372.650568589455 190.925775666382  C 372.650568589455 190.925775666382  380.631177752156 182.102324287876  379.905667828274 181.335067646267  C 379.905667828274 181.335067646267  373.738833475277 167.140819776497  373.738833475277 167.140819776497  C 373.738833475277 167.140819776497  367.571999122281 168.291704738911  358.140370111817 157.550111756382  C 358.140370111817 157.550111756382  358.140370111817 142.588607245002  349.797005987175 142.588607245002  C 349.797005987175 142.588607245002  335.286807509536 151.412058623509  332.38476781401 140.670465640979  C 332.38476781401 140.670465640979  329.845483080422 131.847014262473  316.786304450548 131.847014262473  C 316.786304450548 131.847014262473  301.187841087087 129.928872658451  307.717430402025 120.338164638336  C 307.717430402025 120.338164638336  315.335284602783 118.803651355117  317.149059412488 112.281969901438  C 317.149059412488 112.281969901438  323.678648727426 82.3589608786797  323.678648727426 82.3589608786797  C 323.678648727426 82.3589608786797  296.834781543796 88.4970140115531  292.118967038562 87.3461290491397  Z " fill-rule="evenodd" />
    </mask>
  </defs>
  <g transform="matrix(1 0 0 1 -738 -140 )">
    <path d="M 292.118967038562 87.3461290491397  C 292.118967038562 87.3461290491397  274.343973903454 87.7297573699436  274.343973903454 87.7297573699436  C 274.343973903454 87.7297573699436  270.353669322103 90.0315272947716  271.079179245986 83.893474161897  C 271.079179245986 83.893474161897  267.451629626575 74.302766141783  261.284795273578 72.0009962169549  C 261.284795273578 72.0009962169549  252.941431148937 63.5611731592538  254.755205958643 62.4102881968397  C 254.755205958643 62.4102881968397  269.265404436281 58.5740049887937  267.451629626575 53.5868368183342  C 267.451629626575 53.5868368183342  259.108265501933 43.996128798219  251.127656339232 40.5434739109775  C 251.127656339232 40.5434739109775  240.970517404887 29.0346242868393  237.342967785476 19.8275445875292  C 237.342967785476 19.8275445875292  226.460318927248 0.262500226493955  222.832769307837 0.262500226493955  C 222.832769307837 0.262500226493955  213.763895259314 -1.65564137752853  203.969511286908 10.6204648882186  C 203.969511286908 10.6204648882186  197.802676933912 18.2930313043107  185.106253265978 14.4567480962641  C 185.106253265978 14.4567480962641  180.390438760746 11.3877215298276  172.409829598045 22.1293145123568  C 172.409829598045 22.1293145123568  173.135339521927 33.6381641364944  171.321564712223 35.1726774197129  C 171.321564712223 35.1726774197129  166.968505168931 37.8580756653455  172.047074636103 45.9142704022421  C 172.047074636103 45.9142704022421  180.027683798804 60.1085182720122  156.811366234583 58.9576333095982  C 156.811366234583 58.9576333095982  135.771578442008 57.0394917055758  132.50678378454 65.4793147632762  C 132.50678378454 65.4793147632762  128.87923416513 77.7554210290234  118.722095230785 68.5483413297134  C 118.722095230785 68.5483413297134  115.094545611375 63.9448014800583  103.123631867322 71.6173678961499  C 103.123631867322 71.6173678961499  71.2011952165188 93.4841821820122  69.3874204068127 93.1005538612082  C 69.3874204068127 93.1005538612082  54.8772219291739 98.8549786732772  58.504771548585 84.277102482702  C 58.504771548585 84.277102482702  59.2302814724663 79.2899343122419  57.7792616247016 70.4664829337364  C 57.7792616247016 70.4664829337364  55.2399768911151 50.5178102518977  47.6221226903562 52.4359518559202  C 47.6221226903562 52.4359518559202  32.386414288836 57.4231200263802  28.7588646694261 65.4793147632762  C 28.7588646694261 65.4793147632762  27.6705997836023 70.4664829337364  22.2292753544895 72.3846245377594  C 22.2292753544895 72.3846245377594  17.876215811197 73.1518811793684  17.5134608492568 93.8678105028177  C 17.5134608492568 93.8678105028177  20.0527455828433 103.458518522933  12.072136420142 104.609403485346  C 12.072136420142 104.609403485346  4.0915272574407 101.924005239714  5.54254710520559 113.432854863852  C 5.54254710520559 113.432854863852  9.17009672461438 122.256306242358  4.454282219383 130.312500979255  C 4.454282219383 130.312500979255  -1.71255213361337 140.670465640979  13.5231562679056 152.946571906726  C 13.5231562679056 152.946571906726  20.0527455828433 157.550111756381  17.876215811197 163.688164889255  C 17.876215811197 163.688164889255  26.9450898597232 169.442589701324  27.6705997836034 177.882412759025  C 27.6705997836034 177.882412759025  33.1119242127184 189.774890703968  35.6512089463047 190.158519024772  C 35.6512089463047 190.158519024772  50.8869173478261 193.994802232818  50.8869173478261 193.994802232818  C 50.8869173478261 193.994802232818  29.1216196313695 205.887280177761  29.1216196313695 205.887280177761  C 29.1216196313695 205.887280177761  15.6996860395531 216.62887316029  15.6996860395531 216.62887316029  C 15.6996860395531 216.62887316029  9.17009672461552 225.452324538796  18.2389707731406 228.137722784428  C 18.2389707731406 228.137722784428  32.0236593268959 230.055864388451  34.5629440604832 230.055864388451  C 34.5629440604832 230.055864388451  44.3573280328885 227.370466142818  45.4455929187122 236.961174162933  C 45.4455929187122 236.961174162933  42.9063081851248 245.400997220635  51.9751822336486 253.840820278336  C 51.9751822336486 253.840820278336  55.6027318530574 260.362501732014  50.8869173478261 277.242147847417  C 50.8869173478261 277.242147847417  49.7986524620025 293.35453732121  44.3573280328885 295.272678925233  C 44.3573280328885 295.272678925233  39.641513527657 299.108962133279  23.3175402403133 295.272678925233  C 23.3175402403133 295.272678925233  18.9644806970208 292.587280679601  13.160401305968 303.712501982934  C 13.160401305968 303.712501982934  5.90530206714686 310.617811757417  12.0721364201441 315.604979927878  C 12.0721364201441 315.604979927878  18.2389707731415 321.359404739947  9.17009672461779 330.566484439257  C 9.17009672461779 330.566484439257  -1.71255213361212 339.389935817762  0.826732599974207 355.885953612361  C 0.826732599974207 355.885953612361  0.101222676092789 367.778431557304  12.4348913820854 367.778431557304  C 12.4348913820854 367.778431557304  26.9450898597245 374.683741331786  31.2981494030146 385.808962635119  C 31.2981494030146 385.808962635119  33.837434136602 401.537723788108  41.455288337362 402.688608750522  C 41.455288337362 402.688608750522  51.2496723097685 411.512060129027  42.5435532231858 419.568254865924  C 42.5435532231858 419.568254865924  25.1313150500193 447.956750605465  25.1313150500193 453.711175417534  C 25.1313150500193 453.711175417534  23.3175402403133 466.75453832489  21.5037654306104 469.439936570523  C 21.5037654306104 469.439936570523  8.80734176267549 485.552326044316  15.336931077613 494.759405743626  C 15.336931077613 494.759405743626  21.8665203925493 504.350113763741  28.0333547455468 503.199228801328  C 28.0333547455468 503.199228801328  40.0042684895972 505.11737040535  43.6318181090082 508.953653613396  C 43.6318181090082 508.953653613396  60.6813013202334 517.777104991903  67.2108906351689 515.85896338788  C 67.2108906351689 515.85896338788  90.7899631613327 518.544361633511  94.4175127807405 518.544361633511  C 94.4175127807405 518.544361633511  109.653221182262 518.544361633511  112.555260877789 515.475335067075  C 112.555260877789 515.475335067075  114.369035687494 508.953653613396  123.437909736018 512.406308500638  C 123.437909736018 512.406308500638  142.663922718889 514.324450104661  142.663922718889 514.324450104661  C 142.663922718889 514.324450104661  141.575657833065 500.130202234891  135.408823480071 499.362945593282  C 135.408823480071 499.362945593282  125.251684545722 500.513830555696  128.15372424125 489.004980931557  C 128.15372424125 489.004980931557  123.437909736018 473.276219778568  132.506783784542 468.289051608109  C 132.506783784542 468.289051608109  144.477697528592 465.603653362476  148.830757071886 456.780201983971  C 148.830757071886 456.780201983971  154.272081500999 443.736839076614  154.272081500999 437.982414264545  C 154.272081500999 437.982414264545  156.085856310704 431.077104490063  163.340955549524 423.788166394775  C 163.340955549524 423.788166394775  171.321564712225 411.895688449833  173.135339521929 406.908520279373  C 173.135339521929 406.908520279373  179.302173874926 400.386838825695  188.37104792345 401.921352108913  C 188.37104792345 401.921352108913  210.861855563789 376.218254615005  221.018994498136 376.218254615005  C 221.018994498136 376.218254615005  240.245007481006 373.532856369373  246.411841834004 369.696573161326  C 246.411841834004 369.696573161326  257.294490692231 362.024006745235  258.382755578054 356.65321025397  C 258.382755578054 356.65321025397  268.17713955046 352.049670404315  271.079179245988 352.049670404315  C 271.079179245988 352.049670404315  273.618463979574 348.213387196269  276.520503675102 347.062502233855  C 276.520503675102 347.062502233855  281.236318180334 347.062502233855  276.520503675102 340.157192459372  C 276.520503675102 340.157192459372  267.451629626577 332.48462604328  265.637854816874 329.799227797648  C 265.637854816874 329.799227797648  260.19653038776 322.126661381556  257.657245654172 320.975776419142  C 257.657245654172 320.975776419142  253.30418611088 312.53595336144  253.30418611088 312.53595336144  C 253.30418611088 312.53595336144  243.147047176534 322.126661381556  233.352663204126 316.372236569487  C 233.352663204126 316.372236569487  211.587365487671 312.53595336144  203.606756324969 304.09613030374  C 203.606756324969 304.09613030374  202.518491439147 297.190820529257  204.695021210792 292.587280679602  C 207.234305944379 287.983740829947  204.695021210792 291.436395717188  204.695021210792 291.436395717188  C 204.695021210792 291.436395717188  216.303179992903 273.405864639371  213.763895259315 263.815156619256  C 213.763895259315 263.815156619256  214.489405183198 254.99170524075  206.508796020497 252.306306995118  C 206.508796020497 252.306306995118  194.900637238385 254.224448599142  193.086862428682 244.633740579027  C 193.086862428682 244.633740579027  184.017988380157 232.741262634084  178.576663951043 236.193917521325  C 178.576663951043 236.193917521325  164.066465473404 245.017368899831  161.527180739818 242.715598975003  C 161.527180739818 242.715598975003  138.673618137536 241.948342333393  136.134333403951 245.400997220635  C 136.134333403951 245.400997220635  126.339949431544 254.99170524075  117.996585306903 246.168253862245  C 117.996585306903 246.168253862245  99.8588372098542 237.344802483739  110.741486068083 230.055864388451  C 110.741486068083 230.055864388451  118.722095230786 225.452324538796  117.27107538302 215.094359877072  C 117.27107538302 215.094359877072  114.369035687493 202.818253611325  124.526174621841 198.981970403279  C 124.526174621841 198.981970403279  137.948108213656 190.542147345577  131.055763936777 184.787722533508  C 131.055763936777 184.787722533508  111.829750953907 169.826218022129  124.888929583781 166.757191455692  C 124.888929583781 166.757191455692  137.585353251715 164.839049851669  140.124637985301 157.933740077186  C 140.124637985301 157.933740077186  148.468002109943 150.261173661095  152.095551729354 152.946571906727  C 152.095551729354 152.946571906727  161.889935701759 151.795686944312  153.909326539057 143.355863886612  C 153.909326539057 143.355863886612  151.00728684353 131.847014262473  160.438915853994 127.627102733623  C 160.438915853994 127.627102733623  165.880240283109 119.187279675922  172.047074636104 133.381527545692  C 172.047074636104 133.381527545692  180.027683798806 148.343032057071  186.557273113742 148.343032057071  C 186.557273113742 148.343032057071  204.695021210792 152.946571906726  211.224610525727 151.412058623509  C 217.754199840665 150.261173661095  211.950120449611 151.412058623509  211.950120449611 151.412058623509  C 211.950120449611 151.412058623509  229.362358622776 148.726660377875  225.372054041426 156.399226793968  C 225.372054041426 156.399226793968  212.675630373492 166.757191455692  213.401140297375 169.442589701325  C 213.401140297375 169.442589701325  217.028689916783 176.347899475807  224.283789155603 179.800554363048  C 224.283789155603 179.800554363048  239.519497557123 186.705864137531  239.519497557123 186.705864137531  C 239.519497557123 186.705864137531  251.127656339234 192.4602889496  251.127656339234 195.529315516037  C 251.127656339234 195.529315516037  250.402146415351 198.21471376167  244.598067024296 201.283740328106  C 244.598067024296 201.283740328106  236.254702899655 204.352766894544  239.156742595182 211.641704989831  C 242.058782290709 218.547014764313  239.882252519065 212.40896163144  239.882252519065 212.40896163144  C 239.882252519065 212.40896163144  245.32357694818 229.288607746842  245.32357694818 229.288607746842  C 245.32357694818 229.288607746842  248.225616643706 236.193917521325  253.666941072821 231.206749350865  C 253.666941072821 231.206749350865  263.824080007167 229.288607746842  263.824080007167 241.948342333393  C 263.824080007167 254.608076919946  263.824080007167 242.715598975003  263.824080007167 242.715598975003  C 263.824080007167 242.715598975003  263.824080007167 248.470023787073  269.265404436283 247.702767145463  C 269.265404436283 247.702767145463  277.608768560924 249.620908749486  278.334278484806 257.293475165578  C 278.334278484806 257.293475165578  286.314887647506 266.884183185693  286.314887647506 268.802324789716  C 286.314887647506 268.802324789716  289.216927343034 275.707634564199  298.285801391558 269.569581431326  C 298.285801391558 269.569581431326  312.070489945316 254.99170524075  316.423549488607 255.375333561555  C 316.423549488607 255.375333561555  332.022012852068 256.526218523969  336.375072395359 248.470023787073  C 336.375072395359 248.470023787073  345.443946443884 236.961174162934  345.443946443884 231.59037767167  C 345.443946443884 231.59037767167  346.532211329706 217.396129801899  347.257721253588 213.559846593854  C 347.257721253588 213.559846593854  351.61078079688 203.969138573739  359.228634997639 200.516483686497  C 359.228634997639 200.516483686497  370.111283855867 193.611173912015  372.650568589455 190.925775666382  C 372.650568589455 190.925775666382  380.631177752156 182.102324287876  379.905667828274 181.335067646267  C 379.905667828274 181.335067646267  373.738833475277 167.140819776497  373.738833475277 167.140819776497  C 373.738833475277 167.140819776497  367.571999122281 168.291704738911  358.140370111817 157.550111756382  C 358.140370111817 157.550111756382  358.140370111817 142.588607245002  349.797005987175 142.588607245002  C 349.797005987175 142.588607245002  335.286807509536 151.412058623509  332.38476781401 140.670465640979  C 332.38476781401 140.670465640979  329.845483080422 131.847014262473  316.786304450548 131.847014262473  C 316.786304450548 131.847014262473  301.187841087087 129.928872658451  307.717430402025 120.338164638336  C 307.717430402025 120.338164638336  315.335284602783 118.803651355117  317.149059412488 112.281969901438  C 317.149059412488 112.281969901438  323.678648727426 82.3589608786797  323.678648727426 82.3589608786797  C 323.678648727426 82.3589608786797  296.834781543796 88.4970140115531  292.118967038562 87.3461290491397  Z " fill-rule="nonzero" fill="#0033cc" stroke="none" transform="matrix(1 0 0 1 738 140 )" />
    <path d="M 292.118967038562 87.3461290491397  C 292.118967038562 87.3461290491397  274.343973903454 87.7297573699436  274.343973903454 87.7297573699436  C 274.343973903454 87.7297573699436  270.353669322103 90.0315272947716  271.079179245986 83.893474161897  C 271.079179245986 83.893474161897  267.451629626575 74.302766141783  261.284795273578 72.0009962169549  C 261.284795273578 72.0009962169549  252.941431148937 63.5611731592538  254.755205958643 62.4102881968397  C 254.755205958643 62.4102881968397  269.265404436281 58.5740049887937  267.451629626575 53.5868368183342  C 267.451629626575 53.5868368183342  259.108265501933 43.996128798219  251.127656339232 40.5434739109775  C 251.127656339232 40.5434739109775  240.970517404887 29.0346242868393  237.342967785476 19.8275445875292  C 237.342967785476 19.8275445875292  226.460318927248 0.262500226493955  222.832769307837 0.262500226493955  C 222.832769307837 0.262500226493955  213.763895259314 -1.65564137752853  203.969511286908 10.6204648882186  C 203.969511286908 10.6204648882186  197.802676933912 18.2930313043107  185.106253265978 14.4567480962641  C 185.106253265978 14.4567480962641  180.390438760746 11.3877215298276  172.409829598045 22.1293145123568  C 172.409829598045 22.1293145123568  173.135339521927 33.6381641364944  171.321564712223 35.1726774197129  C 171.321564712223 35.1726774197129  166.968505168931 37.8580756653455  172.047074636103 45.9142704022421  C 172.047074636103 45.9142704022421  180.027683798804 60.1085182720122  156.811366234583 58.9576333095982  C 156.811366234583 58.9576333095982  135.771578442008 57.0394917055758  132.50678378454 65.4793147632762  C 132.50678378454 65.4793147632762  128.87923416513 77.7554210290234  118.722095230785 68.5483413297134  C 118.722095230785 68.5483413297134  115.094545611375 63.9448014800583  103.123631867322 71.6173678961499  C 103.123631867322 71.6173678961499  71.2011952165188 93.4841821820122  69.3874204068127 93.1005538612082  C 69.3874204068127 93.1005538612082  54.8772219291739 98.8549786732772  58.504771548585 84.277102482702  C 58.504771548585 84.277102482702  59.2302814724663 79.2899343122419  57.7792616247016 70.4664829337364  C 57.7792616247016 70.4664829337364  55.2399768911151 50.5178102518977  47.6221226903562 52.4359518559202  C 47.6221226903562 52.4359518559202  32.386414288836 57.4231200263802  28.7588646694261 65.4793147632762  C 28.7588646694261 65.4793147632762  27.6705997836023 70.4664829337364  22.2292753544895 72.3846245377594  C 22.2292753544895 72.3846245377594  17.876215811197 73.1518811793684  17.5134608492568 93.8678105028177  C 17.5134608492568 93.8678105028177  20.0527455828433 103.458518522933  12.072136420142 104.609403485346  C 12.072136420142 104.609403485346  4.0915272574407 101.924005239714  5.54254710520559 113.432854863852  C 5.54254710520559 113.432854863852  9.17009672461438 122.256306242358  4.454282219383 130.312500979255  C 4.454282219383 130.312500979255  -1.71255213361337 140.670465640979  13.5231562679056 152.946571906726  C 13.5231562679056 152.946571906726  20.0527455828433 157.550111756381  17.876215811197 163.688164889255  C 17.876215811197 163.688164889255  26.9450898597232 169.442589701324  27.6705997836034 177.882412759025  C 27.6705997836034 177.882412759025  33.1119242127184 189.774890703968  35.6512089463047 190.158519024772  C 35.6512089463047 190.158519024772  50.8869173478261 193.994802232818  50.8869173478261 193.994802232818  C 50.8869173478261 193.994802232818  29.1216196313695 205.887280177761  29.1216196313695 205.887280177761  C 29.1216196313695 205.887280177761  15.6996860395531 216.62887316029  15.6996860395531 216.62887316029  C 15.6996860395531 216.62887316029  9.17009672461552 225.452324538796  18.2389707731406 228.137722784428  C 18.2389707731406 228.137722784428  32.0236593268959 230.055864388451  34.5629440604832 230.055864388451  C 34.5629440604832 230.055864388451  44.3573280328885 227.370466142818  45.4455929187122 236.961174162933  C 45.4455929187122 236.961174162933  42.9063081851248 245.400997220635  51.9751822336486 253.840820278336  C 51.9751822336486 253.840820278336  55.6027318530574 260.362501732014  50.8869173478261 277.242147847417  C 50.8869173478261 277.242147847417  49.7986524620025 293.35453732121  44.3573280328885 295.272678925233  C 44.3573280328885 295.272678925233  39.641513527657 299.108962133279  23.3175402403133 295.272678925233  C 23.3175402403133 295.272678925233  18.9644806970208 292.587280679601  13.160401305968 303.712501982934  C 13.160401305968 303.712501982934  5.90530206714686 310.617811757417  12.0721364201441 315.604979927878  C 12.0721364201441 315.604979927878  18.2389707731415 321.359404739947  9.17009672461779 330.566484439257  C 9.17009672461779 330.566484439257  -1.71255213361212 339.389935817762  0.826732599974207 355.885953612361  C 0.826732599974207 355.885953612361  0.101222676092789 367.778431557304  12.4348913820854 367.778431557304  C 12.4348913820854 367.778431557304  26.9450898597245 374.683741331786  31.2981494030146 385.808962635119  C 31.2981494030146 385.808962635119  33.837434136602 401.537723788108  41.455288337362 402.688608750522  C 41.455288337362 402.688608750522  51.2496723097685 411.512060129027  42.5435532231858 419.568254865924  C 42.5435532231858 419.568254865924  25.1313150500193 447.956750605465  25.1313150500193 453.711175417534  C 25.1313150500193 453.711175417534  23.3175402403133 466.75453832489  21.5037654306104 469.439936570523  C 21.5037654306104 469.439936570523  8.80734176267549 485.552326044316  15.336931077613 494.759405743626  C 15.336931077613 494.759405743626  21.8665203925493 504.350113763741  28.0333547455468 503.199228801328  C 28.0333547455468 503.199228801328  40.0042684895972 505.11737040535  43.6318181090082 508.953653613396  C 43.6318181090082 508.953653613396  60.6813013202334 517.777104991903  67.2108906351689 515.85896338788  C 67.2108906351689 515.85896338788  90.7899631613327 518.544361633511  94.4175127807405 518.544361633511  C 94.4175127807405 518.544361633511  109.653221182262 518.544361633511  112.555260877789 515.475335067075  C 112.555260877789 515.475335067075  114.369035687494 508.953653613396  123.437909736018 512.406308500638  C 123.437909736018 512.406308500638  142.663922718889 514.324450104661  142.663922718889 514.324450104661  C 142.663922718889 514.324450104661  141.575657833065 500.130202234891  135.408823480071 499.362945593282  C 135.408823480071 499.362945593282  125.251684545722 500.513830555696  128.15372424125 489.004980931557  C 128.15372424125 489.004980931557  123.437909736018 473.276219778568  132.506783784542 468.289051608109  C 132.506783784542 468.289051608109  144.477697528592 465.603653362476  148.830757071886 456.780201983971  C 148.830757071886 456.780201983971  154.272081500999 443.736839076614  154.272081500999 437.982414264545  C 154.272081500999 437.982414264545  156.085856310704 431.077104490063  163.340955549524 423.788166394775  C 163.340955549524 423.788166394775  171.321564712225 411.895688449833  173.135339521929 406.908520279373  C 173.135339521929 406.908520279373  179.302173874926 400.386838825695  188.37104792345 401.921352108913  C 188.37104792345 401.921352108913  210.861855563789 376.218254615005  221.018994498136 376.218254615005  C 221.018994498136 376.218254615005  240.245007481006 373.532856369373  246.411841834004 369.696573161326  C 246.411841834004 369.696573161326  257.294490692231 362.024006745235  258.382755578054 356.65321025397  C 258.382755578054 356.65321025397  268.17713955046 352.049670404315  271.079179245988 352.049670404315  C 271.079179245988 352.049670404315  273.618463979574 348.213387196269  276.520503675102 347.062502233855  C 276.520503675102 347.062502233855  281.236318180334 347.062502233855  276.520503675102 340.157192459372  C 276.520503675102 340.157192459372  267.451629626577 332.48462604328  265.637854816874 329.799227797648  C 265.637854816874 329.799227797648  260.19653038776 322.126661381556  257.657245654172 320.975776419142  C 257.657245654172 320.975776419142  253.30418611088 312.53595336144  253.30418611088 312.53595336144  C 253.30418611088 312.53595336144  243.147047176534 322.126661381556  233.352663204126 316.372236569487  C 233.352663204126 316.372236569487  211.587365487671 312.53595336144  203.606756324969 304.09613030374  C 203.606756324969 304.09613030374  202.518491439147 297.190820529257  204.695021210792 292.587280679602  C 207.234305944379 287.983740829947  204.695021210792 291.436395717188  204.695021210792 291.436395717188  C 204.695021210792 291.436395717188  216.303179992903 273.405864639371  213.763895259315 263.815156619256  C 213.763895259315 263.815156619256  214.489405183198 254.99170524075  206.508796020497 252.306306995118  C 206.508796020497 252.306306995118  194.900637238385 254.224448599142  193.086862428682 244.633740579027  C 193.086862428682 244.633740579027  184.017988380157 232.741262634084  178.576663951043 236.193917521325  C 178.576663951043 236.193917521325  164.066465473404 245.017368899831  161.527180739818 242.715598975003  C 161.527180739818 242.715598975003  138.673618137536 241.948342333393  136.134333403951 245.400997220635  C 136.134333403951 245.400997220635  126.339949431544 254.99170524075  117.996585306903 246.168253862245  C 117.996585306903 246.168253862245  99.8588372098542 237.344802483739  110.741486068083 230.055864388451  C 110.741486068083 230.055864388451  118.722095230786 225.452324538796  117.27107538302 215.094359877072  C 117.27107538302 215.094359877072  114.369035687493 202.818253611325  124.526174621841 198.981970403279  C 124.526174621841 198.981970403279  137.948108213656 190.542147345577  131.055763936777 184.787722533508  C 131.055763936777 184.787722533508  111.829750953907 169.826218022129  124.888929583781 166.757191455692  C 124.888929583781 166.757191455692  137.585353251715 164.839049851669  140.124637985301 157.933740077186  C 140.124637985301 157.933740077186  148.468002109943 150.261173661095  152.095551729354 152.946571906727  C 152.095551729354 152.946571906727  161.889935701759 151.795686944312  153.909326539057 143.355863886612  C 153.909326539057 143.355863886612  151.00728684353 131.847014262473  160.438915853994 127.627102733623  C 160.438915853994 127.627102733623  165.880240283109 119.187279675922  172.047074636104 133.381527545692  C 172.047074636104 133.381527545692  180.027683798806 148.343032057071  186.557273113742 148.343032057071  C 186.557273113742 148.343032057071  204.695021210792 152.946571906726  211.224610525727 151.412058623509  C 217.754199840665 150.261173661095  211.950120449611 151.412058623509  211.950120449611 151.412058623509  C 211.950120449611 151.412058623509  229.362358622776 148.726660377875  225.372054041426 156.399226793968  C 225.372054041426 156.399226793968  212.675630373492 166.757191455692  213.401140297375 169.442589701325  C 213.401140297375 169.442589701325  217.028689916783 176.347899475807  224.283789155603 179.800554363048  C 224.283789155603 179.800554363048  239.519497557123 186.705864137531  239.519497557123 186.705864137531  C 239.519497557123 186.705864137531  251.127656339234 192.4602889496  251.127656339234 195.529315516037  C 251.127656339234 195.529315516037  250.402146415351 198.21471376167  244.598067024296 201.283740328106  C 244.598067024296 201.283740328106  236.254702899655 204.352766894544  239.156742595182 211.641704989831  C 242.058782290709 218.547014764313  239.882252519065 212.40896163144  239.882252519065 212.40896163144  C 239.882252519065 212.40896163144  245.32357694818 229.288607746842  245.32357694818 229.288607746842  C 245.32357694818 229.288607746842  248.225616643706 236.193917521325  253.666941072821 231.206749350865  C 253.666941072821 231.206749350865  263.824080007167 229.288607746842  263.824080007167 241.948342333393  C 263.824080007167 254.608076919946  263.824080007167 242.715598975003  263.824080007167 242.715598975003  C 263.824080007167 242.715598975003  263.824080007167 248.470023787073  269.265404436283 247.702767145463  C 269.265404436283 247.702767145463  277.608768560924 249.620908749486  278.334278484806 257.293475165578  C 278.334278484806 257.293475165578  286.314887647506 266.884183185693  286.314887647506 268.802324789716  C 286.314887647506 268.802324789716  289.216927343034 275.707634564199  298.285801391558 269.569581431326  C 298.285801391558 269.569581431326  312.070489945316 254.99170524075  316.423549488607 255.375333561555  C 316.423549488607 255.375333561555  332.022012852068 256.526218523969  336.375072395359 248.470023787073  C 336.375072395359 248.470023787073  345.443946443884 236.961174162934  345.443946443884 231.59037767167  C 345.443946443884 231.59037767167  346.532211329706 217.396129801899  347.257721253588 213.559846593854  C 347.257721253588 213.559846593854  351.61078079688 203.969138573739  359.228634997639 200.516483686497  C 359.228634997639 200.516483686497  370.111283855867 193.611173912015  372.650568589455 190.925775666382  C 372.650568589455 190.925775666382  380.631177752156 182.102324287876  379.905667828274 181.335067646267  C 379.905667828274 181.335067646267  373.738833475277 167.140819776497  373.738833475277 167.140819776497  C 373.738833475277 167.140819776497  367.571999122281 168.291704738911  358.140370111817 157.550111756382  C 358.140370111817 157.550111756382  358.140370111817 142.588607245002  349.797005987175 142.588607245002  C 349.797005987175 142.588607245002  335.286807509536 151.412058623509  332.38476781401 140.670465640979  C 332.38476781401 140.670465640979  329.845483080422 131.847014262473  316.786304450548 131.847014262473  C 316.786304450548 131.847014262473  301.187841087087 129.928872658451  307.717430402025 120.338164638336  C 307.717430402025 120.338164638336  315.335284602783 118.803651355117  317.149059412488 112.281969901438  C 317.149059412488 112.281969901438  323.678648727426 82.3589608786797  323.678648727426 82.3589608786797  C 323.678648727426 82.3589608786797  296.834781543796 88.4970140115531  292.118967038562 87.3461290491397  Z " stroke-width="0.706" stroke="#ffffff" fill="none" transform="matrix(1 0 0 1 738 140 )" mask="url(#clip13)" />
  </g>
</svg>