<?xml version="1.0" encoding="utf-8"?>
<svg version="1.1" xmlns:xlink="http://www.w3.org/1999/xlink" width="120px" height="133px" xmlns="http://www.w3.org/2000/svg">
  <defs>
    <mask fill="white" id="clip10">
      <path d="M 77.5497246517657 20.5985912485027  C 77.5497246517657 20.5985912485027  66.572076449628 4.58305315121015  66.572076449628 4.58305315121015  C 66.572076449628 4.58305315121015  58.1558794946549 -3.62002733764666  53.0329770003243 2.62993874910137  C 53.0329770003243 2.62993874910137  42.0553287981854 10.8330192379583  46.4463880790414 19.8173454876587  C 46.4463880790414 19.8173454876587  54.4966634272745 28.0204259765156  44.6167800453525 29.1922946177808  C 44.6167800453525 29.1922946177808  36.2005830903784 28.4110488569379  32.5413670230001 35.0516378241072  C 32.5413670230001 35.0516378241072  27.0525429219308 41.692226791277  18.2704243602197 41.692226791277  C 18.2704243602197 41.692226791277  8.02461937155874 44.8172098346511  15.7089731130562 53.0202903235086  C 15.7089731130562 53.0202903235086  20.4659540006478 60.4421250515213  23.7592484612893 61.2233708123654  C 23.7592484612893 61.2233708123654  28.1503077421442 67.0827140186917  23.0274052478136 75.2857945075485  C 23.0274052478136 75.2857945075485  9.8542274052478 81.9263834747185  9.8542274052478 85.4419893985143  C 9.12238419177208 91.3013326048412  10.5860706187234 105.363756300024  6.19501133786855 108.098116462977  C 6.19501133786855 108.098116462977  -4.78263686426919 116.691819832255  2.53579527048942 122.16054015816  C 2.53579527048942 122.16054015816  16.8067379332684 134.269849451235  21.5637188208611 132.316735049126  C 21.5637188208611 132.316735049126  31.8095238095245 125.676146081956  38.3961127308062 124.894900321112  C 38.3961127308062 124.894900321112  58.8877227081305 126.066768962377  62.5469387755108 124.113654560269  C 62.5469387755108 124.113654560269  79.7452542921937 117.473065593099  84.1363135730487 120.207425756051  C 84.1363135730487 120.207425756051  83.4044703595719 116.301196951834  86.6977648202144 114.348082549725  C 86.6977648202144 114.348082549725  93.2843537414974 111.223099506351  97.6754130223521 113.566836788881  C 97.6754130223521 113.566836788881  113.044120505345 114.348082549725  109.384904437966 94.4263156482151  C 109.384904437966 94.4263156482151  100.236864269519 83.8794978768278  101.33462908973 74.5045487467051  C 101.33462908973 74.5045487467051  98.7731778425655 46.7703242367604  104.262001943635 40.129735269591  C 104.262001943635 40.129735269591  109.018982831228 37.0047522262165  111.580434078394 38.1766208674818  C 111.580434078394 38.1766208674818  119.630709426628 33.4891463024212  119.630709426628 31.5360319003124  C 119.630709426628 31.5360319003124  120.728474246841 24.895442933142  114.873728539035 25.6766886939856  C 114.873728539035 25.6766886939856  84.8681567865242 28.4110488569379  77.5497246517657 20.5985912485027  Z " fill-rule="evenodd" />
    </mask>
  </defs>
  <g transform="matrix(1 0 0 1 -841 -263 )">
    <path d="M 77.5497246517657 20.5985912485027  C 77.5497246517657 20.5985912485027  66.572076449628 4.58305315121015  66.572076449628 4.58305315121015  C 66.572076449628 4.58305315121015  58.1558794946549 -3.62002733764666  53.0329770003243 2.62993874910137  C 53.0329770003243 2.62993874910137  42.0553287981854 10.8330192379583  46.4463880790414 19.8173454876587  C 46.4463880790414 19.8173454876587  54.4966634272745 28.0204259765156  44.6167800453525 29.1922946177808  C 44.6167800453525 29.1922946177808  36.2005830903784 28.4110488569379  32.5413670230001 35.0516378241072  C 32.5413670230001 35.0516378241072  27.0525429219308 41.692226791277  18.2704243602197 41.692226791277  C 18.2704243602197 41.692226791277  8.02461937155874 44.8172098346511  15.7089731130562 53.0202903235086  C 15.7089731130562 53.0202903235086  20.4659540006478 60.4421250515213  23.7592484612893 61.2233708123654  C 23.7592484612893 61.2233708123654  28.1503077421442 67.0827140186917  23.0274052478136 75.2857945075485  C 23.0274052478136 75.2857945075485  9.8542274052478 81.9263834747185  9.8542274052478 85.4419893985143  C 9.12238419177208 91.3013326048412  10.5860706187234 105.363756300024  6.19501133786855 108.098116462977  C 6.19501133786855 108.098116462977  -4.78263686426919 116.691819832255  2.53579527048942 122.16054015816  C 2.53579527048942 122.16054015816  16.8067379332684 134.269849451235  21.5637188208611 132.316735049126  C 21.5637188208611 132.316735049126  31.8095238095245 125.676146081956  38.3961127308062 124.894900321112  C 38.3961127308062 124.894900321112  58.8877227081305 126.066768962377  62.5469387755108 124.113654560269  C 62.5469387755108 124.113654560269  79.7452542921937 117.473065593099  84.1363135730487 120.207425756051  C 84.1363135730487 120.207425756051  83.4044703595719 116.301196951834  86.6977648202144 114.348082549725  C 86.6977648202144 114.348082549725  93.2843537414974 111.223099506351  97.6754130223521 113.566836788881  C 97.6754130223521 113.566836788881  113.044120505345 114.348082549725  109.384904437966 94.4263156482151  C 109.384904437966 94.4263156482151  100.236864269519 83.8794978768278  101.33462908973 74.5045487467051  C 101.33462908973 74.5045487467051  98.7731778425655 46.7703242367604  104.262001943635 40.129735269591  C 104.262001943635 40.129735269591  109.018982831228 37.0047522262165  111.580434078394 38.1766208674818  C 111.580434078394 38.1766208674818  119.630709426628 33.4891463024212  119.630709426628 31.5360319003124  C 119.630709426628 31.5360319003124  120.728474246841 24.895442933142  114.873728539035 25.6766886939856  C 114.873728539035 25.6766886939856  84.8681567865242 28.4110488569379  77.5497246517657 20.5985912485027  Z " fill-rule="nonzero" fill="#6666ff" stroke="none" transform="matrix(1 0 0 1 841 263 )" />
    <path d="M 77.5497246517657 20.5985912485027  C 77.5497246517657 20.5985912485027  66.572076449628 4.58305315121015  66.572076449628 4.58305315121015  C 66.572076449628 4.58305315121015  58.1558794946549 -3.62002733764666  53.0329770003243 2.62993874910137  C 53.0329770003243 2.62993874910137  42.0553287981854 10.8330192379583  46.4463880790414 19.8173454876587  C 46.4463880790414 19.8173454876587  54.4966634272745 28.0204259765156  44.6167800453525 29.1922946177808  C 44.6167800453525 29.1922946177808  36.2005830903784 28.4110488569379  32.5413670230001 35.0516378241072  C 32.5413670230001 35.0516378241072  27.0525429219308 41.692226791277  18.2704243602197 41.692226791277  C 18.2704243602197 41.692226791277  8.02461937155874 44.8172098346511  15.7089731130562 53.0202903235086  C 15.7089731130562 53.0202903235086  20.4659540006478 60.4421250515213  23.7592484612893 61.2233708123654  C 23.7592484612893 61.2233708123654  28.1503077421442 67.0827140186917  23.0274052478136 75.2857945075485  C 23.0274052478136 75.2857945075485  9.8542274052478 81.9263834747185  9.8542274052478 85.4419893985143  C 9.12238419177208 91.3013326048412  10.5860706187234 105.363756300024  6.19501133786855 108.098116462977  C 6.19501133786855 108.098116462977  -4.78263686426919 116.691819832255  2.53579527048942 122.16054015816  C 2.53579527048942 122.16054015816  16.8067379332684 134.269849451235  21.5637188208611 132.316735049126  C 21.5637188208611 132.316735049126  31.8095238095245 125.676146081956  38.3961127308062 124.894900321112  C 38.3961127308062 124.894900321112  58.8877227081305 126.066768962377  62.5469387755108 124.113654560269  C 62.5469387755108 124.113654560269  79.7452542921937 117.473065593099  84.1363135730487 120.207425756051  C 84.1363135730487 120.207425756051  83.4044703595719 116.301196951834  86.6977648202144 114.348082549725  C 86.6977648202144 114.348082549725  93.2843537414974 111.223099506351  97.6754130223521 113.566836788881  C 97.6754130223521 113.566836788881  113.044120505345 114.348082549725  109.384904437966 94.4263156482151  C 109.384904437966 94.4263156482151  100.236864269519 83.8794978768278  101.33462908973 74.5045487467051  C 101.33462908973 74.5045487467051  98.7731778425655 46.7703242367604  104.262001943635 40.129735269591  C 104.262001943635 40.129735269591  109.018982831228 37.0047522262165  111.580434078394 38.1766208674818  C 111.580434078394 38.1766208674818  119.630709426628 33.4891463024212  119.630709426628 31.5360319003124  C 119.630709426628 31.5360319003124  120.728474246841 24.895442933142  114.873728539035 25.6766886939856  C 114.873728539035 25.6766886939856  84.8681567865242 28.4110488569379  77.5497246517657 20.5985912485027  Z " stroke-width="0.706" stroke="#ffffff" fill="none" transform="matrix(1 0 0 1 841 263 )" mask="url(#clip10)" />
  </g>
</svg>