<?xml version="1.0" encoding="utf-8"?>
<svg version="1.1" xmlns:xlink="http://www.w3.org/1999/xlink" width="87px" height="157px" xmlns="http://www.w3.org/2000/svg">
  <defs>
    <mask fill="white" id="clip12">
      <path d="M 55.7300178045111 156.638073429057  C 56.7774245413536 155.871403427513  62.0144582255641 155.104733425969  63.7601361203006 153.188058422109  C 63.7601361203006 153.188058422109  57.4756956992487 135.171313385827  66.2040851729309 120.604583356493  C 66.2040851729309 120.604583356493  64.4584072781956 110.254538335649  72.1393900150376 102.58783832021  C 72.1393900150376 102.58783832021  80.8677794887233 90.3211182955079  86.8030843308266 96.0711433070867  C 86.8030843308266 96.0711433070867  86.1048131729337 87.6377732901041  78.0746948571443 86.8711032885601  C 78.0746948571443 86.8711032885601  72.8376611729325 81.1210782769801  72.8376611729325 72.6877082599975  C 72.8376611729325 72.6877082599975  67.6006274887211 66.1710132468737  63.0618649624068 67.7043532499614  C 63.0618649624068 67.7043532499614  56.7774245413548 74.2210482630852  54.3334754887221 64.637673243786  C 54.3334754887221 64.637673243786  53.6352043308282 53.5209582213994  50.8421196992481 48.9209382121355  C 50.8421196992481 48.9209382121355  46.3033571729327 45.85425820596  53.6352043308282 41.6375731974684  C 53.6352043308282 41.6375731974684  65.1566784360894 34.3542081828012  59.9196447518791 29.7541881735381  C 59.9196447518791 29.7541881735381  41.7645946466162 19.4041431526942  36.5275609624057 19.7874781534665  C 36.5275609624057 19.7874781534665  20.4673243308266 12.5041131387993  22.2130022255631 6.75408812721992  C 22.2130022255631 6.75408812721992  25.7043580150382 2.15406811795606  28.1483070676697 1.00406311563995  C 28.1483070676697 1.00406311563995  23.9586801203018 -1.67928188976327  19.4199175939852 3.68740812104386  C 19.4199175939852 3.68740812104386  15.2302906466173 28.9875181719935  18.3725108571427 41.6375731974684  C 18.3725108571427 41.6375731974684  26.0534935939847 54.6709632237149  24.6569512781957 59.2709832329788  C 24.6569512781957 59.2709832329788  23.9586801203018 72.3043732592253  12.0880704360895 71.1543682569092  C 12.0880704360895 71.1543682569092  0.566596330826087 73.0710432607692  0.566596330826087 81.5044132777524  C 0.566596330826087 81.5044132777524  3.01054538345875 93.3877983016833  9.29498580451082 93.7711333024556  C 9.29498580451082 93.7711333024556  26.4026291729322 93.0044633009116  21.8638666466168 108.721198332561  C 21.8638666466168 108.721198332561  20.8164599097754 116.004563347229  19.070782015039 119.837913354949  C 19.070782015039 119.837913354949  9.64412138345824 135.937983387371  11.0406636992493 140.921338397406  C 11.0406636992493 140.921338397406  14.5320194887211 147.054698409758  33.3853407518802 153.954728423653  C 33.3853407518802 153.954728423653  48.0490350676691 157.788078431373  55.7300178045111 156.638073429057  Z " fill-rule="evenodd" />
    </mask>
  </defs>
  <g transform="matrix(1 0 0 1 -922 -295 )">
    <path d="M 55.7300178045111 156.638073429057  C 56.7774245413536 155.871403427513  62.0144582255641 155.104733425969  63.7601361203006 153.188058422109  C 63.7601361203006 153.188058422109  57.4756956992487 135.171313385827  66.2040851729309 120.604583356493  C 66.2040851729309 120.604583356493  64.4584072781956 110.254538335649  72.1393900150376 102.58783832021  C 72.1393900150376 102.58783832021  80.8677794887233 90.3211182955079  86.8030843308266 96.0711433070867  C 86.8030843308266 96.0711433070867  86.1048131729337 87.6377732901041  78.0746948571443 86.8711032885601  C 78.0746948571443 86.8711032885601  72.8376611729325 81.1210782769801  72.8376611729325 72.6877082599975  C 72.8376611729325 72.6877082599975  67.6006274887211 66.1710132468737  63.0618649624068 67.7043532499614  C 63.0618649624068 67.7043532499614  56.7774245413548 74.2210482630852  54.3334754887221 64.637673243786  C 54.3334754887221 64.637673243786  53.6352043308282 53.5209582213994  50.8421196992481 48.9209382121355  C 50.8421196992481 48.9209382121355  46.3033571729327 45.85425820596  53.6352043308282 41.6375731974684  C 53.6352043308282 41.6375731974684  65.1566784360894 34.3542081828012  59.9196447518791 29.7541881735381  C 59.9196447518791 29.7541881735381  41.7645946466162 19.4041431526942  36.5275609624057 19.7874781534665  C 36.5275609624057 19.7874781534665  20.4673243308266 12.5041131387993  22.2130022255631 6.75408812721992  C 22.2130022255631 6.75408812721992  25.7043580150382 2.15406811795606  28.1483070676697 1.00406311563995  C 28.1483070676697 1.00406311563995  23.9586801203018 -1.67928188976327  19.4199175939852 3.68740812104386  C 19.4199175939852 3.68740812104386  15.2302906466173 28.9875181719935  18.3725108571427 41.6375731974684  C 18.3725108571427 41.6375731974684  26.0534935939847 54.6709632237149  24.6569512781957 59.2709832329788  C 24.6569512781957 59.2709832329788  23.9586801203018 72.3043732592253  12.0880704360895 71.1543682569092  C 12.0880704360895 71.1543682569092  0.566596330826087 73.0710432607692  0.566596330826087 81.5044132777524  C 0.566596330826087 81.5044132777524  3.01054538345875 93.3877983016833  9.29498580451082 93.7711333024556  C 9.29498580451082 93.7711333024556  26.4026291729322 93.0044633009116  21.8638666466168 108.721198332561  C 21.8638666466168 108.721198332561  20.8164599097754 116.004563347229  19.070782015039 119.837913354949  C 19.070782015039 119.837913354949  9.64412138345824 135.937983387371  11.0406636992493 140.921338397406  C 11.0406636992493 140.921338397406  14.5320194887211 147.054698409758  33.3853407518802 153.954728423653  C 33.3853407518802 153.954728423653  48.0490350676691 157.788078431373  55.7300178045111 156.638073429057  Z " fill-rule="nonzero" fill="#6666ff" stroke="none" transform="matrix(1 0 0 1 922 295 )" />
    <path d="M 55.7300178045111 156.638073429057  C 56.7774245413536 155.871403427513  62.0144582255641 155.104733425969  63.7601361203006 153.188058422109  C 63.7601361203006 153.188058422109  57.4756956992487 135.171313385827  66.2040851729309 120.604583356493  C 66.2040851729309 120.604583356493  64.4584072781956 110.254538335649  72.1393900150376 102.58783832021  C 72.1393900150376 102.58783832021  80.8677794887233 90.3211182955079  86.8030843308266 96.0711433070867  C 86.8030843308266 96.0711433070867  86.1048131729337 87.6377732901041  78.0746948571443 86.8711032885601  C 78.0746948571443 86.8711032885601  72.8376611729325 81.1210782769801  72.8376611729325 72.6877082599975  C 72.8376611729325 72.6877082599975  67.6006274887211 66.1710132468737  63.0618649624068 67.7043532499614  C 63.0618649624068 67.7043532499614  56.7774245413548 74.2210482630852  54.3334754887221 64.637673243786  C 54.3334754887221 64.637673243786  53.6352043308282 53.5209582213994  50.8421196992481 48.9209382121355  C 50.8421196992481 48.9209382121355  46.3033571729327 45.85425820596  53.6352043308282 41.6375731974684  C 53.6352043308282 41.6375731974684  65.1566784360894 34.3542081828012  59.9196447518791 29.7541881735381  C 59.9196447518791 29.7541881735381  41.7645946466162 19.4041431526942  36.5275609624057 19.7874781534665  C 36.5275609624057 19.7874781534665  20.4673243308266 12.5041131387993  22.2130022255631 6.75408812721992  C 22.2130022255631 6.75408812721992  25.7043580150382 2.15406811795606  28.1483070676697 1.00406311563995  C 28.1483070676697 1.00406311563995  23.9586801203018 -1.67928188976327  19.4199175939852 3.68740812104386  C 19.4199175939852 3.68740812104386  15.2302906466173 28.9875181719935  18.3725108571427 41.6375731974684  C 18.3725108571427 41.6375731974684  26.0534935939847 54.6709632237149  24.6569512781957 59.2709832329788  C 24.6569512781957 59.2709832329788  23.9586801203018 72.3043732592253  12.0880704360895 71.1543682569092  C 12.0880704360895 71.1543682569092  0.566596330826087 73.0710432607692  0.566596330826087 81.5044132777524  C 0.566596330826087 81.5044132777524  3.01054538345875 93.3877983016833  9.29498580451082 93.7711333024556  C 9.29498580451082 93.7711333024556  26.4026291729322 93.0044633009116  21.8638666466168 108.721198332561  C 21.8638666466168 108.721198332561  20.8164599097754 116.004563347229  19.070782015039 119.837913354949  C 19.070782015039 119.837913354949  9.64412138345824 135.937983387371  11.0406636992493 140.921338397406  C 11.0406636992493 140.921338397406  14.5320194887211 147.054698409758  33.3853407518802 153.954728423653  C 33.3853407518802 153.954728423653  48.0490350676691 157.788078431373  55.7300178045111 156.638073429057  Z " stroke-width="0.706" stroke="#ffffff" fill="none" transform="matrix(1 0 0 1 922 295 )" mask="url(#clip12)" />
  </g>
</svg>