<?xml version="1.0" encoding="utf-8"?>
<svg version="1.1" xmlns:xlink="http://www.w3.org/1999/xlink" width="47px" height="49px" xmlns="http://www.w3.org/2000/svg">
  <g transform="matrix(1 0 0 1 -240 -567 )">
    <path d="M 16.8283159515644 38.5086442220201  C 16.821736543711 39.0691537761602  17.3744068033877 39.6733393994541  17.9270770630643 39.6733393994541  L 23.3287709106181 39.6733393994541  C 23.9735528802408 39.6733393994541  24.4406908378246 39.2584167424932  24.4406908378246 38.5595996360328  C 24.4406908378246 37.9772520473157  24.4406908378246 36.6451319381256  24.4406908378246 35.9026387625114  C 24.4406908378246 35.2620564149227  24.0261881430671 34.8980891719746  23.282715055645 34.8980891719746  L 17.8876006159446 34.8980891719746  C 17.1836039756422 34.8980891719746  16.8283159515644 35.4513193812556  16.8283159515644 36.0482256596906  C 16.8283159515644 36.5432211101001  16.8283159515644 38.0937215650591  16.8283159515644 38.5086442220201  Z M 27.3816861482467 38.312101910828  C 27.3816861482467 39.0545950864422  27.7830300272975 39.6733393994541  28.5396619304262 39.6733393994541  L 36.2112514873662 39.6733393994541  C 36.9020893119619 39.6733393994541  37.3494890459859 39.2511373976342  37.3494890459859 38.6396724294814  C 37.3494890459859 38.0427661510464  37.3494890459859 36.5868971792538  37.3494890459859 35.98271155596  C 37.3494890459859 35.3494085532302  36.9547245747883 34.8980891719746  36.1915132638063 34.8980891719746  L 28.5001854833065 34.8980891719746  C 27.815927066564 34.8980891719746  27.3816861482467 35.3348498635123  27.3816861482467 35.975432211101  C 27.3816861482467 36.3830755232029  27.3816861482467 37.7734303912648  27.3816861482467 38.312101910828  Z M 34.7835199832015 1  L 12.2358892699657 1  L 0 25.0636942675159  L 0 45.8098271155596  C 0.0837229649331448 47.8116469517744  1.16274585287323 48.8889899909008  3.08393294603485 48  L 44.2907643312102 48  C 45.9619339259467 48.8889899909008  46.9751627353538 47.7679708826206  47 45.940855323021  L 47 24.8016378525932  L 34.7835199832015 1  Z M 14.755802477777 5  L 32.4412507874291 5  L 42.6722299993 24  L 4.70246727794498 24  L 14.755802477777 5  Z M 43 29  L 43 44  L 4 44  L 4 29  L 43 29  Z " fill-rule="nonzero" fill="#0ee4f9" stroke="none" transform="matrix(1 0 0 1 240 567 )" />
  </g>
</svg>