<?xml version="1.0" encoding="utf-8"?>
<svg version="1.1" xmlns:xlink="http://www.w3.org/1999/xlink" width="357px" height="172px" xmlns="http://www.w3.org/2000/svg">
  <g transform="matrix(1 0 0 1 -92 -799 )">
    <path d="M 1 171.5  L 1 78.4400000000002  C 0.172567975830859 78.4400000000002  28.9623645543603 66.2169741460112  51.2526888217523 62.0599999999999  C 52.0422196974868 61.9127585602374  73.0257719828271 67.0273684210524  79.5538368580061 63.0799999999999  C 95.4300906344412 53.4799999999999  105.753591755958 65.9150940684569  118.899335347432 52.8400000000001  C 124.905368650259 46.8662450833389  143.424805549213 41.2563034034148  147.200483383686 34.7  C 162.517438768355 8.10276074362764  168.088481898494 61.3978888730718  191.948168429003 34.7  C 206.219531644613 18.7310027245995  224.514528174689 21.1577070364291  246.963840634441 14.18  C 249.186530613186 13.4891423386666  251.349518507919 12.795358393357  253.460671178806 12.1065918203034  C 255.715185962682 11.3710531532034  288.203260662299 0.5  301.979512839879 0.5  C 328.483827486322 12.0333189107723  356.995185045317 62.0599999999999  357 62.0599999999999  L 357 171.5  C 356.995185045317 171.5  323.985781722054 171.5  301.979512839879 171.5  C 279.973243957704 171.5  268.970109516616 171.5  246.963840634441 171.5  C 224.957571752266 171.5  213.954437311178 171.5  191.948168429003 171.5  C 169.941899546828 171.5  158.93876510574 171.5  136.932496223565 171.5  C 114.92622734139 171.5  103.923092900302 171.5  81.9168240181269 171.5  C 59.9105551359517 171.5  0 172.14  1 171.5  Z " fill-rule="nonzero" fill="#5b8ff9" stroke="none" transform="matrix(1 0 0 1 92 799 )" />
  </g>
</svg>