<?xml version="1.0" encoding="utf-8"?>
<svg version="1.1" xmlns:xlink="http://www.w3.org/1999/xlink" width="307px" height="172px" xmlns="http://www.w3.org/2000/svg">
  <g transform="matrix(1 0 0 1 -1042 -799 )">
    <path d="M 1 171.5  L 1 157.82  C 0.941964285714278 157.82  31.2839535504012 148.296974146011  51.9508928571428 144.14  C 72.0910964075441 140.088974146011  90.3117554093008 150.868255439934  102.959821428571 137.3  C 131.118898266444 107.092255439934  126.393599367975 67.9790027245995  153.96875 34.7  C 167.200742225118 18.7310027245995  184.163330044319 21.1577070364291  204.977678571429 14.18  C 224.970472901462 7.47770703642908  239.753492711407 0.5  255.986607142857 0.5  C 280.56063556855 12.0333189107724  306.995535714286 62.06  307 62.06  L 307 171.5  C 306.995535714286 171.5  276.390178571429 171.5  255.986607142857 171.5  C 235.583035714286 171.5  225.38125 171.5  204.977678571429 171.5  C 184.574107142857 171.5  174.372321428571 171.5  153.96875 171.5  C 133.565178571429 171.5  123.363392857143 171.5  102.959821428571 171.5  C 82.55625 171.5  72.3544642857143 171.5  51.9508928571428 171.5  C 31.5473214285714 171.5  0.941964285714278 171.5  1 171.5  Z " fill-rule="nonzero" fill="#5b8ff9" stroke="none" transform="matrix(1 0 0 1 1042 799 )" />
  </g>
</svg>