<?xml version="1.0" encoding="utf-8"?>
<svg version="1.1" xmlns:xlink="http://www.w3.org/1999/xlink" width="273px" height="104px" xmlns="http://www.w3.org/2000/svg">
  <defs>
    <mask fill="white" id="clip17">
      <path d="M 0.620098039215691 83.3333333333334  L 0.620098039215691 12.6666666666667  L 17.9828431372549 0  L 241.218137254902 2  L 253 21.3333333333333  L 253 54.6666666666666  L 243.078431372549 73.3333333333334  L 233.599999980647 73  L 78.8 73  L 70 83.3333333333334  L 0.620098039215691 83.3333333333334  Z " fill-rule="evenodd" />
    </mask>
    <filter x="788px" y="487px" width="273px" height="104px" filterUnits="userSpaceOnUse" id="filter18">
      <feOffset dx="0" dy="0" in="SourceAlpha" result="shadowOffsetInner" />
      <feGaussianBlur stdDeviation="5" in="shadowOffsetInner" result="shadowGaussian" />
      <feComposite in2="shadowGaussian" operator="atop" in="SourceAlpha" result="shadowComposite" />
      <feColorMatrix type="matrix" values="0 0 0 0 0.745098039215686  0 0 0 0 0.309803921568627  0 0 0 0 0.141176470588235  0 0 0 1 0  " in="shadowComposite" />
    </filter>
    <g id="widget19">
      <path d="M 0.620098039215691 83.3333333333334  L 0.620098039215691 12.6666666666667  L 17.9828431372549 0  L 241.218137254902 2  L 253 21.3333333333333  L 253 54.6666666666666  L 243.078431372549 73.3333333333334  L 233.599999980647 73  L 78.8 73  L 70 83.3333333333334  L 0.620098039215691 83.3333333333334  Z " fill-rule="nonzero" fill="#ffffff" stroke="none" fill-opacity="0" transform="matrix(1 0 0 1 798 497 )" />
      <path d="M 0.620098039215691 83.3333333333334  L 0.620098039215691 12.6666666666667  L 17.9828431372549 0  L 241.218137254902 2  L 253 21.3333333333333  L 253 54.6666666666666  L 243.078431372549 73.3333333333334  L 233.599999980647 73  L 78.8 73  L 70 83.3333333333334  L 0.620098039215691 83.3333333333334  Z " stroke-width="4" stroke="#be4f24" fill="none" transform="matrix(1 0 0 1 798 497 )" mask="url(#clip17)" />
    </g>
  </defs>
  <g transform="matrix(1 0 0 1 -788 -487 )">
    <use xlink:href="#widget19" filter="url(#filter18)" />
    <use xlink:href="#widget19" />
  </g>
</svg>