<?xml version="1.0" encoding="utf-8"?>
<svg version="1.1" xmlns:xlink="http://www.w3.org/1999/xlink" width="357px" height="145px" xmlns="http://www.w3.org/2000/svg">
  <g transform="matrix(1 0 0 1 -562 -822 )">
    <path d="M 1 144.5  L 1 51.4400000000002  C 0.172567975830816 51.4400000000002  24.509675732608 69.5569741460113  46.8000000000001 65.4  C 47.5895308757345 65.2527585602375  70.6719351248211 53.3473684210525  77.2 49.4  C 93.0762537764351 39.8  114.454256408526 57.6750940684568  127.6 44.6  C 133.606033302827 38.6262450833387  143.424805549213 14.2563034034148  147.200483383686 7.70000000000005  C 162.517438768355 -18.8972392563724  168.088481898494 34.3978888730718  191.948168429003 7.70000000000005  C 206.219531644613 -8.26899727540047  191.550687540248 9.97770703642914  214 3  C 216.222689978745 2.30914233866667  253.488847329113 8.38876657305366  255.6 7.70000000000005  C 257.854514783876 6.9644613329001  292.22374782242 62.2  306 62.2  C 332.504314646443 73.7333189107724  356.995185045317 35.0599999999999  357 35.0599999999999  L 357 144.5  C 356.995185045317 144.5  323.985781722054 144.5  301.979512839879 144.5  C 279.973243957704 144.5  268.970109516616 144.5  246.963840634441 144.5  C 224.957571752266 144.5  213.954437311178 144.5  191.948168429003 144.5  C 169.941899546828 144.5  158.93876510574 144.5  136.932496223565 144.5  C 114.92622734139 144.5  103.923092900302 144.5  81.9168240181268 144.5  C 59.9105551359517 144.5  0 145.14  1 144.5  Z " fill-rule="nonzero" fill="#5b8ff9" stroke="none" transform="matrix(1 0 0 1 562 822 )" />
  </g>
</svg>