<?xml version="1.0" encoding="utf-8"?>
<svg version="1.1" xmlns:xlink="http://www.w3.org/1999/xlink" width="52px" height="18px" xmlns="http://www.w3.org/2000/svg">
  <g transform="matrix(1 0 0 1 -240 -201 )">
    <path d="M 51.2945 13.74390625  L 51.2945 5.101  C 51.2916579192026 2.35469953064866  49.0660504693514 0.129092080797363  46.31975 0.126250000000001  L 5.68025 0.126250000000002  C 2.93378207611718 0.129091018734462  0.707879043809586 2.35453272398872  0.704468749999999 5.101  L 0.704468749999999 13.74390625  C 0.706632178339793 15.0228075634759  1.20369614490061 16.2512392548128  2.0915 17.17178125  C 3.0249696754522 16.1857850202347  4.32247549326074 15.6265152711793  5.68025 15.62490625  C 4.64170601656993 15.6237707639152  3.79992345701885 14.7824494550817  3.79821875 13.74390625  L 3.79821875 5.101  C 3.79992345701885 4.06245679491827  4.64170601656993 3.22113548608476  5.68025 3.22  L 46.31975 3.22  C 47.3581264125577 3.22113670207496  48.1996132979251 4.06262358744226  48.20075 5.101  L 48.20075 13.74390625  C 48.1996132979251 14.7822826625577  47.3581264125577 15.623769547925  46.31975 15.62490625  C 47.6775245067393 15.6265152711793  48.9750303245478 16.1857850202347  49.9085 17.17178125  C 50.7959270046075 16.2510761797814  51.2926135852252 15.0226638330752  51.2945 13.74390625  Z " fill-rule="nonzero" fill="#0ee4f9" stroke="none" transform="matrix(1 0 0 1 240 201 )" />
  </g>
</svg>