<?xml version="1.0" encoding="utf-8"?>
<svg version="1.1" xmlns:xlink="http://www.w3.org/1999/xlink" width="52px" height="18px" xmlns="http://www.w3.org/2000/svg">
  <g transform="matrix(1 0 0 1 -240 -216 )">
    <path d="M 46.31975 0.625937500000006  L 5.68025 0.624906249999999  C 2.93859475685244 0.64124109897563  0.720235438804402 2.8600601806129  0.704468749999999 5.60171875  L 0.704468749999999 14.24359375  C 0.703955770821431 15.5585261790546  1.22589626678127 16.819789637664  2.1554375 17.74984375  C 3.08651651837661 16.8082475288459  4.35604844053251 16.2789663734708  5.68025 16  L 46.31975 16  C 47.6439515594675 16.2789663734708  48.9134834816234 16.8082475288459  49.8445625 17.74984375  C 50.7734375335561 16.8194286270202  51.2949468455028 15.558310802967  51.2945 14.24359375  L 51.2945 5.60275000000001  C 51.2798533736843 2.8610256742906  49.0614680190322 0.641720591050337  46.31975 0.625937500000006  Z M 48.20075 5.60275  L 48.20075 5.60171875  L 48.20075 14.24359375  C 48.1996145139152 15.2821377334301  47.3582932050817 16.1239202929811  46.31975 16  L 5.68025 16  C 4.64130404413514 16.1244882966211  3.79935545337885 15.2825397058649  3.79821875 14.24359375  L 3.79821875 5.60275000000001  C 3.79935423805156 4.56363647367544  4.64113725159853 3.72139220916214  5.68025 4  L 46.31975 4  C 47.3586953976326 3.72139333331219  48.2001827376691 4.56380335683555  48.20075 5.60275  Z " fill-rule="nonzero" fill="#0ee4f9" stroke="none" transform="matrix(1 0 0 1 240 216 )" />
  </g>
</svg>