<?xml version="1.0" encoding="utf-8"?>
<svg version="1.1" xmlns:xlink="http://www.w3.org/1999/xlink" width="52px" height="19px" xmlns="http://www.w3.org/2000/svg">
  <g transform="matrix(1 0 0 1 -240 -232 )">
    <path d="M 46.31975 0.280312500000001  L 5.68025 0.280312500000001  C 2.93432034340909 0.285420163738593  0.709576413738593 2.5101640934091  0.704468749999999 5.25609375000001  L 0.704468749999999 13.89796875  C 0.707877899259319 16.6446034976417  2.93361525235834 18.8703408507407  5.68025 18.87375  L 28.965875 18.87375  C 29.8201904723945 18.87375  30.51275 18.1811904723945  30.51275 17.326875  C 30.51275 16.4725595276055  29.8201904723945 15.78  28.965875 15.78  L 5.68025 15.78  C 4.64130404413513 15.7788632966212  3.79935545337885 14.9369147058649  3.79821875 13.89796875  L 3.79821875 5.25609375  C 3.79935545337885 4.21714779413512  4.64130404413513 3.37519920337886  5.68025 3.3740625  L 46.31975 3.3740625  C 47.358528650377 3.37520010938005  48.2001817405153 4.21731463213359  48.20075 5.25609375000001  L 48.20075 13.89796875  C 48.1996145139152 14.9365127334301  47.3582932050817 15.7782952929811  46.31975 15.78  L 40.29003125 15.78  C 39.4357157776055 15.78  38.74315625 16.4725595276055  38.74315625 17.326875  C 38.74315625 18.1811904723945  39.4357157776055 18.87375  40.29003125 18.87375  L 46.31975 18.87375  C 49.0662172760113 18.8703397061904  51.2916589812655 16.6444366738829  51.2945 13.89796875  L 51.2945 5.25609375000001  C 51.2899597233124 2.51033091675548  49.0655118331738 0.285421905578289  46.31975 0.280312500000001  Z " fill-rule="nonzero" fill="#0ee4f9" stroke="none" transform="matrix(1 0 0 1 240 232 )" />
  </g>
</svg>