<?xml version="1.0" encoding="utf-8"?>
<svg version="1.1" xmlns:xlink="http://www.w3.org/1999/xlink" width="285px" height="17px" xmlns="http://www.w3.org/2000/svg">
  <defs>
    <mask fill="white" id="clip3">
      <path d="M 0 17  L 0 0  L 22.1971153846154 0  L 31.8432692307684 0  L 32.5384615384621 0  L 38.6923076923082 0  L 94.9817307692304 0  L 119.769230769231 0  L 285 0  L 285 17  L 68.2307692307681 17  L 55.9230769230758 17  L 32.5384615384621 17  L 0 17  Z " fill-rule="evenodd" />
    </mask>
  </defs>
  <g transform="matrix(1 0 0 1 -557 -735 )">
    <path d="M 0 17  L 0 0  L 22.1971153846154 0  L 31.8432692307684 0  L 32.5384615384621 0  L 38.6923076923082 0  L 94.9817307692304 0  L 119.769230769231 0  L 285 0  L 285 17  L 68.2307692307681 17  L 55.9230769230758 17  L 32.5384615384621 17  L 0 17  Z " fill-rule="nonzero" fill="#f9f9f9" stroke="none" transform="matrix(1 0 0 1 557 735 )" />
    <path d="M 0 17  L 0 0  L 22.1971153846154 0  L 31.8432692307684 0  L 32.5384615384621 0  L 38.6923076923082 0  L 94.9817307692304 0  L 119.769230769231 0  L 285 0  L 285 17  L 68.2307692307681 17  L 55.9230769230758 17  L 32.5384615384621 17  L 0 17  Z " stroke-width="2" stroke="#d7d7d7" fill="none" transform="matrix(1 0 0 1 557 735 )" mask="url(#clip3)" />
  </g>
</svg>