<?xml version="1.0" encoding="utf-8"?>
<svg version="1.1" xmlns:xlink="http://www.w3.org/1999/xlink" width="12px" height="12px" viewBox="697 791.5  12 12" xmlns="http://www.w3.org/2000/svg">
  <path d="M 703 791.5  C 706.36 791.5  709 794.14  709 797.5  C 709 800.86  706.36 803.5  703 803.5  C 699.64 803.5  697 800.86  697 797.5  C 697 794.14  699.64 791.5  703 791.5  Z " fill-rule="nonzero" fill="#ffffff" stroke="none" />
  <path d="M 703 792  C 706.08 792  708.5 794.42  708.5 797.5  C 708.5 800.58  706.08 803  703 803  C 699.92 803  697.5 800.58  697.5 797.5  C 697.5 794.42  699.92 792  703 792  Z " stroke-width="1" stroke="#797979" fill="none" />
  <path d="M 703 800.5  C 701.32 800.5  700 799.18  700 797.5  C 700 795.82  701.32 794.5  703 794.5  C 704.68 794.5  706 795.82  706 797.5  C 706 799.18  704.68 800.5  703 800.5  " fill-rule="nonzero" fill="#797979" stroke="none" />
</svg>