<?xml version="1.0" encoding="utf-8"?>
<svg version="1.1" xmlns:xlink="http://www.w3.org/1999/xlink" width="36px" height="28px" xmlns="http://www.w3.org/2000/svg">
  <g transform="matrix(1 0 0 1 -944 -299 )">
    <path d="M 35.5546875 22.815625  C 35.8515625 23.0927083333333  36 23.4208333333333  36 23.8  L 36 26.6  C 36 26.9791666666667  35.8515625 27.3072916666667  35.5546875 27.584375  C 35.2578125 27.8614583333333  34.90625 28  34.5 28  L 1.5 28  C 1.09375 28  0.7421875 27.8614583333333  0.4453125 27.584375  C 0.1484375 27.3072916666667  0 26.9791666666667  0 26.6  L 0 23.8  C 0 23.4208333333333  0.1484375 23.0927083333333  0.4453125 22.815625  C 0.7421875 22.5385416666667  1.09375 22.4  1.5 22  L 34.5 22  C 34.90625 22.4  35.2578125 22.5385416666667  35.5546875 22.815625  Z M 35.5546875 11.615625  C 35.8515625 11.8927083333333  36 12.2208333333333  36 12.6  L 36 15.4  C 36 15.7791666666667  35.8515625 16.1072916666667  35.5546875 16.384375  C 35.2578125 16.6614583333333  34.90625 16.8  34.5 16.8  L 1.5 16.8  C 1.09375 16.8  0.7421875 16.6614583333333  0.4453125 16.384375  C 0.1484375 16.1072916666667  0 15.7791666666667  0 15.4  L 0 12.6  C 0 12.2208333333333  0.1484375 11.8927083333333  0.4453125 11.615625  C 0.7421875 11.3385416666667  1.09375 11.2  1.5 11.2  L 34.5 11.2  C 34.90625 11.2  35.2578125 11.3385416666667  35.5546875 11.615625  Z M 35.5546875 0.415625000000034  C 35.8515625 0.692708333333314  36 1.02083333333331  36 1.40000000000003  L 36 4.19999999999999  C 36 4.57916666666665  35.8515625 4.90729166666665  35.5546875 5.18437499999999  C 35.2578125 5.46145833333333  34.90625 5.59999999999997  34.5 6  L 1.5 6  C 1.09375 5.59999999999997  0.7421875 5.46145833333333  0.4453125 5.18437499999999  C 0.1484375 4.90729166666665  0 4.57916666666665  0 4.19999999999999  L 0 1.40000000000003  C 0 1.02083333333331  0.1484375 0.692708333333314  0.4453125 0.415625000000034  C 0.7421875 0.138541666666697  1.09375 0  1.5 0  L 34.5 0  C 34.90625 0  35.2578125 0.138541666666697  35.5546875 0.415625000000034  Z " fill-rule="nonzero" fill="#000000" stroke="none" transform="matrix(1 0 0 1 944 299 )" />
  </g>
</svg>