<?xml version="1.0" encoding="utf-8"?>
<svg version="1.1" xmlns:xlink="http://www.w3.org/1999/xlink" width="36px" height="37px" xmlns="http://www.w3.org/2000/svg">
  <g transform="matrix(1 0 0 1 -944 -813 )">
    <path d="M 35.0625 11  L 24 11  L 24 0.82589285714289  C 24.34375 1.01860119047615  24.625 1.21130952380952  24.84375 1.40401785714289  L 34.40625 9.828125  C 34.625 10.0208333333334  34.84375 10.2686011904761  35.0625 11  Z M 21 0  L 21 11.2321428571429  C 21 11.7827380952381  21.21875 12.250744047619  21.65625 12.6361607142857  C 22.09375 13.0215773809524  22.625 13.2142857142857  23.25 13.2142857142857  L 36 13.2142857142857  L 36 35.0178571428571  C 36 35.5684523809524  35.78125 36.0364583333334  35.34375 36.421875  C 34.90625 36.8072916666666  34.375 37  33.75 37  L 2.25 37  C 1.625 37  1.09375 36.8072916666666  0.65625 36.421875  C 0.21875 36.0364583333334  0 35.5684523809524  0 35.0178571428571  L 0 1.98214285714289  C 0 1.43154761904759  0.21875 0.963541666666629  0.65625 0.578125  C 1.09375 0.192708333333371  1.625 0  2.25 0  L 21 0  Z " fill-rule="nonzero" fill="#000000" stroke="none" transform="matrix(1 0 0 1 944 813 )" />
  </g>
</svg>