<?xml version="1.0" encoding="utf-8"?>
<svg version="1.1" xmlns:xlink="http://www.w3.org/1999/xlink" width="30px" height="9px" xmlns="http://www.w3.org/2000/svg">
  <defs>
    <mask fill="white" id="clip11">
      <path d="M 0.241935483871107 3.06818181818193  L 3.1451612903225 0.204545454545269  L 29.7580645161289 0.818181818181927  L 20.8064516129032 5.52272727272754  L 11.1290322580648 9  L 5.08064516129055 8.38636363636334  L 0.241935483871107 3.06818181818193  Z " fill-rule="evenodd" />
    </mask>
  </defs>
  <g transform="matrix(1 0 0 1 -636 -714 )">
    <path d="M 0.241935483871107 3.06818181818193  L 3.1451612903225 0.204545454545269  L 29.7580645161289 0.818181818181927  L 20.8064516129032 5.52272727272754  L 11.1290322580648 9  L 5.08064516129055 8.38636363636334  L 0.241935483871107 3.06818181818193  Z " fill-rule="nonzero" fill="#3497dc" stroke="none" transform="matrix(1 0 0 1 636 714 )" />
    <path d="M 0.241935483871107 3.06818181818193  L 3.1451612903225 0.204545454545269  L 29.7580645161289 0.818181818181927  L 20.8064516129032 5.52272727272754  L 11.1290322580648 9  L 5.08064516129055 8.38636363636334  L 0.241935483871107 3.06818181818193  Z " stroke-width="2" stroke="#6b6b6b" fill="none" transform="matrix(1 0 0 1 636 714 )" mask="url(#clip11)" />
  </g>
</svg>