<?xml version="1.0" encoding="utf-8"?>
<svg version="1.1" xmlns:xlink="http://www.w3.org/1999/xlink" width="9px" height="9px" xmlns="http://www.w3.org/2000/svg">
  <g transform="matrix(1 0 0 1 -494 -664 )">
    <path d="M 498.5 664  C 501.02 664  503 665.98  503 668.5  C 503 671.02  501.02 673  498.5 673  C 495.98 673  494 671.02  494 668.5  C 494 665.98  495.98 664  498.5 664  Z " fill-rule="nonzero" fill="#6300bf" stroke="none" />
    <path d="M 498.5 664.5  C 500.74 664.5  502.5 666.26  502.5 668.5  C 502.5 670.74  500.74 672.5  498.5 672.5  C 496.26 672.5  494.5 670.74  494.5 668.5  C 494.5 666.26  496.26 664.5  498.5 664.5  Z " stroke-width="1" stroke="#797979" fill="none" />
  </g>
</svg>