<?xml version="1.0" encoding="utf-8"?>
<svg version="1.1" xmlns:xlink="http://www.w3.org/1999/xlink" width="13px" height="11px" xmlns="http://www.w3.org/2000/svg">
  <g transform="matrix(1 0 0 1 -595 -621 )">
    <path d="M 2.23333333333335 1.16111111111092  L 3.3000000000001 0.427777777777806  L 7.03333333333361 1.16111111111092  L 9.29999999999981 2.62777777777786  L 10.9000000000002 3.72777777777775  L 12.5000000000001 4.46111111111122  L 12.8562144107468 5.58872761801989  L 10.3666666666666 7.39444444444439  L 10.3666666666666 10.0833333333334  L 8.0999999999999 10.0833333333334  L 5.03333333333315 10.0833333333334  L 4.50000000000038 10.938888888889  L 3.3000000000001 10.938888888889  L 1.69999999999974 9.59444444444409  L 0.366666666666411 8.12777777777786  L 1.03333333333354 6.90555555555591  L 2.23333333333335 5.58872761801989  C 2.23333333333335 5.58872761801989  2.76666666666696 4.46111111111122  2.76666666666696 3.23888888888883  C 2.76666666666696 2.01666666666653  2.23333333333335 1.16111111111092  2.23333333333335 1.16111111111092  Z " fill-rule="nonzero" fill="#3497dc" stroke="none" transform="matrix(1 0 0 1 595 621 )" />
  </g>
</svg>