<?xml version="1.0" encoding="utf-8"?>
<svg version="1.1" xmlns:xlink="http://www.w3.org/1999/xlink" width="108px" height="104px" xmlns="http://www.w3.org/2000/svg">
  <g transform="matrix(1 0 0 1 -309 -669 )">
    <path d="M 14.8282828282827 9.64363636363633  C 16.5939106265686 7.22770172764648  14.3131892195233 3.97090909090918  14.3131892195233 3.97090909090918  L 16.6862559241708 2.64727272727279  L 18.7179487179486 0  L 18.7179487179486 8.88727272727294  L 22.0094786729857 11.134396355353  C 22.0094786729857 11.134396355353  21.8384593443086 14.6522280632496  23.4426540284359 15.3038724373575  C 24.5844198179703 15.7676722870025  26.5003441003441 13.9927272727274  26.5003441003441 13.9927272727274  L 27.9469194312796 11.7029612756264  L 29.3671661671663 9.64363636363633  L 29.3671661671663 6.96492027334899  L 30.4615384615384 6.96492027334899  L 32.0417061611376 11.134396355353  L 32.6559241706165 15.3038724373575  L 37.7744075829386 18.7152619589977  L 40.5128205128206 16.0619589977223  L 41.6644549763034 20.2327272727271  L 45.9639810426538 29.498181818182  L 47.6018957345972 31.0109090909091  L 48.4208530805689 35.7381818181817  C 48.4208530805689 35.7381818181817  48.6659593550079 38.5368927908111  50.0587677725119 38.7636363636368  C 51.1045937369626 38.933892597554  52.4102564102567 37.2883826879269  52.4102564102567 37.2883826879269  L 52.4102564102567 41.7890909090911  L 55.4871794871793 41.7890909090911  L 57.6341232227487 39.5199999999997  L 60.8205128205129 36.5302961275625  C 60.8205128205129 36.5302961275625  63.4696808105548 37.984810000064  66.0284360189576 37.2883826879269  C 68.2942927655095 36.6716747986745  69.5090047393367 34.4145454545453  69.5090047393367 34.4145454545453  L 69.5090047393367 31.0109090909091  L 67.941033535372 28.1745454545456  L 67.941033535372 24.5605764535866  C 67.941033535372 24.5605764535866  71.5432587780297 23.2845610526557  74.2180094786729 20.2327272727271  C 76.2241485977795 17.9437651165709  76.6748815165879 15.3038724373575  76.6748815165879 15.3038724373575  L 75.4464454976302 11.7029612756264  L 79.4871794871795 13.9927272727274  L 79.4871794871795 9.64363636363633  L 81.9981042654033 7.91252847380412  L 84.6153846153848 7.91252847380412  L 86.0512820512821 11.134396355353  L 86.0512820512821 15.3038724373575  C 86.0512820512821 15.3038724373575  86.8761979134917 17.6519067497583  88.5128205128205 17.957175398633  C 90.4972346648108 18.3273153607937  92.6153846153846 16.0619589977223  92.6153846153846 16.0619589977223  L 97.128205128205 15.3038724373575  L 97.128205128205 19.2838268792711  L 95.8974358974359 20.989521640091  L 92.6153846153846 22.8847380410022  L 89.3687203791468 22.1236363636362  L 83.431279620853 22.1236363636362  L 78.1080568720381 22.8847380410022  L 75.4464454976302 25.9054545454546  L 75.4464454976302 28.7418181818182  L 77.4938388625592 33.1189066059224  L 81.9981042654033 35.7381818181817  L 83.431279620853 33.1189066059224  L 86.6666666666666 33.1189066059224  L 87.897435897436 37.2883826879269  L 85.2307692307692 44.1111617312073  L 85.2307692307692 47.8399999999996  L 89.9487179487179 51.5025056947611  L 88.5128205128205 53.890909090909  L 87.897435897436 58.050909090909  L 87.897435897436 61.0763636363637  L 88.5128205128205 63.5345454545454  L 91.8255924170619 63.5345454545454  L 94.0777251184834 62.3999999999996  L 95.3061611374406 63.5345454545454  L 95.3061611374406 66.2851936218679  L 95.8974358974359 68.5594533029612  L 101.641025641026 68.5594533029612  L 107.435897435897 67.4223234624144  L 108 71.9708428246013  L 105.948717948718 74.0555808656034  L 102.666666666667 75.5717539863324  L 101.641025641026 76.1403189066063  L 100.205128205128 75.003189066059  L 97.128205128205 74.0555808656034  L 86.6666666666666 82.5840546697041  L 82.8170616113745 81.6872727272727  L 79.4871794871795 84.6687927107061  L 71.9658767772514 82.5840546697041  L 67.0521327014217 87.738181818182  L 60.8205128205129 82.5840546697041  L 55.4871794871793 85.6164009111617  L 50.8777251184831 85.6164009111617  L 49.2398104265406 91.8981818181816  L 51.4919431279621 99.6509090909089  L 52.1061611374405 104  L 45.3497630331754 102.487272727273  L 44.7355450236965 98.88291571754  L 41.6644549763034 95.4909090909093  L 36.1246753246755 98.88291571754  L 33.6673992673994 98.88291571754  L 29.3671661671663 96.4191343963553  C 29.3671661671663 96.4191343963553  29.1782971326007 93.0936539500126  26.5003441003441 90.9527272727275  C 23.0613972678821 88.2034135518742  17.2855588855588 88.6836363636362  17.2855588855588 88.6836363636362  C 17.2855588855588 88.6836363636362  18.8554852554854 85.8690964312832  19.3332889332889 84.6687927107061  C 21.1762459762462 82.4577069096429  24.8621600621602 78.0355353075171  24.8621600621602 78.0355353075171  L 18.7179487179486 77.466970387244  L 14.3131892195233 74.6795480816278  L 16.0569208569206 68.5594533029612  L 13.3948717948715 66.2851936218679  L 15.4578199052134 63.5345454545454  L 13.3948717948715 61.8327272727271  L 9.91373071373055 63.5345454545454  L 7.4729857819902 63.5345454545454  L 3.37819905213257 64.2909090909091  L 0 65.6218678815486  L 1.33080568720396 62.3999999999996  L 0 61.0763636363637  L 0 56.5381818181814  L 3.99241706161144 52.1890909090907  L 8.48031968031963 44.1111617312073  C 8.48031968031963 44.1111617312073  11.3319236845303 46.2441416442331  13.3948717948715 44.1111617312073  C 15.4578199052134 41.9781818181818  16.0569208569206 35.1709090909095  16.0569208569206 35.1709090909095  L 16.6862559241708 23.8254545454544  L 14.3131892195233 17.957175398633  L 12.3867298578199 19.2838268792711  L 9.91373071373055 18.7152619589977  L 9.29941169941183 11.7029612756264  C 9.29941169941183 11.7029612756264  13.280198912199 11.7619024874012  14.8282828282827 9.64363636363633  Z " fill-rule="nonzero" fill="#169bd5" stroke="none" transform="matrix(1 0 0 1 309 669 )" />
  </g>
</svg>