<?xml version="1.0" encoding="utf-8"?>
<svg version="1.1" xmlns:xlink="http://www.w3.org/1999/xlink" width="270px" height="213px" xmlns="http://www.w3.org/2000/svg">
  <g transform="matrix(1 0 0 1 -322 -341 )">
    <path d="M 1.5283018867923 151.644690265487  L 0.254716981131843 146.869469026549  C 0.254716981131843 146.869469026549  8.45660377358492 150.51371681416  20.0716981132077 149.948230088495  C 31.6867924528301 149.382743362832  39.990566037736 149.382743362832  39.990566037736 149.382743362832  C 39.990566037736 149.382743362832  50.6377358490568 155.791592920354  57.9735849056603 159.373008849557  C 65.3094339622642 162.954424778761  73.8679245283015 160.315486725664  73.8679245283015 160.315486725664  L 76.109433962264 163.519911504425  L 82.018867924528 162.577433628318  C 82.018867924528 162.577433628318  89.1509433962267 155.980088495575  98.5245283018865 153.152654867257  C 107.898113207547 150.325221238938  123.537735849057 152.523934749881  123.537735849057 152.523934749881  L 129.498113207547 151.644690265487  L 129.498113207547 149.948230088495  L 133.624528301887 148.12610619469  L 137.088679245283 143.539380530973  L 139.737735849057 139.95796460177  C 139.737735849057 139.95796460177  140.960377358491 138.073008849558  141.571698113208 137.130530973452  C 142.72641509434 136.753539823009  145.035849056604 135.999557522124  145.035849056604 135.999557522124  C 145.035849056604 135.999557522124  149.790566037736 135.245575221239  150.367924528302 133.172123893805  C 150.945283018868 131.098672566371  149.722641509434 127.328761061947  149.722641509434 127.328761061947  C 149.722641509434 127.328761061947  148.955279135316 128.367608074505  148.092452830189 127.894247787611  C 146.434386556405 126.984606157095  146.054716981132 123.558849557522  146.054716981132 123.558849557522  L 148.907547169811 116.019026548673  L 153.594339622642 115.265044247788  L 157.262264150944 117.526991150442  L 162.356603773585 118.280973451327  L 165.41320754717 118.846460176991  L 172.749056603774 116.019026548673  L 175.601886792453 110.552654867257  L 181.511320754717 108.667699115044  C 181.511320754717 108.667699115044  187.828301886792 107.536725663717  189.662264150944 105.274778761062  C 191.496226415095 103.012831858407  192.718867924528 94.9075221238937  192.718867924528 94.9075221238937  L 196.38679245283 94.153539823009  L 209.224528301887 87  L 222.877358490566 87  C 222.877358490566 87  226.137735849056 85.8597345132742  225.424528301887 83.4092920353984  C 224.711320754717 80.9588495575222  222.266037735849 79.4508849557523  222.266037735849 79.4508849557523  L 214.930188679245 75.1154867256637  L 210.243396226415 70.0261061946899  L 200.666037735849 71.1570796460176  L 198.016981132076 75.1154867256637  L 187.828301886792 73.2305309734517  L 182.292452830189 76.4977876106195  L 182.292452830189 71.1570796460176  L 185.994339622641 54.0039823008851  L 185.349056603774 48.5376106194688  L 192.718867924528 49.2915929203539  L 198.016981132076 53.25  L 209.224528301887 42.3172566371681  L 210.243396226415 38.7358407079646  L 208.373571511583 37.2831655202855  L 210.243396226415 34.400442477876  L 211.839622641509 24.2216814159293  L 217.171698113208 14.608407079646  L 215.575471698113 11.2154867256637  L 216.356603773584 8.19955752212367  L 213.503773584906 7.06858407079638  L 210.854716981132 7.06858407079638  L 212.518867924528 4.80663716814144  L 213.503773584906 2.54469026548691  L 215.575471698113 0.785398230088541  L 220.669811320755 0.157079646017469  L 222.266037735849 0.785398230088541  L 219.616981132076 4.241150442478  L 220.669811320755 10.6499999999999  L 224.915094339623 12.5349557522123  L 224.915094339623 11.2154867256637  L 227.767924528302 11.7809734513272  L 229.83962264151 10.6499999999999  L 230.416981132076 8.9535398230088  L 234.492452830189 9.51902654867265  L 234.492452830189 15.3623893805311  C 234.492452830189 15.3623893805311  237.888679245283 19.1323008849555  239.58679245283 21.0172566371683  C 241.01320754717 21.7084070796462  242.032075471698 23.2792035398233  243.866037735849 23.0907079646016  C 245.7 22.9022123893807  248.349056603773 19.6977876106193  249.753154285901 18.9438053097347  C 251.157251968028 18.1898230088495  254.302059453106 18.3783185840704  254.302059453106 18.3783185840704  C 254.302059453106 18.3783185840704  256.5 15.3623893805311  256.5 15.3623893805311  C 256.5 15.3623893805311  258.741509433962 13.8544247787609  258.741509433962 13.8544247787609  L 260.983018867925 15.3623893805311  L 263.122641509434 18.9438053097347  L 264.820754716981 23.0907079646016  L 263.801886792453 26.6721238938051  L 264.820754716981 29.0597345132746  L 263.801886792453 33.45796460177  L 263.801886792453 36.0969026548675  C 263.801886792453 36.0969026548675  266.024969063297 38.0765962727381  265.873584905661 40.4323008849558  C 265.684648361721 43.3723620837225  262.61320754717 45.5216814159291  262.61320754717 45.5216814159291  L 262.001886792453 49.2915929203539  L 263.122641509434 52.6216814159293  L 262.001886792453 57.2084070796461  L 259.38679245283 55.8889380530971  L 257.111320754717 55.8889380530971  L 254.302059453106 59.0933628318585  L 252.016981132076 64.936725663717  L 248.349056603773 66.4446902654868  L 245.801886792453 70.5287610619465  L 248.349056603773 75.1154867256637  L 250.419242113261 77.1493195726423  L 250.419242113261 78.5084070796459  L 253.273584905661 79.9535398230089  L 254.302059453106 83.4092920353984  L 254.869811320755 87.7446902654866  L 251.201886792453 91.5774336283182  L 246.718867924528 88.8756637168143  L 243.866037735849 88.8756637168143  L 241.216981132076 91.5774336283182  L 243.254716981132 94.153539823009  L 248.349056603773 96.6039823008848  L 248.349056603773 104.520796460177  L 249.753154285901 107.764097187287  L 251.201886792453 110.552654867257  L 254.302059453106 113.254424778761  L 260.167924528302 108.667699115044  L 262.001886792453 112.437610619469  L 264.820754716981 113.757079646018  L 264.820754716981 117.526991150442  L 263.801886792453 121.736725663717  L 266.518867924528 124.564159292035  L 268.981132075472 124.312831858407  L 269.949056603774 125.255309734513  L 268.981132075472 127.328761061947  L 266.518867924528 129.276548672566  L 263.122641509434 129.967699115044  L 259.38679245283 129.276548672566  L 256.5 132.41814159292  L 255.684905660378 135.245575221239  L 251.201886792453 133.92610619469  L 248.349056603773 137.130530973452  L 243.471078392639 141.306045673281  L 239.58679245283 145.424336283186  L 236.971698113207 146.869469026549  L 234.492452830189 143.539380530973  L 229.83962264151 141.842920353982  L 231.87772022267 152.523934749881  L 228.481132075472 156.294247787611  L 220.669811320755 154.660619469026  L 218.801886792453 152.523934749881  L 219.616981132076 149.382743362832  L 219.616981132076 146.869469026549  L 218.801886792453 144.293362831859  C 218.801886792453 144.293362831859  217.171698113208 145.424336283186  216.356603773584 145.989823008849  C 215.677358490566 145.612831858407  214.318867924528 144.858849557522  214.318867924528 144.858849557522  L 214.318867924528 141.842920353982  L 212.518867924528 139.95796460177  L 209.224528301887 139.392477876106  L 206.983018867925 141.842920353982  L 203.315094339623 141.842920353982  L 201.684905660377 144.293362831859  L 201.684905660377 148.628761061947  L 200.666037735849 151.079203539823  L 198.016981132076 151.644690265487  L 195.571698113208 152.523934749881  L 190.477358490566 151.644690265487  L 187.828301886792 157.111061946903  L 184.567924528302 156.294247787611  L 183.752830188679 153.152654867257  L 183.141509433962 149.948230088495  L 180.594339622642 148.12610619469  L 177.843396226415 153.152654867257  L 174.820754716981 158.053539823009  L 172.749056603774 161.823451327434  L 173.462264150944 166.158849557522  L 175.601886792453 168.420796460177  L 173.462264150944 172.316371681416  L 169.488679245283 173.258849557522  L 165.41320754717 172.316371681416  C 165.41320754717 172.316371681416  163.783018867924 172.944690265487  162.967924528302 173.258849557522  C 162.492452830189 174.096607669617  162.954809340282 174.91007079646  161.541509433962 175.772123893805  C 159.871331110623 176.790861948138  158.765972517296 175.095923656202  157.262264150944 176.337610619469  C 155.577335236626 177.728940423675  156.039622641509 180.673008849557  156.039622641509 180.673008849557  L 151.964150943396 184.254424778761  L 148.907547169811 184.254424778761  L 146.869811320755 187.270353982301  L 142.590566037736 186.704867256637  L 141.571698113208 189.909292035398  L 137.903773584906 188.024336283186  L 133.624528301887 188.024336283186  L 135.050943396227 191.794247787611  L 126.9 195.752654867257  L 122.620754716981 200.276548672566  L 122.620754716981 204.611946902655  L 120.583018867924 210.643805309734  L 118.952830188679 212.842920353982  L 115.386792452831 212.842920353982  L 106.879245283019 209.135840707965  C 106.879245283019 209.135840707965  104.977358490566 207.502212389381  104.02641509434 206.685398230089  C 102.871698113208 206.685398230089  100.562264150944 206.685398230089  100.562264150944 206.685398230089  L 99.5433962264151 204.611946902655  L 99.5433962264151 200.84203539823  L 101.581132075472 197.449115044248  L 102.396226415095 195.752654867257  L 101.581132075472 192.695213282912  L 98.5245283018865 190.663274336283  L 94.4490566037733 189.909292035398  L 89.7622641509436 193.679203539823  L 88.3358490566037 196.883628318584  L 86.7056603773585 200.276548672566  L 86.7056603773585 205.931415929204  L 84.6679245283017 209.135840707965  L 84.6679245283017 210.643805309734  L 84.0905606597943 211.462829492747  L 80.1849056603772 210.643805309734  L 78.1471698113212 212.842920353982  L 70.4377358490568 213  L 66.9056603773585 213  L 63.4754716981134 210.643805309734  C 63.4754716981134 210.643805309734  62.7452830188682 208.004867256637  62.7452830188682 206.685398230089  C 62.988679245283 205.240265486726  63.4754716981134 202.35  63.4754716981134 202.35  L 67.9584905660379 200.276548672566  L 70.556603773585 198.957079646018  L 72.8490566037733 194.935840707965  L 72.2377358490568 191.794247787611  L 70.556603773585 188.024336283186  L 65.3094339622642 187.270353982301  L 59.4898649836681 192.695213282912  L 57.1584905660377 193.679203539823  L 51.045283018868 191.794247787611  L 47.3773584905661 191.794247787611  L 45.9509433962262 194.935840707965  L 47.988679245283 196.883628318584  L 47.3773584905661 198.203097345133  L 45.9509433962262 198.957079646018  L 42.4867924528303 197.449115044248  L 41.0603773584908 195.752654867257  L 37.2735849056606 194.935840707965  C 37.2735849056606 194.935840707965  36.1698113207546 189.909292035398  36.1698113207546 189.909292035398  L 34.1320754716982 188.778318584071  L 31.4830188679249 186.704867256637  C 31.4830188679249 186.704867256637  29.5001668160788 185.097591377001  28.8339622641507 184.254424778761  C 27.9509433962265 183.814601769911  26.1849056603773 182.934955752212  26.1849056603773 182.934955752212  L 23.7396226415093 180.673008849557  C 23.7396226415093 180.673008849557  28.6854638716589 173.612438814677  28.8339622641507 173.887168141593  C 29.0377358490567 174.264159292035  28.0188679245281 170.682743362832  28.0188679245281 170.682743362832  L 27.4245283018866 169.174778761062  L 22.3132075471702 170.682743362832  C 22.3132075471702 170.682743362832  17.8333279919554 171.075083213852  15.5933882143483 171.271253139362  C 14.5729506334648 171.452074364294  12.5320754716982 171.81371681416  12.5320754716982 171.81371681416  L 11.1056603773583 173.887168141593  L 9.08490566037724 173.258849557522  L 9.08490566037724 169.740265486725  L 6.01132075471683 167.478318584071  L 5.39999999999992 164.085398230089  L 3.15849056603786 161.25796460177  L 5.39999999999992 156.294247787611  L 1.5283018867923 151.644690265487  Z " fill-rule="nonzero" fill="#4c48c7" stroke="none" transform="matrix(1 0 0 1 322 341 )" />
  </g>
</svg>