<?xml version="1.0" encoding="utf-8"?>
<svg version="1.1" xmlns:xlink="http://www.w3.org/1999/xlink" width="21px" height="20px" xmlns="http://www.w3.org/2000/svg">
  <g transform="matrix(1 0 0 1 -517 -503 )">
    <path d="M 4.20731707317064 6.77740863787387  L 5.817073170732 5.84717607973411  L 7.86585365853661 5.18272425249174  L 7.86585365853661 4.25249169435242  L 10.5 4.25249169435242  C 10.5 4.25249169435242  10.987804878049 3.89811738648938  11.2317073170735 3.72093023255808  C 10.987804878049 3.27796234772983  10.5 2.39202657807333  10.5 2.39202657807333  C 10.5 2.39202657807333  9.71951219512185 1.41749723145083  9.32926829268296 0.930232558139761  C 9.71951219512185 0.664451827242374  10.5 0.132890365448475  10.5 0.132890365448475  L 12.8414634146342 0.132890365448475  L 17.3780487804878 3.18936877076418  L 20.7439024390246 3.18936877076418  L 20.7439024390246 3.72093023255808  C 20.7439024390246 3.72093023255808  19.7682926829269 4.69545957918067  19.2804878048784 5.18272425249174  C 19.0365853658539 5.71428571428564  18.7926829268293 6.24584717607954  18.5487804878048 6.77740863787387  C 19.0365853658539 7.66334440753037  20.0121951219511 9.43521594684381  20.0121951219511 9.43521594684381  C 20.0121951219511 9.43521594684381  20.0121951219511 10.3211517165003  20.0121951219511 10.7641196013289  C 19.5243902439025 11.0299003322259  18.5487804878048 11.5614617940198  18.5487804878048 11.5614617940198  L 15.7682926829267 11.5614617940198  L 16.3536585365854 14.2192691029901  C 16.3536585365854 14.2192691029901  15.9634146341465 15.8139534883723  15.7682926829267 16.6112956810631  C 15.3292682926832 17.142857142857  14.4512195121948 18.2059800664448  14.4512195121948 18.2059800664448  L 12.8414634146342 19.9335548172758  L 11.2317073170735 19.9335548172758  L 9.32926829268296 18.7375415282391  C 9.32926829268296 18.7375415282391  8.59756097560978 17.5415282392024  6.84146341463395 17.2757475083055  C 5.08536585365856 17.0099667774085  3.03658536585351 17.2757475083055  3.03658536585351 17.2757475083055  L 0.841463414634164 16.6112956810631  L 0.109756097560989 15.4152823920264  L 0.841463414634164 14.2192691029901  L 3.03658536585351 12.358803986711  L 5.2317073170733 9.96677740863771  L 4.20731707317064 8.63787375415296  L 4.20731707317064 6.77740863787387  Z " fill-rule="nonzero" fill="#169bd5" stroke="none" transform="matrix(1 0 0 1 517 503 )" />
  </g>
</svg>