<?xml version="1.0" encoding="utf-8"?>
<svg version="1.1" xmlns:xlink="http://www.w3.org/1999/xlink" width="21px" height="46px" xmlns="http://www.w3.org/2000/svg">
  <g transform="matrix(1 0 0 1 -600 -702 )">
    <path d="M 7.819512195122 7.71508771929814  C 9.36747967479654 6.0795321637425  12.4634146341461 2.80842105263168  12.4634146341461 2.80842105263168  L 16.0146341463416 0.225964912280799  L 20.7951219512197 2.16280701754378  L 19.1560975609757 4.35789473684224  L 19.8390243902437 7.71508771929814  L 20.7951219512197 11.0722807017543  L 19.1560975609757 14.8168421052634  L 17.9268292682926 26.1796491228068  L 13.6926829268292 36.6385964912279  L 12.4634146341461 45.8063157894732  L 9.73170731707307 43.6112280701755  L 7.819512195122 40.3831578947365  L 3.99512195121942 37.8007017543856  L 0.44390243902434 35.9929824561403  C 0.44390243902434 35.9929824561403  1.26341463414643 29.9672514619886  1.67317073170703 26.9543859649121  C 1.26341463414643 24.6732163742689  0.44390243902434 20.1108771929822  0.44390243902434 20.1108771929822  C 0.44390243902434 20.1108771929822  2.81138211382097 17.0119298245611  3.99512195121942 15.462456140351  C 5.26991869918697 12.88  6.54471544715453 10.2975438596495  7.819512195122 7.71508771929814  Z " fill-rule="nonzero" fill="#169bd5" stroke="none" transform="matrix(1 0 0 1 600 702 )" />
  </g>
</svg>