<?xml version="1.0" encoding="utf-8"?>
<svg version="1.1" xmlns:xlink="http://www.w3.org/1999/xlink" width="102px" height="64px" xmlns="http://www.w3.org/2000/svg">
  <g transform="matrix(1 0 0 1 -568 -425 )">
    <path d="M 4.61306532663309 7.12156862745094  L 7.62010050251274 8.25098039215703  L 13.2241206030154 3.8588235294118  L 13.2241206030154 2.10196078431368  L 14.0442211055275 2.10196078431368  L 19.1015075376886 0.219607843137277  L 19.784924623116 3.10588235294146  L 22.6552763819095 7.12156862745094  L 25.6623115577892 9.63137254901937  L 29.2160804020101 10.1333333333335  L 33.5899497487436 8.75294117647075  L 37.0070351758795 8.25098039215703  L 38.6472361809045 8.75294117647075  L 40.4241206030151 8.25098039215703  L 41.380904522613 7.12156862745094  L 42.7477386934672 8.75294117647075  L 43.9778894472364 10.7607843137255  L 45.3447236180906 12.2666666666665  L 47.531658291457 12.2666666666665  L 48.7618090452262 10.1333333333335  L 53.4090452261305 10.1333333333335  L 54.6391959798993 11.7647058823532  L 54.6391959798993 14.1490196078434  L 56.4160804020102 14.7764705882354  L 58.7396984924624 14.7764705882354  L 60.3798994974874 14.7764705882354  L 63.3869346733667 16.6588235294118  L 63.9336683417088 18.1647058823528  L 63.3869346733667 19.921568627451  L 67.7608040201005 21.3019607843137  L 69.6743718592965 18.1647058823528  L 69.1276381909547 16.6588235294118  C 69.1276381909547 16.6588235294118  69.2700369710967 14.8092274567295  69.6743718592965 14.7764705882354  C 70.105501593492 14.7415429566625  70.6311557788944 16.6588235294118  70.6311557788944 16.6588235294118  L 71.3145728643219 18.6666666666665  L 71.8613065326632 19.921568627451  L 73.2281407035174 20.6745098039217  L 75.55175879397 21.9294117647061  L 80.4723618090452 26.1960784313726  L 84.7095477386936 24.3137254901962  L 83.0693467336686 20.6745098039217  L 86.3497487437182 18.1647058823528  L 89.3567839195979 19.2941176470589  L 92.0904522613064 18.6666666666665  L 99.6080402010049 21.9294117647061  L 101.931658291458 21.9294117647061  L 101.931658291458 27.5764705882354  L 97.6944723618094 29.7098039215688  L 101.111557788945 33.349019607843  L 99.6080402010049 35.1058823529415  L 93.4572864321609 29.0823529411765  L 90.040201005025 29.7098039215688  L 89.3567839195979 36.9882352941175  L 86.8964824120603 39.15031585801  L 85.3929648241207 41.2549019607844  L 82.4272034247588 44.1255499216325  L 80.4723618090452 45.2399098864948  L 78.0120603015075 45.2399098864948  L 73.2281407035174 45.2399098864948  L 76.0984924623117 47.7803921568628  L 80.4723618090452 51.2941176470589  L 79.9256281407035 53.678431372549  L 70.6311557788944 53.1764705882354  L 66.2572864321609 51.2941176470589  L 63.3869346733667 51.2941176470589  L 56.4160804020102 63.8431372549019  L 56.4160804020102 59.5764705882354  L 54.6391959798993 58.1960784313727  L 53.4090452261305 57.6459100503142  L 51.3821858572392 57.6459100503142  L 50.4020100502512 56.4392156862746  L 50.4020100502512 48.7843137254905  L 48.7618090452262 47.7803921568628  L 45.818994182946 45.2399098864948  L 43.9778894472364 42.2588235294118  L 43.9778894472364 38.3686274509806  L 42.2010050251256 36.9882352941175  L 40.4241206030151 36.9882352941175  L 39.3684625699342 39.15031585801  L 38.6472361809045 40.6274509803924  L 36.186934673367 39.6235294117646  L 35.3668341708545 37.4901960784312  L 33.0432160804023 37.4901960784312  L 31.4030150753769 38.3686274509806  L 30.2275341477199 36.8878415118712  L 27.9859296482414 35.8588235294118  L 26.4824120603017 37.4901960784312  L 23.8854271356782 38.3686274509806  L 22.6552763819095 36.9882352941175  L 23.2020100502512 34.3529411764703  L 23.8854271356782 30.5882352941179  L 22.6552763819095 27.5764705882354  L 20.331658291457 26.1960784313726  L 18.5547738693468 23.1843137254901  L 16.6412060301506 21.3019607843137  L 14.0442211055275 24.8156862745099  L 11.0371859296483 26.1960784313726  L 9.53366834170902 24.8156862745099  L 7.62010050251274 21.9294117647061  L 6.66331658291438 18.6666666666665  L 6.66331658291438 15.2784313725491  L 6.11658291457309 13.3960784313726  L 6.11658291457309 10.7607843137255  L 3.51959798995007 9.63137254901937  L 0.102512562814135 7.12156862745094  L 1.46934673366842 5.99215686274528  L 3.51959798995007 5.49019607843117  L 4.61306532663309 7.12156862745094  Z " fill-rule="nonzero" fill="#3497dc" stroke="none" transform="matrix(1 0 0 1 568 425 )" />
  </g>
</svg>