<?xml version="1.0" encoding="utf-8"?>
<svg version="1.1" xmlns:xlink="http://www.w3.org/1999/xlink" width="132px" height="109px" xmlns="http://www.w3.org/2000/svg">
  <g transform="matrix(1 0 0 1 -313 -601 )">
    <path d="M 4.03053435114524 3.57068965517274  L 5.05359877488529 1.51394374192322  L 14.9129770992366 2.63557858376525  L 15.9206106870227 4.70639032815184  L 15.9206106870227 6.96545768566494  C 15.9206106870227 6.96545768566494  15.9770381679386 9.08898100172737  17.3312977099238 10.3540587219342  C 18.3469923664124 11.3028670120899  19.7496183206109 11.2953367875646  19.7496183206109 11.2953367875646  L 23.5786259541983 16.9430051813469  L 24.9893129770994 18.7350538062973  L 27.206106870229 19.4920256772585  L 29.2213740458013 17.8842832469774  L 30.0274809160307 19.4920256772585  L 33.6549618320611 20.7081174438688  L 35.4687022900762 23.5319516407602  L 38.6931297709924 24.6614853195167  L 38.6931297709924 20.7081174438688  L 44.5374045801528 20.7081174438688  C 44.5374045801528 20.7081174438688  45.4778625954198 19.3927416854877  45.9480916030535 18.7350538062973  C 45.6793893129773 17.8239449094372  45.1419847328244 16.0017271157169  45.1419847328244 16.0017271157169  L 45.1419847328244 14.4956822107082  L 46.5526717557251 14.4956822107082  L 48.5679389312977 15.0604490500865  L 49.5252679938744 12.4248704663216  L 51.3893129770994 12.4248704663216  L 52.372962001593 11.4617968632657  L 54.0091603053436 12.4248704663216  L 58.4427480916034 12.4248704663216  L 59.8534351145036 11.2953367875646  L 58.4427480916034 5.45941278065665  L 64.0796324655433 0  C 64.0796324655433 0  64.8657540207896 4.72769640103225  68.5190839694657 6.96545768566494  C 72.53892875918 9.42771901081941  77.9908396946564 8.09499136442109  77.9908396946564 8.09499136442109  L 78.5954198473284 11.4617968632657  L 81.0137404580152 13.7426597582043  L 83.0290076335878 14.4956822107082  L 82.0213740458013 19.4920256772585  L 84.6412213740459 21.2728842832471  L 87.4625954198476 21.2728842832471  L 91.4931297709921 23.5319516407602  C 91.4931297709921 23.5319516407602  93.6427480916029 22.0259067357514  94.7175572519083 21.2728842832471  C 95.5554516442024 20.4269407909305  97.23124042879 18.7350538062973  97.23124042879 18.7350538062973  C 97.23124042879 18.7350538062973  98.6455279800803 20.4269407909305  99.3526717557255 21.2728842832471  C 100.293129770992 21.6493955094992  102.174045801527 22.4024179620031  102.174045801527 22.4024179620031  L 108.018320610687 21.8376511226253  L 110.638167938931 20.1433506044905  L 111.44427480916 22.4024179620031  L 112.854961832061 23.5319516407602  L 114.064122137405 25.7910189982728  L 116.482442748091 25.7910189982728  L 118.296183206107 24.6614853195167  L 120.687372141241 26.0211424201091  L 122.931297709923 27.8187162578355  L 127.364885496184 27.2970639032816  L 132 27.8187162578355  L 128.37251908397 30.1208981001724  L 128.37251908397 35.392055267703  L 124.543511450382 39.3454231433505  L 122.931297709923 42.545768566494  L 118.296183206107 46.1226252158894  L 117.288549618321 48.7582037996546  L 114.064122137405 50.4525043177895  L 110.033587786259 55.7236614853196  L 97.9419847328244 55.1588946459413  L 95.5236641221373 57.0414507772018  C 95.5236641221373 57.0414507772018  94.6887483151561 60.641495140205  96.1282442748093 64.3834196891194  C 97.3432490472423 67.5417864455719  99.9572519083967 69.466321243523  99.9572519083967 69.466321243523  L 102.174045801527 70.2193436960277  L 103.584732824428 73.7962003454231  C 103.584732824428 73.7962003454231  101.059360240506 72.4740743772343  98.7480916030535 73.2314335060448  C 96.1742933018897 74.0748186528495  94.7175572519083 76.2435233160622  94.7175572519083 76.2435233160622  L 99.3526717557255 80.3851468048359  C 99.3526717557255 80.3851468048359  102.7737251207 81.0085788293863  104.104134762634 82.832469775475  C 104.949234494274 83.9910375582801  104.104134762634 85.1593354831694  104.104134762634 85.1593354831694  C 104.104134762634 85.1593354831694  99.5222052067385 86.620181488057  97.23124042879 87.3506044905008  C 96.0574681739008 87.1623488773747  93.7099236641221 86.7858376511225  93.7099236641221 86.7858376511225  L 93.7099236641221 84.5267702936098  L 92.6298559812964 82.1298766591227  L 90.4854961832059 81.5637190961021  L 86.6564885496181 82.832469775475  C 86.6564885496181 82.832469775475  84.0447022900764 84.4949234066463  83.0290076335878 83.7737478411055  C 81.5610476452243 82.7314494810263  83.0290076335878 78.6908462867014  83.0290076335878 78.6908462867014  L 79.6030534351145 73.7962003454231  L 75.5725190839697 74.5492227979274  L 73.1541984732825 76.8082901554405  L 73.1541984732825 79.4438687392054  L 67.5114503816792 76.8082901554405  L 69.7282442748093 82.1298766591227  L 69.7282442748093 84.5267702936098  L 67.5114503816792 87.9153713298791  L 62.2717557251907 90.9274611398965  L 61.0625954198472 93.5630397236618  L 62.2717557251907 96.5751295336789  L 63.2793893129769 98.6459412780654  L 63.2793893129769 101.281519861831  L 61.0625954198472 103.352331606218  C 61.0625954198472 103.352331606218  58.3211178297684 102.155636966569  56.0244274809158 102.787564766839  C 51.5807252266348 104.010236770494  50.1801526717558 109  50.1801526717558 109  L 49.5252679938744 103.925862068965  L 48.4206632474273 102.523234999262  L 45.9480916030535 104.489655172414  L 44.5374045801528 97.9120689655173  L 40.103816793893 90.0189655172416  L 38.6931297709924 85.8844827586206  C 38.6931297709924 85.8844827586206  38.3555074492352 81.9595532394628  36.6778625954198 81.5637190961021  C 35.4024743258996 81.2627959168199  33.6549618320611 83.7737478411055  33.6549618320611 83.7737478411055  L 30.0274809160307 81.5637190961021  L 29.2213740458013 77.6155172413794  L 28.2137404580156 73.7962003454231  L 23.5786259541983 73.7962003454231  L 23.5786259541983 76.8082901554405  L 22.1679389312977 78.6908462867014  L 20.7572519083971 80.9982758620688  L 19.2036753445635 81.5637190961021  L 19.2036753445635 77.6155172413794  L 16.5251908396947 75.7362068965516  C 16.5251908396947 75.7362068965516  16.7267175572518 74.2327586206896  17.3312977099238 70.8499999999999  C 17.9358778625954 67.4672413793105  16.5251908396947 66.9034482758621  16.5251908396947 66.9034482758621  L 18.5404580152673 61.0775862068967  L 16.5251908396947 55.7236614853196  L 17.3312977099238 50.4525043177895  L 14.308396946565 43.0362068965516  L 13.7038167938931 34.5793103448274  L 8.33419865096215 28.6676027748139  L 7.65801526717557 24.6614853195167  L 0 19.4920256772585  L 1.40225271866694 16.5343341637665  L 4.03053435114524 16.0017271157169  L 3.2970586018907 12.5377284122343  L 5.05359877488529 12.4248704663216  L 5.05359877488529 8.83275862068948  L 4.03053435114524 6.96545768566494  L 4.03053435114524 3.57068965517274  Z " fill-rule="nonzero" fill="#169bd5" stroke="none" transform="matrix(1 0 0 1 313 601 )" />
  </g>
</svg>