<?xml version="1.0" encoding="utf-8"?>
<svg version="1.1" xmlns:xlink="http://www.w3.org/1999/xlink" width="14px" height="20px" xmlns="http://www.w3.org/2000/svg">
  <g transform="matrix(1 0 0 1 -532 -510 )">
    <path d="M 1.68965517241382 7.49206349206361  C 1.68965517241382 6.64550264550266  1.68965517241382 4.95238095238086  1.68965517241382 4.95238095238086  C 1.68965517241382 4.95238095238086  4.26436781609186 3.76719576719595  5.27586206896558 3.17460317460324  C 6.19540229885057 2.24338624338622  6.09386377015301 0.271304048430308  7.48275862068976 0.380952380952609  C 8.70089998732692 0.477120330294663  9.41379310344803 3.17460317460324  9.41379310344803 3.17460317460324  L 9.41379310344803 5.71428571428564  L 11.6206896551722 8.88888888888897  L 13.9432442197429 11.9274189207329  L 13.9432442197429 13.2063492063492  L 10.793103448276 13.2063492063492  L 9.41379310344803 15.7460317460316  L 8.86206896551734 17.2698412698413  L 9.96551724137943 18.6666666666667  L 7.48275862068976 19.9365079365081  L 5.27586206896558 19.9365079365081  L 2.24137931034522 18.6666666666667  L 1.13793103448313 17.2698412698413  L 0.0344827586210386 15.2380952380951  L 0.0344827586210386 11.9274189207329  L 0.586206896551289 9.52380952380946  C 0.586206896551289 9.52380952380946  1.32183908045988 8.16931216931231  1.68965517241382 7.49206349206361  Z " fill-rule="nonzero" fill="#3497dc" stroke="none" transform="matrix(1 0 0 1 532 510 )" />
  </g>
</svg>