<?xml version="1.0" encoding="utf-8"?>
<svg version="1.1" xmlns:xlink="http://www.w3.org/1999/xlink" width="36px" height="53px" xmlns="http://www.w3.org/2000/svg">
  <g transform="matrix(1 0 0 1 -393 -533 )">
    <path d="M 11.304347826087 20.642105263158  L 15.0608695652176 21.2619883040938  L 17.008695652174 20.0222222222221  L 17.008695652174 17.9146198830408  L 18.539130434783 15.4350877192984  L 18.539130434783 9.73216374269012  L 20.9043478260868 3.40935672514603  L 25.3565217391304 0.0619883040934627  C 25.3565217391304 0.0619883040934627  27.2115942028988 0.88849902534105  28.1391304347825 1.30175438596467  C 29.0666666666666 2.00428849902568  30.9217391304349 3.40935672514603  30.9217391304349 3.40935672514603  L 30.9217391304349 5.145029239766  C 30.9217391304349 5.145029239766  29.4376811594203 8.20311890838196  28.6956521739128 9.73216374269012  C 28.5101449275362 11.2198830409357  28.1391304347825 14.1953216374269  28.1391304347825 14.1953216374269  L 30.2260869565218 16.6748538011696  L 33.9826086956521 16.6748538011696  L 35.7913043478259 18.5345029239766  L 34.5391304347829 27.5847953216374  L 31.7565217391305 27.5847953216374  L 29.2521739130437 25.8491228070174  L 26.191304347826 29.5684210526314  L 27.1652173913043 40.3543859649122  L 29.2521739130437 40.3543859649122  L 30.9217391304349 40.974269005848  L 30.9217391304349 43.2058479532163  L 30.9217391304349 45.8093567251461  L 29.2521739130437 47.0491228070177  L 27.1652173913043 46.3052631578945  L 24.104347826087 47.9169590643275  L 24.6608695652175 52.1321637426898  L 24.104347826087 52.7520467836256  L 22.4347826086955 51.26432748538  L 20.9043478260868 50.6444444444447  L 19.6521739130434 47.9169590643275  L 15.0608695652176 46.3052631578945  C 15.0608695652176 46.3052631578945  14.6898550724639 44.6522417153998  14.5043478260872 43.8257309941522  C 14.6898550724639 42.8752436647171  15.0608695652176 40.974269005848  15.0608695652176 40.974269005848  L 14.5043478260872 37.2549707602341  L 12 35.2713450292397  L 12 29.5684210526314  L 10.0521739130436 28.0807017543858  L 8.52173913043463 25.1052631578947  L 2.53913043478274 24.4853801169589  L 0.452173913043728 23.4935672514621  L 9.07826086956536 22.6257309941519  L 11.304347826087 20.642105263158  Z " fill-rule="nonzero" fill="#3497dc" stroke="none" transform="matrix(1 0 0 1 393 533 )" />
  </g>
</svg>