<?xml version="1.0" encoding="utf-8"?>
<svg version="1.1" xmlns:xlink="http://www.w3.org/1999/xlink" width="60px" height="67px" xmlns="http://www.w3.org/2000/svg">
  <g transform="matrix(1 0 0 1 -519 -590 )">
    <path d="M 9.72413793103466 15.1228571428573  L 9.72413793103466 13.3361904761906  L 8.06896551724162 8.48666666666657  L 11.2413793103449 9.12476190476184  L 14.9655172413794 13.3361904761906  L 16.4827586206899 12.6980952380953  L 19.6551724137931 6.57238095238075  L 17.3103448275863 4.02000000000011  L 15.5172413793102 0.574285714285781  L 16.4827586206899 0.0638095238094914  L 19.6551724137931 4.02000000000011  L 22.6896551724138 6.57238095238075  L 33.5862068965516 10.0180952380952  L 35.9310344827589 12.6980952380953  L 37.7241379310345 17.8028571428574  L 38.6896551724137 19.0790476190475  C 38.6896551724137 19.0790476190475  41.0320602091313 21.5844852578947  44.2068965517239 21.7590476190476  C 46.5093278834529 21.8856424435642  48.0480007585211 20.7461680664654  49.448275862069 19.9723809523813  C 50.5641755127983 19.3557387167531  51.7931034482755 19.0790476190475  51.7931034482755 19.0790476190475  L 50.6896551724137 23.1628571428572  L 45.862068965517 23.1628571428572  L 45.862068965517 26.225714285714  L 42.1379310344828 31.9685714285714  L 43.1034482758621 34.6485714285715  L 49.448275862069 38.221904761905  L 50.1379310344828 40.0085714285717  L 53.310344827586 41.4123809523809  L 55.6551724137934 40.0085714285717  C 55.6551724137934 40.0085714285717  57.310344827586 40.9444444444445  58.1379310344823 41.4123809523809  C 58.6436781609192 42.220634920635  59.6551724137929 43.8371428571428  59.6551724137929 43.8371428571428  L 56.2068965517238 48.1761904761906  L 58.1379310344823 51.6219047619046  L 57.0344827586206 53.0257142857142  L 50.1379310344828 50.9838095238098  L 53.310344827586 56.5990476190476  L 51.7931034482755 60.044761904762  L 49.448275862069 62.9799999999999  L 45.2848953247097 65.6169049495832  L 43.1034482758621 64.1285714285713  L 38.6896551724137 64.1285714285713  L 34.4137931034484 60.8104761904764  L 31.3793103448277 62.9799999999999  L 29.0344827586207 65.5323809523809  L 26.4137931034484 66.8085714285714  L 30.6896551724138 59.1514285714283  L 20.4827586206899 64.7666666666666  L 19.6551724137931 64.1285714285713  L 20.4827586206899 62.9799999999999  L 14.9655172413794 51.6219047619046  L 17.3103448275863 48.1761904761906  L 15.5172413793102 46.1342857142857  C 15.5172413793102 46.1342857142857  12.4170556327019 45.7939682539684  10.8669627593971 45.6238095238095  C 10.486021149943 45.0282539682541  9.72413793103466 43.8371428571428  9.72413793103466 43.8371428571428  L 10.8669627593971 40.9019047619046  L 11.2413793103449 40.0085714285717  L 12.6206896551724 39.4980952380951  C 12.6206896551724 39.4980952380951  13.8160919540231 38.6473015873015  14.4137931034485 38.221904761905  C 14.4102255710421 37.2860317460318  14.4030905062294 35.4142857142858  14.4030905062294 35.4142857142858  L 14.4137931034485 31.9685714285714  L 14.4030905062294 31.9603911432398  L 11.2413793103449 29.5438095238094  C 11.2413793103449 29.5438095238094  10.9917682763798 29.5077236429323  10.8669627593971 29.4896807024931  C 9.52050390856369 29.2950252302336  6.82758620689651 28.9057142857141  6.82758620689651 28.9057142857141  L 0.482758620689647 22.3971428571429  C 0.482758620689647 22.3971428571429  4.62068965517255 23.6733333333334  5.44827586206885 22.3971428571429  C 6.27586206896559 21.1209523809523  5.44827586206885 16.5266666666669  5.44827586206885 16.5266666666669  L 9.72413793103466 15.1228571428573  Z " fill-rule="nonzero" fill="#169bd5" stroke="none" transform="matrix(1 0 0 1 519 590 )" />
  </g>
</svg>