<?xml version="1.0" encoding="utf-8"?>
<svg version="1.1" xmlns:xlink="http://www.w3.org/1999/xlink" width="83px" height="50px" xmlns="http://www.w3.org/2000/svg">
  <g transform="matrix(1 0 0 1 -517 -540 )">
    <path d="M 9.47839506172806 15.1178918169206  L 15.3337742504408 8.87656033287092  L 19.4325396825396 5.13176144244119  L 22.6529982363319 4.29958391123444  L 24.1168890973577 2.63519611541634  L 27.6300705467372 0.138696255201154  C 27.6300705467372 0.138696255201154  28.5083217021914 1.34073046694407  28.9474472799185 1.94174757281571  C 29.0938596210624 3.42117429496094  29.3866843033511 6.3800277392513  29.3866843033511 6.3800277392513  L 32.460758377425 0.832177531206657  L 39.9263668430336 0.832177531206657  L 40.9510582010582 9.43134535367562  C 40.9510582010582 9.43134535367562  41.2438271604941 11.6504854368933  43.439594356261 12.2052704576975  C 45.6353615520288 12.7600554785018  51.7835097001762 11.6504854368933  51.7835097001762 11.6504854368933  L 51.7835097001762 8.04438280166426  L 60.1274250440918 0.832177531206657  C 60.1274250440918 0.832177531206657  64.3237801293357 2.03421174294949  66.4219576719576 2.63522884882113  C 69.2520576131689 2.96139962393154  74.9122574955912 3.61374117415139  74.9122574955912 3.61374117415139  L 76.0833333333332 1.94174757281571  L 76.9632710406575 3.61374117415139  L 82.5242504409169 2.63522884882113  L 80.7676366843035 6.3800277392513  L 81.792328042328 8.87656033287092  L 80.7676366843035 9.43134535367562  L 77.2544091710761 8.04438280166426  L 65.6900352733686 16.0887656033285  L 63.0551146384482 16.0887656033285  L 63.0551146384482 17.6144244105406  L 64.226190476191 17.6144244105406  L 64.226190476191 19.1400832177532  L 61.5912698412698 20.5270457697641  L 61.5912698412698 22.8848821081829  C 61.5912698412698 22.8848821081829  57.492504409171 21.9140083217756  56.4678130511465 22.8848821081829  C 55.4431216931219 23.8557558945907  57.3461199294534 28.1553398058253  57.3461199294534 28.1553398058253  C 57.3461199294534 28.1553398058253  56.2238389182835 30.6056403143783  55.4431216931216 31.6227461858531  C 54.3696355085245 31.8539066111881  51.7835097001762 32.3162274618581  51.7835097001762 32.3162274618581  L 49.8805114638448 39.6671289875173  L 47.8311287477954 39.1123439667131  L 44.9034391534394 40.6380027739251  L 43.439594356261 42.3023578363385  L 42.1221340388006 44.9375866851597  L 40.9510582010582 45.9084604715671  L 39.9263668430336 48.2662968099858  C 39.9263668430336 48.2662968099858  38.3987319073577 46.2009773619789  36.1203703703703 45.9084604715671  C 34.1952025461726 45.6612898200648  32.460758377425 47.0180305131761  32.460758377425 47.0180305131761  L 28.9474472799185 48.2662968099858  L 24.7023809523809 48.2662968099858  C 24.7023809523809 48.2662968099858  23.2364346025964 48.1352803113497  22.6529982363319 47.0180305131761  C 22.033237464045 45.831221397752  22.6529982363319 44.1054091539526  22.6529982363319 44.1054091539526  L 18.2614638447971 42.3023578363385  C 18.2614638447971 42.3023578363385  16.7000293944741 45.4461396208971  15.9193121693122 47.0180305131761  C 14.8946208112873 47.8964401294501  12.8452380952383 49.6532593619973  12.8452380952383 49.6532593619973  L 6.11155202821863 48.2662968099858  L 4.20855379188719 47.0180305131761  L 3.03747795414469 44.9375866851597  L 0.256172839505887 43.2732316227463  L 0.256172839505887 41.608876560333  L 6.84347442680802 38.002773925104  L 6.11155202821863 34.2579750346743  L 4.20855379188719 30.3744798890429  L 4.20855379188719 27.4618585298198  L 3.03747795414469 23.994452149792  L 9.47839506172806 15.1178918169206  Z " fill-rule="nonzero" fill="#169bd5" stroke="none" transform="matrix(1 0 0 1 517 540 )" />
  </g>
</svg>