<?xml version="1.0" encoding="utf-8"?>
<svg version="1.1" xmlns:xlink="http://www.w3.org/1999/xlink" width="41px" height="83px" xmlns="http://www.w3.org/2000/svg">
  <g transform="matrix(1 0 0 1 -464 -510 )">
    <path d="M 4.53928571428572 29.3414043583533  C 5.13403567711643 26.9408238492562  3.66071428571453 24.6521388216302  3.66071428571453 24.6521388216302  L 7.61428571428597 21.034705407587  L 7.02857142857125 18.3551251008879  L 8.93214285714258 16.7473769168684  L 12.1535714285712 15.9435028248584  C 12.1535714285712 15.9435028248584  13.9107142857145 14.3357546408394  14.7892857142857 13.5318805488298  C 15.7654761904762 12.6386871132637  17.7178571428571 10.8523002421311  17.7178571428571 10.8523002421311  L 17.7178571428571 8.30669895076679  L 18.3035714285714 8.30669895076679  L 21.3785714285716 7.63680387409207  L 22.9892251746376 6.8498693334028  L 22.9892251746376 5.49313962873277  L 25.2382452541639 4.62081302576243  L 29.7250000000003 5.49313962873277  L 33.0928571428571 4.15831942270929  L 36.4607142857143 0.267958030669724  L 37.9250000000002 0.937853107344791  L 38.8035714285714 3.215496368039  L 38.1726948388481 4.15831942270929  L 33.8249999999998 5.49313962873277  L 34.4107142857141 9.78046811945102  L 40.8535714285715 11.5221953188058  L 41 15.407586763519  L 39.6821428571426 19.4269572235675  C 39.6821428571426 19.4269572235675  37.534523809524 19.4269572235675  36.4607142857143 19.4269572235675  C 35.9726190476192 19.9628732849069  34.9964285714288 21.034705407587  34.9964285714288 21.034705407587  L 34.4107142857141 23.8482647296207  C 34.4107142857141 23.8482647296207  33.5321428571429 26.7064837234329  33.0928571428571 28.1355932203393  C 33.5321428571429 29.520043045467  34.4107142857141 32.2889426957223  34.4107142857141 32.2889426957223  L 39.6821428571426 34.8345439870861  L 40.8535714285715 37.9160613397903  L 34.4107142857141 51.0460048426151  L 33.8249999999998 53.0556900726395  L 37.1928571428574 56.5391444713478  L 37.1928571428574 58.5488297013723  L 35.875 61.2284100080711  L 36.4607142857143 63.1041162227603  L 35.875 64.5778853914445  L 36.4607142857143 66.4535916061337  L 34.4107142857141 67.7933817594835  L 34.4107142857141 71.1428571428574  L 28.6999999999998 73.0185633575466  L 21.3785714285716 72.4826472962067  L 17.7178571428571 75.0282485875706  L 5.71071428571428 79.583535108959  L 2.92857142857139 82.7990314769975  L 0.292857142857363 82.1291364003228  L 0 76.9039548022597  L 2.92857142857139 64.5778853914445  C 2.92857142857139 64.5778853914445  0.856864188761971 61.4374341637914  0.292857142857363 57.2090395480225  C -0.371660825766926 52.2271085224873  1.02500000000005 48.0984665052462  1.02500000000005 48.0984665052462  L 4.53928571428572 45.5528652138824  C 4.53928571428572 45.5528652138824  3.95357142857144 41.4441754102768  3.66071428571453 39.9257465698143  C 2.78214285714289 38.7199354317998  1.02500000000005 37.3801452784508  1.02500000000005 37.3801452784508  L 0.292857142857363 34.8345439870861  C 0.292857142857363 34.8345439870861  3.69818225062917 32.7363378718873  4.53928571428572 29.3414043583533  Z " fill-rule="nonzero" fill="#169bd5" stroke="none" transform="matrix(1 0 0 1 464 510 )" />
  </g>
</svg>