<?xml version="1.0" encoding="utf-8"?>
<svg version="1.1" xmlns:xlink="http://www.w3.org/1999/xlink" width="97px" height="69px" xmlns="http://www.w3.org/2000/svg">
  <g transform="matrix(1 0 0 1 -466 -711 )">
    <path d="M 22.8899470899472 23.1543624161076  L 25.490299823633 20.6845637583892  L 28.364373897707 16.2389261744962  L 27.5432098765433 13.8926174496647  L 27.5432098765433 11.0523489932886  L 29.7329805996474 9.07651006711397  C 29.7329805996474 9.07651006711397  28.7489757511399 6.20092191994505  29.7329805996474 5.61879194630875  C 30.6143633156969 5.09737246546389  32.8807760141095 6.85369127516787  32.8807760141095 6.85369127516787  C 32.8807760141095 6.85369127516787  36.9865961199297 10.1879194630872  39.7238095238097 8.58255033557035  C 42.4610229276898 6.97718120805338  37.8077601410934 3.02550335570489  37.8077601410934 1.79060402684576  C 37.8077601410934 0.555704697986634  39.7238095238097 0.06174496644293  39.7238095238097 0.06174496644293  L 41.6398589065257 0.06174496644293  L 48.8934744268079 2.65503355704678  L 51.3569664902998 1.04966442953025  L 53.957319223986 4.50738255033548  L 60.2529100529102 1.79060402684576  L 60.2529100529102 3.14899328859084  L 56.0102292768958 7.84161073825519  L 54.6416225749562 9.81744966442948  L 56.9682539682543 13.398657718121  L 60.2529100529102 11.6697986577178  L 62.1689594356258 11.0523489932886  L 70.3805996472664 8.58255033557035  L 73.9389770723106 10.558389261745  L 76.9499118165784 9.81744966442948  L 76.9499118165784 7.34765100671158  L 85.2984126984129 7.34765100671158  L 88.1724867724869 9.81744966442948  L 90.0885361552029 15.3744966442949  L 94.604938271605 19.2026845637586  L 96.7947089947088 19.8201342281878  L 96.8739664639485 21.6600029798652  L 93.6469135802471 21.6600029798652  L 92.5520282186947 23.1543624161076  C 92.5520282186947 23.1543624161076  90.1797766019989 23.8129753914988  88.9936507936506 24.1422818791949  C 88.4918283362725 25.2125279642056  87.4881834215167 27.3530201342282  87.4881834215167 27.3530201342282  L 80.5082892416226 32.2926174496645  L 79.2765432098765 32.2926174496645  C 79.2765432098765 32.2926174496645  77.2017713416 30.4377176942835  75.8550264550262 30.9342281879198  C 73.9963107842196 31.6194892529081  73.9389770723106 35.2563758389261  73.9389770723106 35.2563758389261  C 73.9389770723106 35.2563758389261  71.5667254556144 33.2805369127518  70.3805996472664 32.2926174496645  C 69.5594356261024 32.4572706935125  67.9171075837746 32.7865771812082  67.9171075837746 32.7865771812082  L 65.8641975308643 32.7865771812082  L 65.8641975308643 35.2563758389261  L 64.7693121693124 35.2563758389261  L 63.2638447971781 33.8979865771813  L 59.705467372134 35.2563758389261  L 61.3847509929288 36.834844347835  L 60.2529100529102 38.7140939597316  L 54.6416225749562 39.7020134228186  L 49.8514991181659 32.2926174496645  L 46.7037037037038 32.2926174496645  L 47.5248677248679 43.0362416107383  C 47.5248677248679 43.0362416107383  46.977425044092 43.69485458613  46.7037037037038 44.0241610738257  C 46.2018812463257 44.0241610738257  45.1982363315695 44.0241610738257  45.1982363315695 44.0241610738257  L 41.6398589065257 40.8134228187918  L 40.7344282747761 45.407914873913  L 36.8441355265381 46.6138823584767  L 35.6179894179892 48.7167785234896  L 28.364373897707 48.7167785234896  L 28.364373897707 50.9395973154365  L 27.6587172621361 50.5302793603885  L 26.4483245149914 48.7167785234896  L 24.532275132275 48.7167785234896  L 22.8899470899472 50.9395973154365  L 12.351675485009 55.7557046979864  L 6.32980599647248 55.7557046979864  L 6.87724867724847 59.5838926174497  L 4.41375661375651 59.5838926174497  L 4.41375661375651 62.4241610738254  L 10.025044091711 66.6228187919461  L 8.24585537918845 68.9691275167785  L 3.45573192239896 68.9691275167785  L 3.45573192239896 67.8577181208057  L 1.26596119929482 65.387919463087  L 1.17681260745401 63.7805732203998  L 0.307936507936473 61.1892617449663  L 0.307936507936473 56.373154362416  L 1.17681260745401 52.421476510067  L 2.90828924162226 48.7167785234896  L 7.42005366928067 48.7167785234896  L 7.42005366928067 45.5226224899212  L 11.2567901234571 45.5226224899212  L 11.8042328042327 42.4187919463091  L 11.2567901234571 39.7020134228186  L 19.6052910052912 34.5154362416109  L 19.6052910052912 30.3167785234903  L 22.8899470899472 23.1543624161076  Z " fill-rule="nonzero" fill="#169bd5" stroke="none" transform="matrix(1 0 0 1 466 711 )" />
  </g>
</svg>