<?xml version="1.0" encoding="utf-8"?>
<svg version="1.1" xmlns:xlink="http://www.w3.org/1999/xlink" width="95px" height="68px" xmlns="http://www.w3.org/2000/svg">
  <g transform="matrix(1 0 0 1 -398 -702 )">
    <path d="M 0 25.5424575424576  L 0.580595874713987 24.1838161838162  L 6.8220015278838 22.4175824175821  L 10.7410236822002 22.9610389610392  L 13.2085561497326 24.1838161838162  L 19.3048128342247 24.1838161838162  L 21.3368983957217 21.7382617382614  C 21.3368983957217 21.7382617382614  23.0786860198624 21.1948051948052  23.9495798319327 20.9230769230771  C 24.6269416857654 20.2890442890443  25.9816653934303 19.020979020979  25.9816653934303 19.020979020979  L 29.4652406417113 17.7982017982021  L 32.0779220779219 14.5374625374625  L 34.1397425556155 15.1248327647287  L 36.2872421695954 17.7982017982021  L 39.4805194805192 17.118881118881  C 39.4805194805192 17.118881118881  41.2223071046603 17.9340659340661  42.0932009167303 18.3416583416583  C 43.2060096765982 18.3416583416583  45.4316271963327 18.3416583416583  45.4316271963327 18.3416583416583  C 45.4316271963327 18.3416583416583  45.1849607664795 16.0601606401861  46.7379679144384 15.1248327647287  C 48.7050009926881 13.9401499559915  52.1084797555383 15.1248327647287  52.1084797555383 15.1248327647287  C 52.1084797555383 15.1248327647287  50.8960029285984 13.3785557469046  51.5278838808251 12.0919080919083  C 52.0774131209262 10.9729465127749  53.9954163483576 10.7332667332669  53.9954163483576 10.7332667332669  L 56.6080977845686 8.96703296703284  L 60.0916730328496 8.96703296703284  L 61.1077158135981 7.20079920079923  L 62.1237585943467 6.11388611388598  L 64.7364400305577 8.42357642357666  C 64.7364400305577 8.42357642357666  66.7773692907347 5.73895155500004  69.2360580595872 5.43456543456527  C 70.7492516858413 5.24723178616026  71.7035905271201 6.6573426573426  71.7035905271201 6.6573426573426  C 71.7035905271201 6.6573426573426  73.6389101094985 5.84215784215789  74.6065699006875 5.43456543456527  C 75.2355487649606 4.52880452880473  76.4935064935064 2.71728271728285  76.4935064935064 2.71728271728285  L 77.0893129241056 2.47827095310482  L 77.0893129241056 1.63036963036996  C 77.0893129241056 1.63036963036996  78.966109146334 2.47827095310482  80.1222307104664 2.47827095310482  C 80.7995925642982 2.02539050022429  82.5897631779984 0.27172827172809  82.5897631779984 0.27172827172809  L 83.4606569900692 1.63036963036996  L 83.4606569900692 5.43456543456527  L 85.2024446142095 6.6573426573426  L 84.6218487394955 9.51048951048955  L 82.5897631779984 13.7222777222774  L 81.2834224598931 15.1248327647287  L 80.1222307104664 16.0319680319681  L 79.5416348357528 18.3416583416583  C 79.5416348357528 18.3416583416583  79.5416348357525 20.1078921078923  80.1222307104664 20.9230769230771  C 80.7028265851796 21.7382617382614  84.6218487394955 17.7982017982021  84.6218487394955 17.7982017982021  L 85.2024446142095 18.3416583416583  L 85.2024446142095 21.7382617382614  C 85.2024446142095 21.7382617382614  87.7183600713011 22.5534465534466  88.9763177998473 22.9610389610392  C 90.6213394448693 22.5534465534466  93.9113827349122 21.7382617382614  93.9113827349122 21.7382617382614  L 94.7822765469825 26.2217782217779  L 92.750190985485 30.2977022977021  L 90.4278074866312 32.4715284715283  L 86.653934300993 40.2157842157842  L 86.653934300993 44.9710289710292  L 78.8158899923607 48.6393606393605  L 77.3644003055768 51.0849150849151  L 78.8158899923607 53.6663336663339  L 78.2352941176471 55.0249750249753  L 75.1871657754011 54.4815184815187  L 74.6065699006875 58.0139860139863  L 70.3972498090144 58.5574425574425  L 67.6394194041252 64.2637362637367  L 65.7524828113062 61.6823176823179  L 60.0916730328496 67.932067932068  L 59.0756302521006 66.0299700299703  L 55.5565732150799 65.6154993285132  L 52.1084797555383 59.6443556443554  L 51.5278838808251 64.2637362637367  L 48.4695067593323 63.6903071785893  L 46.7379679144384 65.6154993285132  L 40.6417112299464 61.6823176823179  L 37.1581359816654 63.4485514485515  L 28.1588999236055 58.5574425574425  C 28.1588999236055 58.5574425574425  26.0797134058499 55.6712688270102  26.9977081741788 53.1228771228773  C 27.5079136374021 51.7065255109309  29.4652406417113 51.0849150849151  29.4652406417113 51.0849150849151  L 28.8846447669977 47.2807192807194  L 22.9335370511842 47.2807192807194  L 19.8854087089382 45.6503496503499  L 13.2085561497326 44.9710289710292  C 13.2085561497326 44.9710289710292  13.6032275541339 43.6880419795573  14.5148968678379 43.0689310689311  C 15.7391295346142 42.2375596607315  17.7241101138049 41.8511193634895  19.3048128342247 40.2157842157842  C 22.0626432391139 37.3626373626373  19.3048128342247 31.3846153846154  19.3048128342247 31.3846153846154  L 13.2085561497326 33.4225774225776  L 8.41864018334628 33.4225774225776  L 8.41864018334628 28.1238761238759  L 4.49961802902989 26.9010989010986  L 1.16119174942709 28.1238761238759  L 0.580595874713987 27.4445554445552  L 0 25.5424575424576  Z " fill-rule="nonzero" fill="#169bd5" stroke="none" transform="matrix(1 0 0 1 398 702 )" />
  </g>
</svg>