<?xml version="1.0" encoding="utf-8"?>
<svg version="1.1" xmlns:xlink="http://www.w3.org/1999/xlink" width="246px" height="173px" xmlns="http://www.w3.org/2000/svg">
  <g transform="matrix(1 0 0 1 -64 -392 )">
    <path d="M 92.9503105590063 44.5463215258855  L 89.2347847254408 38.8888170172958  L 93.9689440993785 37.7327864030438  L 103.254438123979 38.8888170172958  L 107.975155279503 39.8324250681201  L 113.068322981366 41.9536784741145  L 116.764285944388 39.8324250681201  L 114.596273291925 33.2329700272479  L 127.725105874154 18.8663932015221  C 127.725105874154 18.8663932015221  140.531242953156 28.7200089324159  148.1173289993 24.9979709920165  C 153.563136748359 22.3260393879165  152.705579202458 14.6214547311793  154.234995936844 11.7914957509514  C 155.76441267123 8.96153677072309  165.450718655674 6.60323762053255  165.450718655674 6.60323762053255  L 168.509552124446 0.943319660075959  L 175.137024640118 0  L 177.176246952633 8.01821711064669  L 181.254691577662 10.848176090875  L 183.293913890176 16.0364342212938  L 194.509636609007 20.2813726916363  L 199.607692390293 37.7327864030438  L 193.999831030878 50.4676018140716  L 196.039053343393 58.4858189247187  C 196.039053343393 58.4858189247187  218.470498781053 56.1275197745283  228.666610343626 68.3906753555173  C 232.442947959394 72.9325848299576  237.078402382749 72.399783910841  237.078402382749 72.399783910841  L 238.35291632807 77.3522121262405  L 242.412065058744 80.1821711064688  L 246 91.5020070273815  L 244.980388843743 99.5202241380291  L 244.470583265614 102.821842948295  L 239.117624695264 102.821842948295  L 236.313694015556 105.180142098485  L 230.705832656141 104.236822438409  L 227.646999187369 106.595121588599  L 223.568554562339 108.010101078714  L 219.490109937311 112.255039549056  L 216.941082046667 116.499978019399  L 214.392054156024 118.858277169589  L 207.254776062223 118.858277169589  L 205.725359327837 123.574875469969  L 205.725359327837 128.763133600388  L 205.215553749708 132.536412240692  L 207.254776062223 134.894711390882  L 201.646914702808 136.781350711035  L 197.05866449965 137.724670371111  L 193.49002545275 137.724670371111  L 189.921386405849 138.667990031188  L 186.352747358948 139.611309691264  L 179.725274843276 139.611309691264  L 175.137024640118 141.497949011415  L 173.607607905732 145.742887481758  L 174.62721906199 150.931145612177  L 181.254691577662 156.591063572633  L 182.019399944855 160.128512297919  L 177.176246952633 164.756693617673  L 179.725274843276 169.797538813699  L 177.940955319826 172.155837963889  L 173.607607905732 172.155837963889  L 168.509552124446 169.797538813699  L 162.391885186902 169.797538813699  L 156.784023827487 166.024260173394  L 149.391842944621 164.756693617673  L 146.842815053978 163.194301193166  L 142.254564850821 162.486811448109  L 136.90160628047 164.756693617673  L 127.215300296025 164.756693617673  L 123.136855670996 166.96757983347  L 116.764285944388 169.325878983661  L 107.332882749008 168.146729408566  L 103.254438123979 169.797538813699  L 98.6661879208212 169.797538813699  L 94.587743295792 168.146729408566  L 91.5289098270202 168.146729408566  L 89.2347847254408 166.96757983347  L 86.9406596238618 163.901790938223  C 86.9406596238618 163.901790938223  85.156340100412 160.128512297919  82.0975066316398 163.901790938223  C 79.0386731628683 167.675069578528  62.2150890846231 164.756693617673  62.2150890846231 164.756693617673  C 62.2150890846231 164.756693617673  57.6268388814652 161.779321703052  55.8425193580146 162.015151618071  C 54.7950610177922 162.153592075687  54.3131026236284 164.845110598299  52.273880311114 166.024260173394  C 50.2346579985996 167.20340974849  48.9601440532781 173  48.9601440532781 173  L 40.0385464360268 172.155837963889  L 36.4699073891262 171.684178133851  L 33.4110739203544 168.854219153623  L 32.6463655531612 155.883573827576  L 18.3718093655591 149.9878259521  L 22.1953512015241 146.450377226815  L 13.0188507952083 145.742887481758  L 12.2541424280154 141.497949011415  L 14.2933647405299 134.894711390882  L 7.66589222485751 128.763133600388  L 5.37176712327894 129.631884589073  L 0.273711341992311 125.860744118558  L 7.66589222485751 125.153655280336  L 10.4698229045652 114.547322707011  L 9.45021174830777 105.826560368945  L 5.37176712327894 102.291116177836  L 1.80312807637802 105.826560368945  L 0 102.998494104641  L 1.03841970918516 100.405545942578  L 2.56783644357128 97.1057980308772  L 1.03841970918516 92.8632650015475  L 6.39137827953595 87.4422505751818  C 6.39137827953595 87.4422505751818  8.59047826162156 84.6750137340081  11.7443368498867 84.3781989428879  C 15.8246187628941 83.9941969371455  19.3914205218165 86.9708580163671  19.3914205218165 86.9708580163671  L 23.2149623577811 86.0280728987383  L 23.2149623577811 84.3781989428879  L 27.2934069828108 83.9068063840737  L 27.2934069828108 89.3283378746596  L 34.3788819875775 88.6212534059948  L 39.217391304348 83.9068063840737  L 44.8198757763978 82.2574931880112  L 48.3850931677019 83.2002724795639  L 51.6956521739131 80.8433242506812  L 62.2150890846231 82.2574931880112  L 66.9751552795031 78.7220708446865  L 76.9068322981367 78.7220708446865  C 76.9068322981367 78.7220708446865  81.1186365058098 75.5794732061762  83.0186335403727 74.0081743869211  C 84.3443093836562 71.808356039964  86.0745341614906 67.4087193460489  86.0745341614906 67.4087193460489  L 88.6211180124225 69.5299727520436  L 91.5289098270202 59.1594005449591  L 90.9681654870517 54.2047383196195  L 92.9503105590063 44.5463215258855  Z " fill-rule="nonzero" fill="#3497dc" stroke="none" transform="matrix(1 0 0 1 64 392 )" />
  </g>
</svg>