<?xml version="1.0" encoding="utf-8"?>
<svg version="1.1" xmlns:xlink="http://www.w3.org/1999/xlink" width="73px" height="51px" xmlns="http://www.w3.org/2000/svg">
  <g transform="matrix(1 0 0 1 -534 -580 )">
    <path d="M 0.310638297872254 6.76880733944961  L 1.96737588652493 3.15045871559608  L 3.82985580227338 4.02385321100939  L 3.82985580227338 4.86423201657175  C 3.82985580227338 4.86423201657175  3.82985580227338 6.63303146729796  3.82985580227338 7.51743119266053  C 4.68168479804802 8.0581039755351  6.79952718676149 9.13944954128476  6.79952718676149 9.13944954128476  L 11.7697399527185 9.13944954128476  L 15.3593380614655 8.01651376146799  C 15.3593380614655 8.01651376146799  16.1877068557921 6.51926605504588  18.6728132387703 6.76880733944961  C 21.1579196217495 7.01834862385298  21.0198581560286 7.51743119266053  21.0198581560286 7.51743119266053  L 23.3669030732861 9.13944954128476  L 24.7475177304965 8.01651376146799  L 25.7139479905435 5.02201834862369  L 27.3706855791961 4.02385321100939  L 28.7513002364066 1.5284403669722  L 31.2364066193853 0.40550458715586  L 32.7550827423171 0.40550458715586  L 32.2028368794327 3.15045871559608  L 35.3782505910167 4.02385321100939  L 37.3111111111111 5.02201834862369  C 37.3111111111111 5.02201834862369  38.2100993322337 6.73122650131256  40.0723404255319 7.51743119266053  C 43.046829750737 8.77320708025  46.285106382979 8.01651376146799  46.285106382979 8.01651376146799  C 46.285106382979 8.01651376146799  47.8498029944838 11.3437308868503  48.6321513002368 13.0073394495412  C 49.414499605989 13.7559633027526  50.9791962174943 15.2532110091743  50.9791962174943 15.2532110091743  L 53.464302600473 18.7467889908254  L 56.2255319148939 25.6091743119267  L 56.7777777777778 29.6018348623853  L 60.3673758865248 30.1009174311928  L 67.2704491725766 33.844036697248  L 69.6174940898346 34.4678899082568  L 70.1697399527189 36.8385321100915  C 70.1697399527189 36.8385321100915  71.4583136327815 38.3357798165137  72.1026004728129 39.084403669725  C 72.286682427108 39.9162079510705  72.6548463356972 41.5798165137615  72.6548463356972 41.5798165137615  C 72.6548463356972 41.5798165137615  67.6309358846895 37.7435506004367  64.3711583924349 39.084403669725  C 63.6092054588535 39.3978198252974  62.6048709114542 39.3077579524312  62.3002364066192 40.0825688073393  C 61.801208760516 41.3518013826492  63.1286052009458 41.4550458715598  62.3002364066192 43.4513761467887  C 62.3002364066192 43.4513761467887  61.0116627265561 45.4061162079509  60.3673758865248 46.5706422018351  C 60.5974783293935 47.1113149847093  61.0576832151301 48.6917431192661  61.0576832151301 48.6917431192661  C 61.0576832151301 48.6917431192661  59.0327817178879 49.8562691131499  58.020330969267 50.4385321100917  C 56.7317572892039 50.6048929663608  54.1546099290782 50.9376146788992  54.1546099290782 50.9376146788992  C 54.1546099290782 50.9376146788992  49.9207249802994 49.9394495412845  47.8037825059103 49.4403669724774  C 47.1134751773047 49.7730886850153  45.7328605200947 50.4385321100917  45.7328605200947 50.4385321100917  L 42.2813238770685 46.5706422018351  L 40.0723404255319 45.6972477064221  L 38.6917257683215 45.6972477064221  L 37.3111111111111 46.5706422018351  L 35.3782505910167 46.5706422018351  L 34.6879432624114 44.3247706422021  L 32.7550827423171 43.4513761467887  L 28.1990543735226 40.5816513761469  L 28.1990543735226 39.5834862385322  L 30.4080378250588 36.8385321100915  L 32.2028368794327 32.5963302752292  L 36.0685579196219 32.0972477064221  L 38.1394799054372 25.6091743119267  L 35.3782505910167 24.7357798165141  L 28.7513002364066 28.6036697247706  L 24.7475177304965 26.8568807339451  L 23.9191489361704 25.6091743119267  L 21.0198581560286 18.7467889908254  L 18.6728132387703 16.7504587155965  L 7.6278959810872 13.7559633027522  L 1.96737588652493 7.51743119266053  L 0.310638297872254 6.76880733944961  Z " fill-rule="nonzero" fill="#3497dc" stroke="none" transform="matrix(1 0 0 1 534 580 )" />
  </g>
</svg>