<?xml version="1.0" encoding="utf-8"?>
<svg version="1.1" xmlns:xlink="http://www.w3.org/1999/xlink" width="58px" height="73px" xmlns="http://www.w3.org/2000/svg">
  <g transform="matrix(1 0 0 1 -511 -649 )">
    <path d="M 1.54666666666649 13.8099567099564  L 7.06086956521717 9.89134199134199  L 12.3060869565217 9.89134199134199  L 14.7269565217392 7.36320346320349  L 16.5218508698555 6.7188694263417  L 20.3756521739129 5.97272727272723  L 24.673558529618 4.23019255544019  L 28.7142028985509 4.23019255544019  L 34.0939130434784 0.410822510822528  L 32.8834782608697 4.58225108225096  C 32.8834782608697 4.58225108225096  32.9531856492478 5.31220901957597  34.0452577774652 5.97272727272723  C 35.1373299056826 6.63324552587892  35.041402315762 5.80926533603264  35.8423188405795 5.46709956709944  C 37.3217391304349 4.83506493506508  39.4736231884057 2.18051948051948  39.4736231884057 2.18051948051948  L 40.0115942028985 0.410822510822528  L 41.7488941250724 0.102540078954447  L 44.9878260869564 2.68614718614727  L 50.0985507246378 3.31818181818171  L 52.7884057971014 4.58225108225096  C 52.7884057971014 4.58225108225096  51.3089855072465 7.11038961038946  51.7124637681158 8.24805194805161  C 52.1159420289855 9.38571428571464  57.6301449275363 16.9701298701297  57.6301449275363 16.9701298701297  L 56.2852173913045 18.7398268398266  L 56.2852173913045 21.0151515151515  L 54.1333333333332 22.026406926407  L 51.7124637681158 24.4281385281384  L 49.560579710145 24.4281385281384  C 49.560579710145 24.4281385281384  46.121529714126 23.4860261526686  44.180869565217 24.9337662337667  C 40.9071846042117 27.3759480519479  41.7488941250724 33.1502164502165  41.7488941250724 33.1502164502165  L 42.2979710144928 33.908658008658  L 42.2979710144928 34.9199134199136  L 37.8597101449277 38.2064935064935  C 37.8597101449277 38.2064935064935  36.532669524456 39.6727598922115  36.6492753623185 41.3666666666664  C 36.7717033261272 43.1451501549661  38.3976811594205 44.4004329004327  38.3976811594205 44.4004329004327  L 36.6492753623185 47.1813852813856  L 35.3043478260867 48.3190476190474  L 35.3043478260867 50.973593073593  L 32.8834782608697 51.7320346320344  L 34.0452577774652 52.786134123933  L 31.2695652173913 55.0186147186147  L 31.2695652173913 56.9147186147184  L 30.7315942028989 58.9372294372296  L 31.8075362318841 60.4541125541125  L 28.0417391304349 63.108658008658  L 29.3866666666671 66.648051948052  L 28.7142028985509 68.1649350649349  L 29.3866666666671 70.3138528138527  L 28.7142028985509 71.1987012987012  L 24.673558529618 68.1649350649349  L 17.4168115942028 71.1987012987012  L 13.9199999999997 71.1987012987012  L 12.3060869565217 72.8419913419916  L 11.2301449275361 71.1987012987012  L 13.9199999999997 67.6593073593076  C 13.9199999999997 67.6593073593076  17.9547826086955 63.9935064935065  15.6684057971016 62.3502164502166  C 13.3820289855074 60.7069264069265  8.94376811594178 64.3727272727276  8.94376811594178 64.3727272727276  L 6.52289855072479 60.4541125541125  C 6.52289855072479 60.4541125541125  9.09817994470967 57.9932472053279  8.94376811594178 55.0186147186147  C 8.84595233066447 53.134264180693  7.06086956521717 51.7320346320344  7.06086956521717 51.7320346320344  C 7.06086956521717 51.7320346320344  8.6747826086956 50.973593073593  8.0023188405797 49.330303030303  C 7.65001172113447 48.4693751870274  6.16562397760424 47.3506402074946  5.31246376811608 46.2965367965367  C 4.53716035137416 45.3386276406402  4.37101449275355 44.4004329004327  4.37101449275355 44.4004329004327  C 4.37101449275355 44.4004329004327  3.56405797101455 41.1138528138527  3.16057971014528 39.4705627705627  C 3.3847342995168 38.2064935064935  3.60888888888921 36.9424242424243  3.83304347826118 35.678354978355  C 3.3847342995168 35.088455988456  2.93642512077331 34.498556998557  2.48811594202937 33.908658008658  C 1.81565217391347 34.2457431457429  0.470724637681221 34.9199134199136  0.470724637681221 34.9199134199136  L 0.470724637681221 32.3917748917751  L 7.06086956521717 24.9337662337667  L 4.37101449275355 15.3268398268397  L 1.54666666666649 13.8099567099564  Z " fill-rule="nonzero" fill="#502fa1" stroke="none" transform="matrix(1 0 0 1 511 649 )" />
  </g>
</svg>