<?xml version="1.0" encoding="utf-8"?>
<svg version="1.1" xmlns:xlink="http://www.w3.org/1999/xlink" width="68px" height="88px" xmlns="http://www.w3.org/2000/svg">
  <g transform="matrix(1 0 0 1 -498 -481 )">
    <path d="M 0.333696837513243 21.9331306990881  L 4.33805888767711 14.5775075987844  L 8.04580152671765 9.762917933131  L 9.26849724848161 13.6413373860183  L 9.26849724848161 16.851063829787  L 14.4231188658671 18.1884498480243  L 18.5757906215924 12.8389057750759  L 22.1352235550711 14.5775075987844  L 25.6946564885494 12.1702127659575  L 28.5125408942205 12.1702127659575  L 30.143947655398 8.82674772036488  L 30.7371864776446 2.13981762917917  L 34.2292139752568 3.25806492137811  L 36.5212649945478 0.133738601823427  L 38.7459105779719 0.133738601823427  L 39.3391494002185 2.13981762917917  L 40.5256270447108 5.61702127659563  L 43.4918211559434 7.48936170212795  L 45.2715376226828 6.2857142857141  L 45.2715376226828 8.82674772036488  L 44.5299890948747 12.1702127659575  L 47.6444929116687 15.5136778115501  L 54.4667393675028 16.851063829787  L 53.7251908396944 18.1884498480243  L 53.7251908396944 20.19452887538  L 52.2420937840783 21.9331306990881  L 54.4667393675028 24.6079027355622  L 56.2464558342422 24.6079027355622  L 60.6957470010904 25.4103343465046  L 62.9203925845149 27.0151975683887  L 63.5136314067614 29.2887537993922  L 67.9629225736096 30.6261398176295  L 65.145038167939 32.7659574468086  C 65.145038167939 32.7659574468086  64.846993941895 38.4572591295749  60.6957470010904 41.4589665653497  C 57.1357904095395 44.0331203857016  52.2420937840783 42.9300911854104  52.2420937840783 42.9300911854104  C 52.2420937840783 42.9300911854104  48.5837877135588 38.1155015197571  46.7546346782988 35.7082066869302  C 46.5568884042168 34.3262411347517  46.1613958560522 31.5623100303952  46.1613958560522 31.5623100303952  L 44.5299890948747 29.2887537993922  C 44.5299890948747 29.2887537993922  42.6513994910941 29.7345491388045  41.712104689204 29.957446808511  C 41.3166121410395 30.4924012158053  40.5256270447108 31.5623100303952  40.5256270447108 31.5623100303952  L 39.3391494002185 27.6838905775076  L 41.712104689204 25.4103343465046  L 40.5256270447108 23.6717325227961  L 36.5212649945478 23.1367781155015  C 36.5212649945478 23.1367781155015  32.5169029443836 20.729483282675  30.7371864776446 20.729483282675  C 28.9574700109052 20.729483282675  28.0676117775357 20.5957446808512  27.6226826608506 21.9331306990881  C 27.1777535441655 23.270516717325  28.5125408942205 24.6079027355622  28.5125408942205 24.6079027355622  L 27.029443838604 24.6079027355622  L 25.6946564885494 26.079027355623  L 24.8047982551803 26.079027355623  L 22.1352235550711 27.6838905775076  C 22.1352235550711 27.6838905775076  22.1352235550711 29.1995947315099  22.1352235550711 29.957446808511  C 22.5307161032348 30.4924012158053  23.3217011995639 31.5623100303952  23.3217011995639 31.5623100303952  L 21.3936750272627 33.4346504559271  L 18.5757906215924 35.7082066869302  C 18.5757906215924 35.7082066869302  18.5757906215924 37.2239108409321  18.5757906215924 37.9817629179328  C 19.7622682660851 38.5167173252282  22.1352235550711 39.5866261398178  22.1352235550711 39.5866261398178  L 26.287895310796 40.3890577507597  C 26.287895310796 40.3890577507597  28.2653580516174 41.6372847011143  29.2540894220285 42.261398176292  C 30.7371864776446 42.261398176292  33.7033805888767 42.261398176292  33.7033805888767 42.261398176292  C 33.7033805888767 42.261398176292  33.2142834385611 46.7155131026105  35.6314067611779 49.4832826747718  C 37.8376135844667 52.0095385998453  41.712104689204 51.8905775075987  41.712104689204 51.8905775075987  L 44.5299890948747 51.2218844984803  L 43.4918211559434 53.0942249240125  L 45.2715376226828 54.6990881458968  L 48.6826608506 57.3738601823705  L 46.7546346782988 58.3100303951366  L 45.2715376226828 59.3799392097263  L 43.4918211559434 60.7173252279636  L 40.5256270447108 61.3860182370824  C 40.5256270447108 61.3860182370824  37.114503816794 63.3920972644378  30.7371864776446 70.4802431610941  C 24.3598691384952 77.5683890577505  22.1352235550711 80.9118541033432  22.1352235550711 80.9118541033432  L 23.3217011995639 84.7902735562312  L 23.3217011995639 85.5927051671731  L 20.3555070883313 85.5927051671731  L 17.5043829488836 86.5428600896856  L 13.5332606324972 87.8662613981766  L 9.26849724848161 86.5587030925664  L 6.1177753544165 85.5927051671731  C 6.1177753544165 85.5927051671731  4.93129770992366 83.8986828774062  4.33805888767711 83.0516717325227  C 3.69538349691033 82.3383991894628  2.41003271537632 80.9118541033432  2.41003271537632 80.9118541033432  L 3.74482006543091 77.9696048632221  L 9.26849724848161 65.7993920972647  L 7.30425299890961 62.5896656534954  L 2.41003271537632 59.9148936170212  L 1.66848418756828 58.3100303951366  L 3.74482006543091 50.2857142857141  L 7.30425299890961 49.4832826747718  C 7.30425299890961 49.4832826747718  8.61374916529106 47.3434650455926  9.26849724848161 46.273556231003  C 9.26849724848161 44.9361702127661  9.26849724848161 42.261398176292  9.26849724848161 42.261398176292  L 8.63904034896384 39.5866261398178  L 3.00327153762252 37.9817629179328  L 2.41003271537632 35.1732522796351  L 6.1177753544165 34.3708206686932  L 7.30425299890961 32.2310030395137  L 4.93129770992366 28.2188449848026  L 1.66848418756828 25.4103343465046  L 0.333696837513243 21.9331306990881  Z " fill-rule="nonzero" fill="#169bd5" stroke="none" transform="matrix(1 0 0 1 498 481 )" />
  </g>
</svg>