<?xml version="1.0" encoding="utf-8"?>
<svg version="1.1" xmlns:xlink="http://www.w3.org/1999/xlink" width="73px" height="62px" xmlns="http://www.w3.org/2000/svg">
  <g transform="matrix(1 0 0 1 -466 -569 )">
    <path d="M 16.7008281573498 18.3274725274724  L 19.7236024844722 15.8747252747252  L 23.8043478260869 15.8747252747252  L 26.4140096618359 16.5015384615387  L 33.8903381642513 14.375824175824  L 33.8903381642513 10.9692307692308  L 35.8652173913045 9.12512820512828  L 35.8652173913045 6.83585165956113  L 36.9534161490685 4.92820512820513  L 35.8652173913045 2.89333333333317  L 36.9534161490685 0.204395604395538  L 45.1149068322984 2.24835164835171  L 51.1604554865427 0.88571428571426  L 55.955745135691 0.32654410565994  L 57.508281573499 4.15604395604401  L 58.2639751552797 6.88131868131846  L 51.1604554865427 10.9692307692308  L 51.1604554865427 14.375824175824  L 55.0900621118014 15.8747252747252  C 55.0900621118014 15.8747252747252  56.4097936548547 18.0853292246599  59.0196687370604 19.4175824175826  C 62.5315278268818 21.2102680205868  66.2743271221531 21.0527472527469  66.2743271221531 21.0527472527469  L 68.5414078674948 19.9626373626375  L 72.924430641822 25.6857142857141  L 70.2039337474122 30.3186813186813  L 66.2743271221531 26.6395604395605  C 66.2743271221531 26.6395604395605  63.2346777435616 24.7115582575319  62.0424430641823 25.6857142857141  C 60.7964211078154 26.7038190439774  62.0424430641823 30.3186813186813  62.0424430641823 30.3186813186813  L 62.8107621261037 32.4047941375713  C 62.8107621261037 32.4047941375713  59.5370755071103 32.7594361161678  58.2639751552797 34.5428571428574  C 57.378065911901 35.7838819922398  58.2639751552797 37.4043956043957  58.2639751552797 37.4043956043957  L 58.2639751552797 39.4483516483514  C 58.2639751552797 39.4483516483514  54.9993788819875 38.3037362637361  53.7298136645964 39.4483516483514  C 52.9680745341618 40.1351208791208  53.7298136645964 41.901098901099  53.7298136645964 41.901098901099  L 55.955745135691 43.3999999999999  L 59.2897662908958 47.3004487754455  C 59.2897662908958 47.3004487754455  60.117292697379 48.5155342072  60.5310559006213 49.1230769230769  C 61.7905452035887 49.1230769230769  64.309523809524 49.1230769230769  64.309523809524 49.1230769230769  C 64.309523809524 49.1230769230769  66.3771014492752 49.1213943553764  67.1811594202899 50.2131868131871  C 68.2342280141433 51.6430990704774  67.1811594202899 53.8923076923075  67.1811594202899 53.8923076923075  L 67.9368530020705 55.3912087912087  C 67.9368530020705 55.3912087912087  66.2239475500345 56.0271062271065  65.3674948240167 56.3450549450548  C 64.8133195307107 56.935531135531  63.7049689440994 58.1164835164836  63.7049689440994 58.1164835164836  L 63.7049689440994 59.2065934065934  L 62.0424430641823 60.432967032967  L 59.2897662908958 59.2065934065934  C 59.2897662908958 59.2065934065934  57.8049982800333 61.6785503882328  55.955745135691 61.6593406593407  C 53.757046976108 61.6365009547331  52.0672877846794 58.6615384615385  52.0672877846794 58.6615384615385  C 52.0672877846794 58.6615384615385  51.5279143661009 57.692302114631  50.253623188406 57.2989010989011  C 48.9201020064722 56.8872145105826  47.3819875776397 57.2989010989011  47.3819875776397 57.2989010989011  L 42.5455486542447 58.1164835164836  L 42.5455486542447 53.8923076923075  L 41.6387163561075 51.5758241758245  L 36.9534161490685 50.7582417582416  L 29.3964803312629 50.7582417582416  L 19.7236024844722 50.2131868131871  L 16.7008281573498 48.1692307692305  L 12.4689440993787 47.3004487754455  C 12.4689440993787 47.3004487754455  9.28744020926331 45.6949901443143  7.33022774327116 42.5824175824174  C 5.41283296502482 39.5331674469355  7.69832025935411 39.0754851419864  5.5165631469977 36.3142857142859  C 4.02731740714778 34.4295184038955  2.79606625258785 34.6791208791208  1.43581780538337 33.8615384615383  C 0.982401656314736 32.6805860805857  0.0755693581780017 30.3186813186813  0.0755693581780017 30.3186813186813  L 0.0755693581780017 26.6395604395605  L 3.85403726708103 22.9604395604396  L 16.7008281573498 18.3274725274724  Z " fill-rule="nonzero" fill="#169bd5" stroke="none" transform="matrix(1 0 0 1 466 569 )" />
  </g>
</svg>