<?xml version="1.0" encoding="utf-8"?>
<svg version="1.1" xmlns:xlink="http://www.w3.org/1999/xlink" width="46px" height="50px" xmlns="http://www.w3.org/2000/svg">
  <g transform="matrix(1 0 0 1 -566 -629 )">
    <path d="M 0.808791208791139 23.4920634920635  L 5.3953542757455 19.9365079365078  C 5.3953542757455 19.9365079365078  8.75084881920599 17.5514530624936  8.89670329670333 14.3492063492065  C 8.97586329477418 12.6112422633873  7.27912087912079 11.1746031746032  7.27912087912079 11.1746031746032  L 10.2446886446884 11.936507936508  L 14.1538461538462 10.0317460317464  L 12.2666666666668 5.3333333333331  L 15.2322344322348 1.01587301587305  L 17.5238095238095 1.01587301587305  L 23.1853479853477 2.2857142857144  L 30.5992673992674 0  L 33.6996336996341 2.2857142857144  L 29.6556776556773 6.60317460317481  L 20.4893772893772 9.01587301587332  L 29.6556776556773 11.936507936508  L 33.0256410256408 8.5079365079368  L 39.4959706959704 8.5079365079368  L 41.652747252747 11.936507936508  L 43.8206113911224 11.936507936508  L 43.8206113911224 13.0793650793652  L 40.9787545787544 15.7460317460319  L 43.8206113911224 16.3090922484975  L 45.8315018315019 19.9365079365078  L 45.1917760173583 20.9226465432907  L 40.9787545787544 20.9226465432907  C 40.9787545787544 20.9226465432907  38.0131868131872 21.460317460317  39.4959706959704 23.4920634920635  C 40.9787545787549 25.5238095238097  42.8659340659342 24.5079365079366  42.8659340659342 24.5079365079366  L 40.9787545787544 30.8571428571428  L 42.8659340659342 30.8571428571428  L 42.8659340659342 33.2698412698413  L 38.4175824175821 36.3174603174604  L 38.4175824175821 33.2698412698413  L 37.2043956043957 33.2698412698413  L 33.0256410256408 39.7460317460315  L 33.6996336996341 41.2698412698411  L 33.0256410256408 42.6666666666666  L 32.0820512820515 43.4285714285714  L 32.0820512820515 48.761904761905  L 31.2690387740127 49.7999621993838  L 27.7684981684984 47.6190476190473  L 24.9377289377289 46.9841269841266  L 24.9377289377289 48.761904761905  L 22.6461538461538 48.1269841269839  L 21.4329670329669 46.9841269841266  L 19.6805860805861 44.3174603174603  L 16.9846153846156 45.8412698412699  L 17.5238095238095 46.9841269841266  C 17.5238095238095 46.9841269841266  14.4198707853117 49.590335968735  12.2666666666668 48.761904761905  C 10.4771225932246 48.0733893798279  10.2446886446884 44.8253968253969  10.2446886446884 44.8253968253969  C 10.2446886446884 44.8253968253969  10.4702372462485 41.2665303762626  8.22271062271045 38.7301587301589  C 7.16448222157192 37.5359301574513  5.3953542757455 37.3349466324767  5.3953542757455 37.3349466324767  L 5.93113553113529 36.3174603174604  L 4.04395604395632 33.2698412698413  L 0.269597069597135 27.9365079365082  L 0.269597069597135 27.0476190476193  L 0.269597069597135 25.7777777777775  L 2.15677655677655 24.5079365079366  L 0.808791208791139 23.4920634920635  Z " fill-rule="nonzero" fill="#3497dc" stroke="none" transform="matrix(1 0 0 1 566 629 )" />
  </g>
</svg>