<?xml version="1.0" encoding="utf-8"?>
<svg version="1.1" xmlns:xlink="http://www.w3.org/1999/xlink" width="30px" height="26px" xmlns="http://www.w3.org/2000/svg">
  <g transform="matrix(1 0 0 1 -450 -784 )">
    <path d="M 1.0967741935482 13.1798742138366  L 8.8387096774193 7.68553459119437  L 7.03225806451575 5.4616352201257  L 12.9677419354837 3.63018867924541  L 13.4838709677421 2.58364779874216  L 21.7419354838708 2.58364779874216  L 22.9032258064521 1.53710691823846  L 26.9032258064516 2.06037735849009  L 26.9032258064516 0.228930817610607  L 28.5806451612904 1.53710691823846  L 29.2258064516128 3.63018867924541  L 29.7419354838708 5.4616352201257  L 29.2258064516128 7.03144654088066  L 26.9032258064516 8.73207547169806  L 24.9677419354841 12.2641509433958  L 24.9677419354841 18.2817610062892  L 22.9032258064521 19.4591194968554  L 18.1290322580645 24.4301886792455  L 15.2903225806453 25.2150943396225  L 11.8064516129033 25.7383647798746  L 6.52377260642066 23.4448575999611  L 2.5161290322582 22.9911949685535  L 1.0967741935482 20.1132075471695  L 0.193548387096957 16.319496855346  L 1.0967741935482 13.1798742138366  Z " fill-rule="nonzero" fill="#169bd5" stroke="none" transform="matrix(1 0 0 1 450 784 )" />
  </g>
</svg>