<?xml version="1.0" encoding="utf-8"?>
<svg version="1.1" xmlns:xlink="http://www.w3.org/1999/xlink" width="94px" height="53px" xmlns="http://www.w3.org/2000/svg">
  <g transform="matrix(1 0 0 1 -447 -611 )">
    <path d="M 11.6478260869567 10.231304347826  C 12.4408794321354 8.67160926691571  16.8246376811595 9.00231884057966  16.8246376811595 9.00231884057966  L 19.1405797101447 6.41652231757694  L 16.0072463768118 3.47188405797083  L 13.1463768115942 1.87420289855056  L 12.47532834725 0.471778940868749  L 15.053623188406 0.891014492753449  L 23.0913043478262 0.891014492753449  L 26.3608695652177 1.87420289855056  L 27.9956521739131 0.0307246376811045  L 30.7202898550725 3.47188405797083  L 34.3985507246379 6.05275362318822  L 37.1238575014011 6.41652231757694  L 41.2101449275361 8.51072463768128  L 61.1000000000001 9.61681159420281  L 61.6449275362321 15.0243478260868  L 63.1434782608697 16.4991304347827  L 69.8188405797101 15.0243478260868  L 72.5434782608696 17.4823188405798  C 72.5434782608696 17.4823188405798  73.9585891151466 19.5404546910548  75.8130434782607 19.5715942028988  C 77.7717607506278 19.6044844702003  79.3550724637679 17.4823188405798  79.3550724637679 17.4823188405798  L 82.0797101449278 18.5884057971014  L 85.0768115942032 21.5379710144927  L 89.163768115942 22.1524637681159  L 89.8449275362323 23.2585507246378  L 87.6652173913044 26.2081159420292  L 93.5231884057972 37.5147826086955  L 92.5695652173914 38.2521739130435  L 92.5695652173914 39.3582608695654  L 89.163768115942 39.3582608695654  L 85.8942028985509 41.5704347826084  L 82.0797101449278 41.5704347826084  L 78.4014492753624 43.2910144927535  L 77.8565217391303 44.2742028985506  C 77.8565217391303 44.2742028985506  74.3144927536231 44.9296618357489  72.5434782608696 45.2573913043477  C 71.6352657004832 45.7080193236715  69.8188405797101 46.6092753623188  69.8188405797101 46.6092753623188  L 66.4130434782612 49.9275362318842  L 64.9144927536232 48.4527536231883  C 64.9144927536232 48.4527536231883  65.7318840579709 44.8886956521738  64.9144927536232 43.6105011347212  C 64.0971014492756 42.3323066172687  61.1000000000001 42.0620289855072  61.1000000000001 42.0620289855072  L 58.6478260869567 44.2742028985506  L 57.4217391304347 44.2742028985506  L 56.4681159420288 40.7101449275361  L 54.2884057971014 39.9727536231886  L 52.38115942029 42.5536231884056  L 48.8391304347825 45.2573913043477  L 47.2043478260871 44.2742028985506  C 47.2043478260871 44.2742028985506  43.934782608696 42.7994202898551  42.2999999999998 42.0620289855072  C 40.3473429951689 41.6114009661835  36.4420289855075 40.7101449275361  36.4420289855075 40.7101449275361  L 29.9028985507245 38.2521739130435  L 24.044927536232 38.8666666666667  L 25.1347826086954 43.2910144927535  L 21.8589142691814 43.6105011347212  L 19.1405797101447 42.0620289855072  L 15.053623188406 44.2742028985506  L 11.6478260869567 47.7153623188404  L 10.4217391304347 52.8771014492752  L 2.11159420289852 43.2910144927535  L 2.11159420289852 39.9727536231886  L 0.340579710144908 37.5147826086955  L 1.02173913043481 35.3026086956521  L 11.6478260869567 34.4423188405794  L 19.1405797101447 30.0179710144929  C 19.1405797101447 30.0179710144929  21.2456436267066 28.0202149393074  20.7753623188406 24.9791304347829  C 20.4002633309086 22.5535445125198  18.1869565217393 20.186086956522  18.1869565217393 20.186086956522  L 14.2362318840579 18.5884057971014  L 14.2362318840579 15.0243478260868  C 14.2362318840579 15.0243478260868  10.7722607437527 11.9532754700878  11.6478260869567 10.231304347826  Z " fill-rule="nonzero" fill="#4d32a5" stroke="none" transform="matrix(1 0 0 1 447 611 )" />
  </g>
</svg>