<?xml version="1.0" encoding="utf-8"?>
<svg version="1.1" xmlns:xlink="http://www.w3.org/1999/xlink" width="66px" height="72px" xmlns="http://www.w3.org/2000/svg">
  <g transform="matrix(1 0 0 1 -453 -652 )">
    <path d="M 5.84375000000018 9.27999999999998  L 7.90625000000018 6.46400000000004  L 11.2062499999999 5.31200000000006  L 12.4437499999998 5.95199999999989  L 18.0812500000001 5.95199999999989  L 17.53125 0.959999999999928  L 18.0812500000001 0.319999999999739  L 22.3437500000002 0.319999999999739  L 28.5312500000002 2.87999999999987  L 33.2062499999999 3.64799999999983  L 41.1812500000002 8.25599999999995  L 47.3687500000002 2.87999999999987  L 48.3312499999999 5.31200000000006  L 48.3312499999999 7.7439999999998  L 52.59375 6.46400000000004  L 54.2437499999999 4.41600000000006  L 56.1687499999999 5.31200000000006  L 56.1687499999999 9.79200000000013  L 57.6812500000002 12.6079999999996  L 61.5312500000002 13.8880000000001  C 61.5312500000002 13.8880000000001  61.5312500000002 16.704  61.5312500000002 18.1119999999997  C 62.3562499999999 19.4773333333336  64.0062499999998 22.2080000000002  64.0062499999998 22.2080000000002  L 56.71875 30.5279999999997  L 57.6812500000002 36.544  L 60.4312499999999 33.9839999999998  L 60.4312499999999 39.2319999999998  C 60.4312499999999 39.2319999999998  60.9354166666666 42.816  61.5312500000002 44.6080000000003  C 62.5395833333334 45.7173333333337  65.2437500000001 47.936  65.2437500000001 47.936  L 63.4562500000001 49.5999999999998  L 63.4562500000001 51.264  L 64.5562499999999 51.264  L 65.9312500000002 52.5439999999998  L 65.9312500000002 55.1179629179498  L 64.0062499999998 58.432  L 63.4562500000001 59.4559999999996  L 61.5312500000002 61.2479999999998  C 61.5312500000002 61.2479999999998  58.0991852102664 58.5801668128975  54.2437499999999 58.432  C 51.9821074407935 58.3450836464277  50.6687500000001 59.4559999999996  50.6687500000001 59.4559999999996  C 50.6687500000001 59.4559999999996  48.7437499999997 60.8640000000001  49.0187500000001 62.0160000000002  C 49.2937500000001 63.1680000000002  50.53125 64.0640000000001  51.4937500000002 65.4720000000003  C 52.4562499999999 66.88  51.4937500000002 68.0320000000001  51.4937500000002 68.0320000000001  L 44.4812500000001 64.5759999999999  C 44.4812500000001 64.5759999999999  42.1052499999999 62.8279087173031  41.1812500000002 63.4239999999999  C 39.8834977598895 64.2612064907251  41.1812500000002 68.0320000000001  41.1812500000002 68.0320000000001  L 39.1187500000002 69.5679999999998  L 36.9187500000001 70.0800000000001  L 33.2062499999999 71.6159999999999  L 31.4187499999999 70.5919999999998  L 31.96875 67.0080000000001  L 26.6062500000001 67.0080000000001  L 28.5312500000002 62.9119999999997  L 29.90625 62.0160000000002  L 31.4187499999999 55.7440000000002  L 29.2187499999998 54.4640000000001  L 29.2187499999998 50.3680000000006  L 26.6062500000001 48.5759999999998  L 24.2687500000001 50.3680000000006  L 19.4562499999999 50.3680000000006  L 18.0812500000001 53.4400000000001  C 18.0812500000001 53.4400000000001  17.3479166666665 54.2599752786329  16.5687499999998 55.1179629179498  C 16.3355069947245 55.1179629179498  15.869020984174 55.1179629179498  15.869020984174 55.1179629179498  L 14.6437499999999 53.9519999999998  L 12.4437499999998 54.4640000000001  L 9.00625000000034 57.0239999999999  L 5.84375000000018 53.4400000000001  C 5.84375000000018 53.4400000000001  4.46874999999982 53.0559999999999  4.46874999999982 51.264  C 4.46874999999982 49.4720000000002  5.01874999999995 48.5759999999998  5.01874999999995 48.5759999999998  L 5.01874999999995 46.6559999999999  L 6.53124999999982 44.6080000000003  L 5.84375000000018 41.1449821458659  L 3.23125000000005 39.8719999999997  L 0.067037493840311 41.1449821458659  L 0.206249999999857 38.72  L 5.01874999999995 35.648  L 3.78125000000018 30.5279999999997  C 3.78125000000018 30.5279999999997  3.41458333333349 29.248  3.23125000000005 28.6080000000002  C 3.8270833333332 27.9679999999999  5.01874999999995 26.6880000000002  5.01874999999995 26.6880000000002  L 3.23125000000005 22.848  L 2.54374999999987 15.0399999999997  L 5.84375000000018 9.27999999999998  Z " fill-rule="nonzero" fill="#169bd5" stroke="none" transform="matrix(1 0 0 1 453 652 )" />
  </g>
</svg>