<?xml version="1.0" encoding="utf-8"?>
<svg version="1.1" xmlns:xlink="http://www.w3.org/1999/xlink" width="172px" height="136px" xmlns="http://www.w3.org/2000/svg">
  <g transform="matrix(1 0 0 1 -273 -487 )">
    <path d="M 0.203550295858123 30.2327526132407  L 2.28994082840222 26.6313588850174  L 7.78579881656805 27.1999999999999  L 12.0603550295859 22.6508710801396  L 17.9633136094676 16.3958188153313  L 21.2201183431952 14.5003484320556  L 23.6627218934911 12.7944250871079  L 28.9550295857989 13.3630662020905  L 34.2473372781066 11.4675958188152  L 39.7431952662724 9.76167247386724  L 39.7431952662724 1.04250871080145  C 39.7431952662724 1.04250871080145  41.6811837489462 0.78271126174779  42.6501779902832 0.652812537221005  C 43.8806577791898 0.487860313238307  46.3416173570022 0.157955865272998  46.3416173570022 0.157955865272998  L 50.5313609467455 4.26480836236908  L 51.9562130177516 7.29756097560978  L 53.1574620519527 10.5262733707897  L 55.2130177514792 12.0362369337978  L 54.3988165680475 14.5003484320556  L 51.9562130177516 17.3435540069686  L 55.8236686390532 20.5658536585367  L 56.4343195266272 23.9777003484319  L 58.4698224852073 25.8731707317076  L 59.0804733727812 29.6641114982577  L 60.9124260355028 31.3700348432058  L 63.3550295857987 31.3700348432058  L 65.3905325443787 29.0954703832752  L 78.095463510848 27.1999999999999  L 78.095463510848 29.6641114982577  L 73.5325443786982 36.2982578397214  L 75.1609467455621 38.9519163763065  L 78.6213017751478 40.8473867595817  L 81.0639053254437 43.3114982578399  L 82.692307692308 44.2592334494773  L 83.9136094674555 45.9019744483161  L 86.3562130177514 47.2919860627177  L 87.5775147928994 52.2202090592333  L 91.7296787010969 52.9704284822088  C 91.7296787010969 52.9704284822088  93.0052898000752 56.2362889556015  95.5159763313611 56.769337979094  C 98.2781794774603 57.3557870126025  101.215384615385 54.6843205574911  101.215384615385 54.6843205574911  L 100.401183431953 52.2202090592333  L 99.1798816568046 51.2724738675959  L 100.401183431953 49.5665505226479  L 102.843786982249 49.5665505226479  L 102.858332553331 49.5636542843721  C 102.858332553331 49.5636542843721  105.977747437872 51.8854235016644  109.153846153846 51.2724738675959  C 114.405019886141 50.2590592021596  117.499408284024 44.8278745644599  117.499408284024 44.8278745644599  L 121.248126232742 45.9019744483161  C 121.248126232742 45.9019744483161  123.536191244937 48.3128505564707  122.995266272189 50.7038327526133  C 122.336850995441 53.6141424696429  118.517159763313 55.252961672474  118.517159763313 55.252961672474  L 114.039053254438 57.7170731707318  L 111.8 65.298954703833  C 111.8 65.298954703833  112.614201183432 66.8153310104529  115.463905325444 69.468989547038  C 118.313609467455 72.1226480836238  120.552662721894 71.174912891986  120.552662721894 71.174912891986  L 122.995266272189 74.0181184668987  L 125.844970414201 73.4494773519166  L 128.694674556213 74.5867595818817  L 129.712426035503 76.2295005807203  L 131.747928994083 78.7567944250871  L 132.727341551477 84.1638519458638  C 132.727341551477 84.1638519458638  135.131349864572 85.6411187179913  135.411834319527 87.8550522648085  C 135.563168424194 89.0495699829318  134.597633136095 90.1296167247387  134.597633136095 90.1296167247387  L 133.502343984465 91.5399784015796  L 134.597633136095 94.4891986062717  L 140.09349112426 98.0905923344951  L 141.111242603551 100.175609756098  L 143.757396449704 102.071080139372  L 147.624852071006 101.50243902439  L 147.031163708087 97.3324041811849  L 148.846153846154 96.384668989547  L 151.102169625246 96.384668989547  L 153.120710059172 95.210975407658  L 153.934911242604 90.6982578397212  L 152.510059171598 87.8550522648085  L 148.846153846154 86.3386759581881  L 148.846153846154 77.9986062717773  L 151.102169625246 76.2295005807203  L 156.173964497041 77.2404181184666  L 160.652071005917 81.2209059233449  L 164.519526627219 83.8745644599303  L 170.427442180892 85.2013937282231  L 172 87.8550522648085  L 170.427442180892 90.6982578397212  L 170.427442180892 95.210975407658  L 169.811834319527 98.0905923344951  C 169.811834319527 98.0905923344951  164.048979625384 97.8296614772037  160.652071005917 100.175609756098  C 158.278024802208 101.8151562466  158.820118343195 104.345644599303  158.820118343195 104.345644599303  L 158.005917159764 105.210166507245  L 152.510059171598 102.829268292683  L 149.660355029586 102.829268292683  L 144.368047337278 110.411149825784  L 144.368047337278 114.391637630662  C 144.368047337278 114.391637630662  146.143458251151 116.792566782811  147.031163708087 117.993031358885  C 147.031163708087 119.151374370887  147.031163708087 121.46806039489  147.031163708087 121.46806039489  C 147.031163708087 121.46806039489  141.531234714004 120.697554016094  139.07573964497 123.489895470383  C 136.784873202294 126.095024437978  138.261538461539 130.882229965157  138.261538461539 130.882229965157  C 138.261538461539 130.882229965157  137.175936883629 132.777700348432  136.633136094674 133.72543554007  C 135.485338593031 134.357259001161  133.189743589744 135.620905923345  133.189743589744 135.620905923345  L 128.694674556213 133.72543554007  L 125.844970414201 133.72543554007  L 126.659171597633 130.124041811847  L 125.844970414201 128.039024390244  C 125.844970414201 128.039024390244  122.780407626562 125.406051229603  121.248126232742 124.089564649283  C 121.248126232742 123.215729897818  121.248126232742 121.46806039489  121.248126232742 121.46806039489  C 121.248126232742 121.46806039489  114.65491842331 121.81090478783  110.578698224852 118.940766550523  C 107.3344934496 116.656464986385  107.525443786983 113.06480836237  107.525443786983 113.06480836237  L 103.657988165681 113.06480836237  L 101.826035502959 114.960278745645  L 97.7550295857989 119.698954703833  L 99.1798816568046 125.006271777004  L 96.1266272189347 125.574912891986  L 94.2884894289238 124.089564649283  L 91.4449704142014 125.006271777004  L 85.694674556213 122.478977932637  C 85.694674556213 122.478977932637  85.1857988165683 120.120170344561  84.9313609467454 118.940766550523  C 84.9313609467454 117.61393728223  84.9313609467454 114.960278745645  84.9313609467454 114.960278745645  L 92.8698224852071 115.908013937282  L 95.5159763313611 113.633449477352  L 95.5159763313611 110.411149825784  L 92.2591715976331 108.515679442509  L 96.1266272189347 105.862020905923  L 99.8125797975595 105.210166507245  L 102.843786982249 101.50243902439  L 102.843786982249 99.4174216027874  L 104.879289940829 98.8487804878048  L 108.543195266272 91.6459930313587  L 105.489940828402 86.9073170731707  L 103.657988165681 77.2404181184666  L 101.826035502959 74.0181184668987  L 98.5692307692306 71.7435540069685  L 98.5692307692306 67.9526132404184  L 92.8698224852071 68.9003484320559  L 78.095463510848 57.7170731707318  L 75.771597633136 59.8020905923344  L 60.9124260355028 48.6188153310104  L 58.4698224852073 50.1351916376308  L 53.7881656804735 51.2724738675959  L 44.831952662722 46.5337979094079  L 41.9822485207102 47.8606271777006  L 41.9822485207102 52.9783972125439  C 41.9822485207102 52.9783972125439  42.0221493505831 55.4615787633026  40.7609467455622 56.0111498257838  C 39.197019290316 56.6926337283716  36.6899408284021 54.6843205574911  36.6899408284021 54.6843205574911  L 28.9550295857989 47.8606271777006  L 21.2201183431952 44.8278745644599  L 17.9633136094676 42.7428571428573  L 12.0603550295859 42.1742160278744  L 7.78579881656805 42.1742160278744  L 2.28994082840222 40.8473867595817  L 0.203550295858123 38.0673635307784  L 0.203550295858123 30.2327526132407  Z " fill-rule="nonzero" fill="#169bd5" stroke="none" transform="matrix(1 0 0 1 273 487 )" />
  </g>
</svg>