<?xml version="1.0" encoding="utf-8"?>
<svg version="1.1" xmlns:xlink="http://www.w3.org/1999/xlink" width="55px" height="61px" xmlns="http://www.w3.org/2000/svg">
  <g transform="matrix(1 0 0 1 -542 -669 )">
    <path d="M 7.33333333333354 29.286304909561  L 10.6857142857144 26.7643410852713  L 10.6857142857144 25.5033591731264  C 10.6857142857144 25.5033591731264  8.12068701302218 23.9706272448383  8.31111111111094 22.350904392765  C 8.69424420924821 19.0920236068412  14.4571428571427 17.0547803617572  14.4571428571427 17.0547803617572  L 15.5746031746032 12.0108527131783  L 13.8984126984127 13.3979328165374  L 14.4571428571427 8.22790697674429  L 17.9492063492063 6.33643410852722  L 20.0444444444445 7.47131782945703  L 23.536507936508 7.47131782945703  C 23.536507936508 7.47131782945703  24.9333333333333 5.70594315245501  25.6317460317459 4.82325581395396  C 26.6560846560848 4.19276485788139  28.704761904762 2.93178294573653  28.704761904762 2.93178294573653  L 28.704761904762 0.283720930232654  C 28.704761904762 0.283720930232654  30.7977451082501 0.00439122327367887  32.0571428571428 1.04031007751902  C 33.7933578328083 2.46843540956506  33.1162491366182 4.58794818509699  33.5936507936507 6.33643410852722  C 34.2141820116325 8.6091327548504  35.688888888889 10.3715762273901  35.688888888889 10.3715762273901  C 35.688888888889 10.3715762273901  38.9764909293534 11.9383250520641  41.6952380952381 10.8759689922477  C 43.8486263223711 10.0345281032472  44.6285714285717 7.47131782945703  44.6285714285717 7.47131782945703  C 44.6285714285717 7.47131782945703  45.2804232804231 9.06856158484092  45.6063492063491 9.86718346253207  C 46.397883597884 10.2034453057707  47.9809523809525 10.8759689922477  47.9809523809525 10.8759689922477  L 51.0539682539682 11.5064599483203  L 52.7301587301587 10.3715762273901  L 53.2888888888891 12.6413436692505  L 54.825396825397 13.3979328165374  L 54.825396825397 14.532816537468  L 52.0317460317461 17.0547803617572  L 52.0317460317461 19.8289405684753  L 46.4444444444447 18.9462532299739  L 45.6063492063491 19.8289405684753  L 46.4444444444447 20.8377260981914  L 52.0317460317461 24.1162790697674  L 51.0539682539682 25.5033591731264  L 46.4444444444447 27.7731266149874  L 47.9809523809525 30.9255813953488  L 47.1428571428573 32.3126614987078  L 47.9809523809525 34.8346253229971  L 45.6063492063491 34.8346253229971  L 42.3936507936508 36.8521963824292  L 44.6285714285717 38.995865633075  L 43.5111111111108 39.8785529715764  L 40.8063899055595 38.995865633075  L 40.8063899055595 43.7875968992247  L 40.8063899055595 45.8051679586564  L 38.0634920634921 48.8315245478036  L 33.5936507936507 48.8315245478036  L 33.5936507936507 51.7317829457362  L 30.2412698412698 51.2273901808786  L 29.4031746031746 54.1276485788117  L 26.3301587301585 60.0542635658917  L 22.1396825396827 56.6496124031006  C 22.1396825396827 56.6496124031006  22.6566227994404 60.2332666673527  21.4412698412698 60.6847545219639  C 19.6700508034051 61.342739412752  16.1333333333336 57.1540051679586  16.1333333333336 57.1540051679586  L 13.8984126984127 51.7317829457362  L 10.6857142857144 48.3271317829456  L 1.18730158730173 48.3271317829456  L 0.0698412698413254 44.3236677755396  L 3.28253968253961 42.2744186046511  L 2.44444444444434 39.8785529715764  L 3.28253968253961 38.995865633075  L 3.28253968253961 36.8521963824292  L 5.65714285714307 34.8346253229971  L 6.04717888938816 33.5435758209143  L 7.33333333333354 32.8170542635658  L 7.33333333333354 29.286304909561  Z " fill-rule="nonzero" fill="#169bd5" stroke="none" transform="matrix(1 0 0 1 542 669 )" />
  </g>
</svg>