<?xml version="1.0" encoding="utf-8"?>
<svg version="1.1" xmlns:xlink="http://www.w3.org/1999/xlink" width="238px" height="134px" xmlns="http://www.w3.org/2000/svg">
  <g transform="matrix(1 0 0 1 -92 -556 )">
    <path d="M 12.0021459227469 30.5614035087721  L 7.40557939914176 18.5719298245616  L 12.5260887102256 10.1265377855887  L 22.7274678111587 10.8140350877193  L 24.7703862660944 4.93684210526315  L 30.4205011534054 0  C 30.4205011534054 0  37.2710048988053 3.22920292599963  45.7103004291845 3.29122807017555  C 53.1289316938104 3.34575177681919  56.6909871244634 0.706502636203842  56.6909871244634 0.706502636203842  C 56.6909871244634 0.706502636203842  57.6707832622265 0.758682499889172  58.9892703862658 1.41052631578941  C 60.3077575103058 2.06237013169  61.6888350239575 5.07117225764425  62.5643776824033 5.87719298245617  C 64.0965665236052 7.28771929824558  66.9055793991418 5.87719298245617  66.9055793991418 5.87719298245617  L 73.5450643776826 7.51822392936282  L 80.950643776824 5.87719298245617  C 80.950643776824 5.87719298245617  84.8284474320999 7.40535914375773  89.3776824034334 6.81754385964929  C 96.0625444562497 5.95378014738474  100.869098712446 2.35087719298243  100.869098712446 2.35087719298243  L 109.296137339055 2.82105263157881  L 115.169527896996 0.706502636203842  L 118.870025515407 0.706502636203842  L 128.448497854077 3.29122807017555  L 134.832618025751 7.51822392936282  L 134.832618025751 14.3403508771934  L 132.278969957082 15.7508771929824  L 131.257510729614 20.4526315789473  C 131.257510729614 20.4526315789473  134.832618025751 21.6280701754386  134.321888412017 25.1543859649123  C 133.811158798284 28.6807017543864  131.257510729614 36.6736842105265  131.257510729614 36.6736842105265  C 131.257510729614 36.6736842105265  138.918454935622 48.6631578947366  141.727467811159 49.1333333333329  C 144.536480686695 49.60350877193  147.345493562232 46.5473684210527  147.345493562232 46.5473684210527  L 149.388412017168 47.4877192982458  L 152.963519313305 52.8947368421052  C 152.963519313305 52.8947368421052  154.839722705356 53.4858737150004  157.304721030043 54.5403508771927  C 159.613831778629 55.5281424407707  162.874848800485 56.229344247247  166.242489270386 57.4622144112477  C 168.340743045977 58.230370780536  170.320323653459 59.5836171092825  172.62660944206 60.1824561403507  C 182.585836909871 62.7684210526314  189.225321888412 60.1824561403507  189.225321888412 60.1824561403507  L 195.935787708462 67.5735436157895  L 198.163090128755 73.1122807017544  L 203.525751072961 75.9333333333335  L 206.845493562232 74.7578947368423  L 209.143776824034 70.99649122807  L 210.931330472103 70.99649122807  L 212.974248927039 74.7578947368423  L 218.081545064378 72.4070175438599  L 218.081545064378 69.8210526315788  L 220.635193133047 68.8807017543862  L 220.635193133047 63.4736842105263  L 227.019313304721 68.8807017543862  L 227.785407725322 73.1122807017544  L 232.381974248927 77.5769028681173  L 233.403433476395 86.2771929824561  L 235.44635193133 92.6245614035086  L 236.212446351931 94.0350877192984  L 235.44635193133 100.382456140351  L 238 104.84806648186  L 235.44635193133 110.214411247803  L 229.828326180257 114.722807017544  L 230.849785407725 120.129321955079  L 225.742489270386 122.224956063269  C 225.742489270386 122.224956063269  222.93347639485 115.663157894737  218.847639484978 116.133333333333  C 214.761802575107 116.60350877193  216.804721030043 120.6  216.804721030043 120.6  L 215.272532188841 125.521968365554  L 209.143776824034 123.166959578207  L 203.525751072961 118.249122807018  L 194.587982832618 118.249122807018  L 181.81974248927 125.521968365554  L 175.94635193133 124.579964850615  L 171.860515021459 130.473684210526  L 166.75321888412 132.824561403509  L 152.963519313305 134  L 150.154506437768 128.59298245614  L 150.154506437768 123.166959578207  L 145.81330472103 123.166959578207  L 145.81330472103 118.249122807018  L 137.422127153151 117.01028458478  L 130.74678111588 113.782456140351  C 130.74678111588 113.782456140351  126.57817317912 111.335002484998  123.596566523605 111.666666666667  C 120.872192378062 111.969717144459  119.510729613734 113.782456140351  119.510729613734 113.782456140351  L 113.12660944206 123.166959578207  L 110.062231759656 118.954385964913  C 110.062231759656 118.954385964913  114.658798283262 114.957894736842  112.105150214592 112.842105263158  C 109.551502145923 110.726315789473  97.8047210300427 112.842105263158  97.8047210300427 112.842105263158  L 92.9527896995705 112.842105263158  L 86.5686695278967 108.845614035087  L 80.950643776824 110.214411247803  C 80.950643776824 110.214411247803  78.9295215344637 106.16895173431  74.5665236051502 103.673684210526  C 71.5382721605915 101.941779312591  68.1824034334761 102.028070175439  68.1824034334761 102.028070175439  L 66.394849785408 98.2666666666666  L 59.7194394909772 94.7208687066535  L 54.9034334763948 87.2175438596491  L 50.6156237678507 88.0773286467487  C 50.6156237678507 88.0773286467487  47.3454082087402 83.5860101337113  45.7103004291845 81.340350877193  C 44.4849397528199 80.6706531854673  42.0342184000902 79.3312578020152  42.0342184000902 79.3312578020152  L 35.2403433476399 72.4070175438599  L 33.9635193133047 68.1754385964908  L 29.1115879828324 67.4701754385963  L 25.791845493562 71.4666666666663  L 24.7703862660944 71.4666666666663  L 19.1725847605493 66.8822495606326  L 10.2253785389597 57.4622144112477  L 5.87959265990189 52.2811950790862  L 1.02253785389601 52.2811950790862  L 0 45.6871704745169  L 2.81197909821384 40.506151142355  L 1.02253785389601 37.9156414762742  L 1.78944124431823 32.2636203866431  L 3.57510729613713 36.2035087719297  L 7.40557939914176 36.2035087719297  C 7.40557939914176 36.2035087719297  9.95922746781125 34.6362573099416  11.236051502146 33.8526315789472  C 11.4914163090127 32.7555555555555  12.0021459227469 30.5614035087721  12.0021459227469 30.5614035087721  Z " fill-rule="nonzero" fill="#4c78da" stroke="none" transform="matrix(1 0 0 1 92 556 )" />
  </g>
</svg>