<?xml version="1.0" encoding="utf-8"?>
<svg version="1.1" xmlns:xlink="http://www.w3.org/1999/xlink" width="73px" height="58px" xmlns="http://www.w3.org/2000/svg">
  <g transform="matrix(1 0 0 1 -387 -666 )">
    <path d="M 32.1268065268062 21.0795698924729  C 34.7132867132866 19.4580645161287  34.9173582434893 18.8913812464  34.5771561771565 16.5892473118281  C 34.3497256683573 15.0502340491925  32.9435897435896 14.9261648745518  32.1268065268062 14.0946236559139  C 30.8562548562546 13.8867383512548  28.3151515151516 13.4709677419356  28.3151515151516 13.4709677419356  C 28.3151515151516 13.4709677419356  24.9578410475851 11.2286334745673  25.4564102564102 9.60430107526914  C 25.690008393626 8.84324119435589  27.6301154617546 8.69790659470439  27.6301154617546 8.69790659470439  L 30.2209790209792 8.69790659470439  C 30.2209790209792 8.69790659470439  31.4915306915309 10.3000190441127  32.1268065268062 11.101075268817  C 33.019960416167 10.9347670250899  34.8062681948885 10.6021505376343  34.8062681948885 10.6021505376343  L 35.6662004662006 9.60430107526914  L 36.7552447552447 10.6021505376343  L 39.4778554778556 10.6021505376343  L 40.4307692307695 9.60430107526914  L 40.4307692307695 7.98279569892486  L 40.9752913752916 6.73548387096777  L 41.792074592075 6.11182795698949  L 45.73986013986 6.11182795698949  L 47.509557109557 3.99139784946243  L 48.1902097902096 0.124731182795585  L 49.2792540792544 0.124731182795585  C 49.2792540792544 0.124731182795585  49.5515151515154 4.24086021505404  51.7296037296036 4.73978494623638  C 53.9076923076924 5.23870967741916  55.2689976689975 1.1225806451615  55.2689976689975 1.1225806451615  L 56.4941724941725 1.1225806451615  L 57.9916083916088 1.74623655913943  L 57.9916083916088 4.73978494623638  L 59.3529137529139 6.73548387096777  L 60.1696969696969 11.101075268817  L 63.3006993006993 11.101075268817  L 63.9813519813519 13.4709677419356  C 63.9813519813519 13.4709677419356  64.7981351981349 14.5935483870967  66.4317016317014 14.7182795698927  C 68.0652680652682 14.8430107526883  68.2013986013984 12.3483870967741  68.2013986013984 12.3483870967741  L 68.8820512820513 12.3483870967741  L 68.2013986013984 11.6000000000002  L 69.9710955710953 11.101075268817  L 71.0601398601402 11.6000000000002  L 69.9710955710953 13.4709677419356  L 69.4265734265733 14.7182795698927  C 69.4265734265733 14.7182795698927  71.5029870013586 19.3255726248198  70.9412370904228 20.5767648070335  C 70.3794871794873 21.8279569892472  66.4317016317014 24.447311827957  66.4317016317014 24.447311827957  C 66.4317016317014 24.447311827957  65.2354649255362 27.7670699568575  66.4317016317014 28.5633598270926  C 67.9563636363638 29.5782700899083  71.8769230769232 26.9419354838712  71.8769230769232 26.9419354838712  L 72.5575757575754 30.4344086021505  L 71.8769230769232 31.8064516129031  L 70.9412370904228 36.2967741935483  L 72.5575757575754 39.6645161290321  L 71.8769230769232 42.5333333333334  L 67.3846153846154 43.0322580645161  C 67.3846153846154 43.0322580645161  66.2048174048175 44.2795698924732  65.6149184149184 44.9032258064516  C 64.4804972804976 45.4853046594983  62.2116550116549 46.649462365591  62.2116550116549 46.649462365591  L 61.2587412587409 48.3956989247309  L 59.3529137529139 48.3956989247309  L 56.4941724941725 50.3913978494623  L 55.2689976689975 52.0129032258061  L 52.2692241540858 50.952048837285  C 52.2692241540858 50.952048837285  49.9128960078498 50.952048837285  48.734731934732 50.952048837285  C 48.3263403263401 50.3909716262905  47.509557109557 49.2688172043012  47.509557109557 49.2688172043012  L 43.9701631701631 47.7720430107529  C 43.9701631701631 47.7720430107529  41.9735819735818 50.0172043010751  40.9752913752916 51.1397849462366  C 39.815239140284 51.6686077981769  37.4951346702686 52.7262535020584  37.4951346702686 52.7262535020584  L 34.8062681948885 54.7835742539693  C 34.8062681948885 54.7835742539693  33.019960416167 55.3479297692445  32.1268065268062 55.6301075268818  C 31.673038073038 56.3784946236562  30.7655011655011 57.8752688172044  30.7655011655011 57.8752688172044  L 26.0009324009322 57.8752688172044  L 21.8046679574469 56.2688730275436  L 18.2414918414918 55.6301075268818  L 12.7962703962704 57.8752688172044  L 15.1104895104894 52.0129032258061  L 10.3459207459208 48.3956989247309  L 10.3459207459208 44.9032258064516  C 10.3459207459208 44.9032258064516  12.9293955318374 41.840427495137  12.7962703962704 38.0430107526882  C 12.7095543380587 35.5694206985633  10.8904428904429 33.6774193548386  10.8904428904429 33.6774193548386  L 8.44009324009338 33.1784946236562  L 5.85361305361298 33.1784946236562  L 4.49230769230791 34.9247311827957  L 1.76969696969697 33.6774193548386  L 0.408391608391539 30.4344086021505  L 0.408391608391539 28.4387096774191  L 1.76969696969697 26.0688172043013  L 5.30909090909094 25.195698924731  L 12.7962703962704 25.195698924731  L 15.1104895104894 26.0688172043013  C 15.1104895104894 26.0688172043013  17.6515928515927 24.9878136200717  18.9221445221447 24.447311827957  C 19.8829856672454 23.7405017921146  21.8046679574469 21.8279569892472  21.8046679574469 21.8279569892472  L 23.4144522144523 22.7010752688171  C 23.4144522144523 22.7010752688171  29.5403263403263 22.7010752688171  32.1268065268062 21.0795698924729  Z " fill-rule="nonzero" fill="#169bd5" stroke="none" transform="matrix(1 0 0 1 387 666 )" />
  </g>
</svg>