<?xml version="1.0" encoding="utf-8"?>
<svg version="1.1" xmlns:xlink="http://www.w3.org/1999/xlink" width="73px" height="62px" xmlns="http://www.w3.org/2000/svg">
  <g transform="matrix(1 0 0 1 -551 -465 )">
    <path d="M 27.2251207729466 14.0965174129354  L 31.0338164251209 14.5900497512435  L 31.0338164251209 11.2587064676618  L 33.0086956521736 8.82189054726388  L 36.5352657004831 9.65472636815944  L 41.0492753623191 8.82189054726388  L 44.1526570048309 5.6139303482585  L 45.4222222222223 3.51641791044804  L 44.8579710144926 1.66567164179112  L 45.4222222222223 0.185074626865895  L 48.2434782608697 2.40597014925347  L 52.193236714976 1.66567164179112  L 52.7574879227053 3.51641791044804  L 54.7323671497585 4.75024875621895  L 57.2714975845409 4.75024875621895  L 58.8231884057972 1.66567164179112  L 59.9516908212562 2.40597014925347  C 59.9516908212562 2.40597014925347  59.105314009662 4.47263681592028  59.9516908212562 6.32338308457685  C 60.7980676328508 8.17412935323387  61.6444444444445 8.82189054726388  61.6444444444445 8.82189054726388  L 66.7227053140094 12.0298507462686  L 66.7227053140094 17.5820895522391  L 67.2869565217391 20.2965174129351  C 67.2869565217391 20.2965174129351  70.9545893719807 22.1472636815921  69.4028985507247 21.9004975124379  C 67.8512077294689 21.653731343284  71.2367149758455 21.9004975124379  71.2367149758455 21.9004975124379  L 72.2241545893721 22.8875621890545  L 72.9294685990342 27.4527363184075  L 71.2367149758455 29.3034825870645  L 63.9014492753622 36.2129353233831  L 59.9595141500196 44.2169507183063  L 59.9516908212562 44.2328358208955  L 58.5465661755164 44.5943114745254  L 55.2966183574882 45.5592039800995  L 53.3217391304346 45.5592039800995  L 50.3594202898552 46.7004975124377  L 38.6512077294687 56.6636815920397  L 36.5352657004831 60.4885572139304  L 35.5478260869566 61.7532338308458  L 30.3285024154587 61.7532338308458  L 31.0338164251209 60.4885572139304  L 34.2782608695655 59.6557213930349  L 35.5478260869566 57.774129353234  L 35.5478260869566 56.6636815920397  L 37.0995169082124 55.4606965174128  L 36.5352657004831 52.3761194029849  L 34.2782608695655 53.5791044776119  L 32.4444444444444 54.1960199004976  L 32.4444444444444 51.6049751243782  L 33.5729468599033 49.3840796019898  L 35.4835852564842 47.3933058473313  L 36.5352657004831 44.5943114745254  L 36.5352657004831 39.636815920398  L 33.5729468599033 35.1455866585912  L 31.0338164251209 33.9611940298508  L 28.4946859903381 35.1455866585912  L 27.6482190311427 35.1455866585912  L 26.5198067632853 35.6885572139306  L 24.4038647342996 36.2129353233831  L 21.7236714975848 38.7731343283581  L 16.7864734299519 46.7004975124377  L 14.247342995169 47.286567164179  L 9.7333333333334 46.7004975124377  L 8.88695652173925 43.4616915422887  L 6.86744844824452 42.4348706068412  L 4.09082125603877 41.2407960199003  L 0.423188405797256 40.6238805970151  L 0 40.1303482587065  L 0.423188405797256 38.1870646766168  L 0.423188405797256 36.2129353233831  L 2.68019323671491 32.9741293532337  L 5.78357487922708 30.660696517413  L 4.09082125603877 21.9004975124379  L 8.0405797101451 24.9542288557214  L 10.2975845410627 26.0646766169155  L 13.5420289855073 24.2139303482589  L 19.6077294685992 17.5820895522391  L 22.570048309179 16.5641791044776  L 24.4038647342996 13.6029850746268  L 27.2251207729466 14.0965174129354  Z " fill-rule="nonzero" fill="#3497dc" stroke="none" transform="matrix(1 0 0 1 551 465 )" />
  </g>
</svg>