<?xml version="1.0" encoding="utf-8"?>
<svg version="1.1" xmlns:xlink="http://www.w3.org/1999/xlink" width="55px" height="51px" xmlns="http://www.w3.org/2000/svg">
  <g transform="matrix(1 0 0 1 -409 -628 )">
    <path d="M 0.0345911949683568 29.7311111111111  L 1.41823899371067 28.1444444444444  L 13.8710691823901 29.0259259259258  L 16.0849056603773 26.6333333333334  L 18.2987421383649 23.3592592592592  L 21.3427672955977 22.1000000000002  L 24.2484276729557 17.9444444444442  L 27.1540880503144 16.0555555555555  L 29.6446540880505 11.9  L 31.305031446541 10.2377777777778  L 33.1037735849056 7.24074074074071  L 33.7955974842768 3.21111111111121  L 37.7943396226417 0.113333333333494  L 42.9415094339624 4.19333333333312  L 45.2660377358493 5.40222222222202  L 48.2547169811319 4.79777777777775  L 52.0735849056605 6.15777777777783  C 52.0735849056605 6.15777777777783  54.0888445857568 7.4455289162114  54.5641509433962 10.2377777777778  C 54.9308862959917 12.3922121848116  53.8999999999998 14.1666666666668  53.8999999999998 14.1666666666668  L 48.9959568733154 16.0555555555555  L 45.2660377358493 17.9444444444442  L 40.8522012578618 17.9444444444442  L 34.6396226415096 18.851111111111  L 33.1037735849056 22.6666666666669  L 35.1792452830187 25.9047619047618  L 36.1339622641509 29.7311111111111  L 41.820754716981 35.8888888888893  L 44.4358490566037 40.0066666666665  L 45.9301886792454 48.0155555555554  L 44.4358490566037 48.0155555555554  L 42.9415094339624 48.6703703703702  L 41.820754716981 50.811111111111  L 40.8522012578618 50.811111111111  L 40.0220125786165 48.0155555555554  L 38.5000000000001 46.9074074074071  L 37.1163522012581 47.5370370370372  L 36.1339622641509 46.9074074074071  L 36.1339622641509 44.7666666666667  L 35.1792452830187 42.3740740740742  C 35.1792452830187 42.3740740740742  34.6589151529556 37.8105721401247  32.5503144654089 37.337037037037  C 30.1695000069998 36.8023700293606  27.1540880503144 41.1148148148148  27.1540880503144 41.1148148148148  L 26.6006289308177 41.1148148148148  L 25.632075471698 37.337037037037  C 25.632075471698 37.337037037037  25.2169811320754 36.2037037037035  23.5566037735849 36.4555555555556  C 21.8962264150944 36.7074074074072  21.3427672955977 38.3444444444443  21.3427672955977 38.3444444444443  L 20.789308176101 41.1148148148148  L 19.6823899371068 42.8777777777776  L 15.5314465408802 42.8777777777776  L 13.8710691823901 44.7666666666667  L 12.3490566037737 45.7757238464009  L 12.9025157232708 46.9074074074071  L 12.3490566037737 46.9074074074071  L 11.5188679245285 45.7757238464009  L 9.30503144654087 45.7757238464009  L 8.19811320754711 47.5370370370372  L 6.81446540880515 47.5370370370372  C 6.81446540880515 47.5370370370372  8.4342376433128 45.0136119670171  7.50628930817595 42.8777777777776  C 6.60885109025859 40.8121679200093  3.63207547169828 40.0066666666665  3.63207547169828 40.0066666666665  L 0.864779874213923 36.4555555555556  L 0.0345911949683568 32.6777777777777  L 0.0345911949683568 29.7311111111111  Z " fill-rule="nonzero" fill="#169bd5" stroke="none" transform="matrix(1 0 0 1 409 628 )" />
  </g>
</svg>