<?xml version="1.0" encoding="utf-8"?>
<svg version="1.1" xmlns:xlink="http://www.w3.org/1999/xlink" width="63px" height="103px" xmlns="http://www.w3.org/2000/svg">
  <g transform="matrix(1 0 0 1 -409 -531 )">
    <path d="M 18.5355371900827 32.3114814814816  L 20.2016528925621 23.3085185185184  L 25.533223140496 24.8344444444443  L 29.3652892561985 26.0551851851851  L 34.0304132231407 26.0551851851851  L 35.6965289256199 23.3085185185184  L 38.029090909091 16.2892592592592  L 38.029090909091 12.4744444444446  L 43.3606611570248 8.04925925925915  L 50.8581818181817 4.84481481481478  L 50.1917355371901 1.94555555555556  L 52.6909090909093 1.94555555555556  L 56.3563636363637 3.62407407407403  L 57.3560330578512 0.114444444444606  L 60.1884297520662 0.114444444444606  L 61.1880991735537 2.55592592592576  L 56.3563636363637 6.06555555555563  L 58.355702479339 9.11740740740742  L 58.2919645813324 10.9513516829317  L 54.3570247933884 15.678888888889  L 54.5359453367233 20.2398222145547  L 56.3563636363637 21.3248148148149  L 57.3560330578512 23.3085185185184  L 57.3560330578512 26.8181481481483  L 54.3570247933884 29.1070370370369  C 54.3570247933884 29.1070370370369  53.3573553719006 31.701111111111  53.5239669421491 35.821111111111  C 53.6905785123968 39.9411111111111  55.1900826446278 42.8403703703703  55.1900826446278 42.8403703703703  L 56.3563636363637 46.6551851851852  L 53.5239669421491 60.0833333333331  L 52.6909090909093 63.5929629629629  L 53.5239669421491 65.4240740740742  L 56.3563636363637 66.6448148148151  C 56.3563636363637 66.6448148148151  56.0231404958675 70.307037037037  56.3563636363637 72.4433333333335  C 56.6895867768595 74.5796296296296  61.8545454545457 77.3262962962963  61.8545454545457 77.3262962962963  L 62.687603305785 82.5144444444445  L 61.1880991735537 83.5825925925928  L 58.355702479339 82.5144444444445  L 50.8581239188599 82.5144444444445  C 50.8581239188599 82.5144444444445  48.1923773944408 82.5144444444445  46.8595041322311 82.5144444444445  C 46.5262809917357 82.8704938271607  46.1930578512398 83.2265432098767  45.8598347107437 83.5825925925928  C 46.1930578512398 84.5490123456795  45.5266115702478 84.8033333333331  46.8595041322311 86.1766666666665  C 48.1923966942148 87.5499999999999  50.8581818181817 87.8551851851849  50.8581818181817 87.8551851851849  L 53.5239669421491 91.0596296296296  L 48.8588429752068 91.0596296296296  L 45.8598347107437 93.1959259259257  L 48.0257851239667 99.4522222222218  L 48.8588429752068 102.656666666667  L 46.8595041322311 102.656666666667  L 44.8601652892562 102.656666666667  L 38.029090909091 98.0788888888893  L 32.5309090909089 96.8581481481481  L 27.699173553719 98.0788888888893  L 25.533223140496 96.2477777777775  L 22.3676033057851 93.1959259259257  L 20.2016528925621 94.8744444444446  L 18.5355371900827 94.8744444444446  L 17.0360330578512 92.5855555555555  L 15.5365289256198 90.1440740740739  L 6.03966942148769 92.5855555555555  L 2.37421487603285 89.3811111111113  L 0.374876033057591 82.5144444444445  L 2.37421487603285 79.7677777777774  L 5.37322314049561 79.0048148148147  L 10.8714049586776 79.0048148148147  L 10.204958677686 73.969259259259  L 8.70545454545459 70.7648148148147  L 8.03900826446295 66.6448148148151  L 12.8707438016529 60.0833333333331  L 14.5368595041324 60.0833333333331  L 21.2013223140495 62.9825925925927  C 21.2013223140495 62.9825925925927  22.867438016529 62.9825925925927  23.7004958677684 62.9825925925927  C 24.3114049586777 62.2196296296295  25.533223140496 60.6937037037036  25.533223140496 60.6937037037036  L 22.3676033057851 59.0151851851852  C 22.3676033057851 59.0151851851852  22.867438016529 57.0314814814817  26.8661157024793 56.115925925926  C 30.8647933884295 55.2003703703708  32.5309090909089 56.115925925926  32.5309090909089 56.115925925926  L 34.6968595041319 50.6225925925923  L 34.6968595041319 46.6551851851852  L 36.5295867768596 43.9085185185185  L 34.6968595041319 40.8566666666668  L 32.5309090909089 39.3307407407404  L 26.8661157024793 38.11  L 22.3676033057851 34.9055555555553  L 18.5355371900827 32.3114814814816  Z " fill-rule="nonzero" fill="#3497dc" stroke="none" transform="matrix(1 0 0 1 409 531 )" />
  </g>
</svg>