<?xml version="1.0" encoding="utf-8"?>
<svg version="1.1" xmlns:xlink="http://www.w3.org/1999/xlink" width="154px" height="103px" xmlns="http://www.w3.org/2000/svg">
  <g transform="matrix(1 0 0 1 -225 -529 )">
    <path d="M 23.8302828618969 24.6820276497697  L 16.1430948419303 14.4769585253459  L 15.1181364392678 7.59447004608318  L 19.2179700499171 5.91500601984444  L 23.2790697674416 5.91500601984444  L 27.1162790697677 5.19724770642206  L 30.1860465116279 5.91500601984444  L 34.2790697674421 4.01605504587167  L 38.1162790697674 4.01605504587167  L 41.1860465116276 2.83486238532083  L 45.0232558139533 1.88990825688082  L 49.4542429284523 0  L 55.2558139534883 1.41743119266086  L 60.3720930232558 0.94495412844081  L 65.7441860465118 2.83486238532083  L 68.5581395348838 4.7247706422021  L 73.1627906976743 5.91500601984444  L 79.0465116279073 10.6307339449541  L 82.8837209302326 14.4769585253459  L 86.6089850249584 15.1499200813716  L 89.5348837209304 14.4769585253459  L 90.5581395348837 10.6307339449541  L 90.5581395348837 7.08715596330252  L 91.7337770382694 5.91500601984444  L 98.2325581395351 9.44954128440375  L 101.046511627907 10.6307339449541  L 104.627906976744 9.44954128440375  L 106.162790697675 9.44954128440375  L 108.645590682196 8.51972537053201  L 122.226289517471 18.93860277328  L 124.837209302325 18.93860277328  L 125.813643926789 17.0442614273262  L 132.988352745424 23.2008708016771  L 139.650582362729 28.1735168348071  L 144.77537437604 26.7527608253412  L 144.77537437604 30.0022935779817  L 148.116279069767 33.0733944954125  L 149.139534883721 35.4357798165138  L 150.537435435435 39.580345399192  L 151.441860465116 45.0921658986175  L 154 49.8463302752292  L 151.441860465116 55.2798165137616  L 148.116279069767 56.2247706422021  L 148.116279069767 58.8233944954125  L 146.06976744186 61.6582568807337  L 142.488372093023 61.6582568807337  L 137.883720930233 65.9105504587154  L 137.883720930233 67.0917431192663  L 141.720930232558 69.454128440367  L 139.650582362729 72.0527522935779  L 130.682196339434 71.2697824552665  L 131.232558139535 81.2660550458717  L 136.604651162791 83.3922018348625  L 136.604651162791 85.045871559633  C 136.604651162791 85.045871559633  133.279069767442 83.6284403669725  132.255813953489 84.1009174311925  C 131.232558139535 84.5733944954125  132.988352745424 91.3709677419351  132.988352745424 91.3709677419351  L 126.372093023256 91.3709677419351  L 125.813643926789 94.9678899082571  L 123.813953488372 91.8967889908258  L 119.46511627907 90.7155963302754  L 117.930232558139 87.5737327188938  L 114.79534109817 89.4723502304149  L 110 84.1009174311925  L 109.232558139535 82.2110091743121  L 106.674418604651 81.2660550458717  L 105.139534883721 78.4311926605504  L 105.139534883721 75.9447004608295  L 103.604651162791 72.7614678899084  L 100.279069767442 72.7614678899084  L 94.906976744186 72.0527522935779  L 92.8604651162791 71.2697824552665  L 90.5581395348837 73.9426605504588  L 90.5581395348837 77.25  L 91.7337770382694 82.2110091743121  L 89.5348837209304 82.9197247706421  L 89.5348837209304 86.2270642201833  L 87.2325581395349 88.1169724770642  L 85.4666580617549 92.0053661026208  L 86.6089850249584 95.6766055045875  L 84.1627906976744 97.0940366972475  L 83.6511627906978 100.637614678899  L 81.0930232558138 101.582568807339  L 79.0465116279073 98.7477064220183  L 76.488372093023 97.0940366972475  L 74.4418604651161 99.6926605504588  L 73.1627906976743 102.52752293578  L 70.9783693843597 103  L 67.2790697674417 101.582568807339  L 66.5116279069765 98.7477064220183  L 64.2093023255815 94.9678899082571  L 62.4186046511631 94.0229357798167  L 56.6289517470884 87.0990783410141  L 51.1627906976741 88.1169724770642  L 40.2296173044924 87.5737327188938  L 31.7209302325578 84.1009174311925  L 27.1162790697677 82.9197247706421  L 20.7554076539101 79.979262672811  C 20.7554076539101 79.979262672811  17.7013891576056 74.6513761467892  15.1181364392678 73.9426605504588  C 12.5348837209304 73.2339449541283  12.3454451120421 76.5364390229686  9.72093023255833 75.9447004608295  C 7.39927398609115 75.4212461875062  6.28801707260053 73.9287730930884  4.86046511627899 72.0527522935779  C 2.18222271636376 68.5331336722572  0 64.5529953917049  0 64.5529953917049  L 1.02495840266213 61.6582568807337  L 3.3255813953491 54.8073394495412  L 3.3255813953491 51.26376146789  L 1.02495840266213 48.6651376146792  L 1.02495840266213 45.0921658986175  L 3.3255813953491 43.2316513761466  L 4.09983361064888 36.0737327188938  L 8.18604651162805 36.0737327188938  L 12.2790697674419 37.5619266055046  L 18.1627906976745 38.743119266055  L 20.7554076539101 37.5619266055046  L 20.7554076539101 34.4908256880733  L 19.2179700499171 29.4285714285714  L 23.8302828618969 24.6820276497697  Z " fill-rule="nonzero" fill="#169bd5" stroke="none" transform="matrix(1 0 0 1 225 529 )" />
  </g>
</svg>