<?xml version="1.0" encoding="utf-8"?>
<svg version="1.1" xmlns:xlink="http://www.w3.org/1999/xlink" width="138px" height="115px" xmlns="http://www.w3.org/2000/svg">
  <g transform="matrix(1 0 0 1 -545 -335 )">
    <path d="M 0.154477611940258 11.3580246913579  L 1.18432835820936 4.3539094650207  L 14.7783582089554 0.18930041152277  L 20.9574626865674 2.08230452674896  L 32.6977611940296 2.65020576131692  L 43.6141791044778 13.2510288065845  L 56.7962686567162 28.2057613168725  L 63.3873134328359 41.0781893004118  L 74.5097014925374 41.6460905349794  L 87.0738805970149 43.7283950617283  L 90.5753731343285 45.8106995884773  L 94.2828358208956 45.2427983539094  L 95.1067164179104 49.4074074074073  L 97.3723880597012 50.9218106995883  L 99.4320895522385 53.0041152263377  L 97.9902985074626 54.7078189300411  L 103.139552238806 59.440329218107  L 117.763432835821 56.601889968847  L 120.441044776119 53.5720164609053  C 120.441044776119 53.5720164609053  120.235074626866 51.1111111111111  121.058955223881 49.4074074074073  C 121.882835820895 47.7037037037039  125.796268656716 47.1358024691355  125.796268656716 47.1358024691355  C 125.796268656716 47.1358024691355  127.238059701493 43.539094650206  128.679850746269 42.5925925925929  C 130.121641791045 41.6460905349794  133.829104477612 41.0781893004118  133.829104477612 41.0781893004118  L 133.829104477612 45.2427983539094  L 135.064925373134 47.8930041152263  L 136.50671641791 49.4074074074073  L 136.50671641791 51.6790123456791  L 135.064925373134 53.5720164609053  L 135.467371356461 56.601889968847  L 137.330597014925 66.0658436213995  L 137.948507462687 76.8559670781895  L 137.330597014925 79.1275720164608  L 135.467371356461 83.4814814814815  L 133.211194029851 85.7530864197533  L 128.679850746269 85.7530864197533  L 126.82635047145 85.1851851851853  L 123.942537313433 85.1851851851853  L 119.411194029851 89.3497942386832  L 116.733582089552 94.0823045267491  L 118.587313432836 97.6790123456791  L 122.088805970149 101.465020576132  L 123.942537313433 111.119341563786  L 122.088805970149 111.119341563786  L 116.733582089552 108.847736625514  L 116.733582089552 106.954732510288  L 116.733582089552 105.251028806585  L 113.85 105.251028806585  L 112.820149253731 108.847736625514  L 112.202238805971 108.847736625514  L 109.112686567164 106.954732510288  C 109.112686567164 106.954732510288  105.817164179105 108.090534979424  104.581343283582 110.551440329218  C 103.34552238806 113.012345679012  105.44025538469 114.318271998165  105.44025538469 114.318271998165  L 103.139552238806 114.716049382716  L 98.8141791044774 110.551440329218  L 95.1067164179104 108.847736625514  L 95.1067164179104 106.197530864197  L 93.6649253731341 104.115226337448  L 91.811194029851 104.115226337448  L 90.5753731343285 106.197530864197  L 90.5753731343285 108.847736625514  L 89.9574626865674 109.604938271605  L 88.3097014925373 109.604938271605  L 87.6917910447763 106.197530864197  L 82.1305970149253 102.411522633745  L 81.5126865671639 104.115226337448  L 79.0410447761193 104.115226337448  L 79.0410447761193 102.411522633745  L 76.981343283582 99.1934156378602  L 69.7723880597013 99.1934156378602  L 68.9485074626865 101.465020576132  C 68.9485074626865 101.465020576132  67.7126865671643 100.329218106996  67.0947761194033 99.7613168724281  C 67.0947761194033 99.3827160493825  67.0947761194033 98.6255144032918  67.0947761194033 98.6255144032918  L 64.6231343283579 95.9753086419753  L 60.9156716417909 97.6790123456791  L 58.8559701492536 97.1111111111112  L 56.1783582089556 97.6790123456791  L 51.6470149253729 99.1934156378602  L 49.9992537313432 99.1934156378602  L 45.8798507462685 95.9753086419753  L 44.4380597014922 92.7572016460905  L 42.3783582089553 88.4032921810697  L 37.0231343283581 91.2427983539094  L 35.1694029850746 90.2962962962963  L 34.5514925373136 84.0493827160495  L 31.2559701492537 83.4814814814815  L 31.2559701492537 82.1563786008228  L 26.3126865671642 76.8559670781895  L 29.1962686567164 73.2592592592594  L 31.2559701492537 72.6913580246911  L 32.6977611940296 70.7983539094653  L 35.1694029850746 64.3621399176952  L 37.847014925373 62.8477366255142  L 41.3485074626866 64.3621399176952  L 42.9962686567163 63.6049382716049  L 44.4380597014922 58.1152263374483  L 42.9962686567163 55.4650205761314  L 43.6141791044778 51.6790123456791  L 46.1763097784862 48.8395061728398  L 46.7037313432838 46.3786008230452  L 45.0559701492536 39.374485596708  L 46.1763097784862 34.2602041010263  L 45.0559701492536 31.6131687242801  L 45.8798507462685 27.4485596707822  L 41.3485074626866 19.6872427983538  L 37.847014925373 17.7942386831272  L 33.9335820895525 19.6872427983538  L 32.6977611940296 21.9588477366256  L 29.1962686567164 22.7160493827159  L 24.6649253731341 25.3662551440332  L 22.811194029851 26.3127572016463  L 19.3097014925373 25.3662551440332  L 14.7783582089554 20.6337448559673  L 14.7783582089554 16.4691358024689  L 16.0141791044775 14.3868312757204  L 9.83507462686593 12.304526748971  L 7.77537313432818 13.2510288065845  L 6.53955223880612 15.3333333333335  L 2.0082089552238 15.3333333333335  L 1.18432835820936 13.2510288065845  L 0.154477611940258 11.3580246913579  Z " fill-rule="nonzero" fill="#3497dc" stroke="none" transform="matrix(1 0 0 1 545 335 )" />
  </g>
</svg>