<?xml version="1.0" standalone="no"?><!DOCTYPE svg PUBLIC "-//W3C//DTD SVG 1.1//EN" "http://www.w3.org/Graphics/SVG/1.1/DTD/svg11.dtd"><svg class="icon" style="" viewBox="0 0 1000 1000" version="1.1" xmlns="http://www.w3.org/2000/svg" p-id="1933" xmlns:xlink="http://www.w3.org/1999/xlink" width="200" height="200"><defs><style type="text/css"><![CDATA[

]]></style></defs><path d="M1002 331q0 64-26 119.5t-71 94.5q45 40 71 95t26 120v143q-30 0-56-11t-45.5-30.5-30.5-45.5-11-56-11-56-30.5-45.5-45.5-30.5-56-11-56 11-45.5 30.5-30.5 45.5-11 56-11 56-30.5 45.5-45.5 30.5-56 11v-143q0-65 26-120t71-95q-45-39-71-94.5t-26-119.5v-143q30 0 56 11t45.5 30.5 30.5 45.5 11 56 11 56 30.5 45.5 45.5 30.5 56 11 56-11 45.5-30.5 30.5-45.5 11-56 11-56 30.5-45.5 45.5-30.5 56-11v143zM286 760q45 0 80.5-24.5t51.5-62.5q-12 41-12 87v117q-57 26-120 26-59 0-111-22.5t-91-61.5-61.5-91-22.5-111v-429q30 0 56 11t45.5 30.5 30.5 45.5 11 56v286q0 30 11 56t30.5 45.5 45.5 30.5 56 11zM430 458q21 51 58 91-42 47-63 103 5-18 5-35v-159z" p-id="1934" fill="#ffffff"></path></svg>